999
Simple DXF by T Harness
0
SECTION
2
HEADER
9
$ACADVER
1
AC1009
9
$INSBASE
10
0.0
20
0.0
30
0.0
9
$EXTMIN
10
-1000.0
20
-1000.0
9
$EXTMAX
10
1000.0
20
1000.0
0
ENDSEC
0
SECTION
2
TABLES
0
ENDSEC
0
SECTION
2
BLOCKS
0
ENDSEC
0
SECTION
2
ENTITIES
0
CIRCLE
8
WGSpoints
62
1
10
399999.699705
20
-15524202.096049
30
0
40
10000.000000
0
CIRCLE
8
WGSpoints
62
1
10
-708677.282304
20
-15842294.564464
30
0
40
10000.000000
0
CIRCLE
8
WGSpoints
62
1
10
-1789084.859405
20
-15915095.105575
30
0
40
10000.000000
0
CIRCLE
8
WGSpoints
62
1
10
-2971157.430779
20
-15445121.107395
30
0
40
10000.000000
0
CIRCLE
8
WGSpoints
62
1
10
-4543006.165694
20
-14191256.315246
30
0
40
10000.000000
0
CIRCLE
8
WGSpoints
62
1
10
-6756955.981986
20
-12190493.299259
30
0
40
10000.000000
0
CIRCLE
8
WGSpoints
62
1
10
-9564801.144648
20
-9859621.303572
30
0
40
10000.000000
0
CIRCLE
8
WGSpoints
62
1
10
-12484312.124099
20
-7799606.892310
30
0
40
10000.000000
0
CIRCLE
8
WGSpoints
62
1
10
-14731866.554267
20
-6395189.883253
30
0
40
10000.000000
0
CIRCLE
8
WGSpoints
62
1
10
-15579653.584485
20
-5527063.652264
30
0
40
10000.000000
0
CIRCLE
8
WGSpoints
62
1
10
-14731866.554267
20
-4658937.421274
30
0
40
10000.000000
0
CIRCLE
8
WGSpoints
62
1
10
-12484312.124099
20
-3254520.412218
30
0
40
10000.000000
0
CIRCLE
8
WGSpoints
62
1
10
-9564801.144648
20
-1194506.000956
30
0
40
10000.000000
0
CIRCLE
8
WGSpoints
62
1
10
-6756955.981986
20
1136365.994731
30
0
40
10000.000000
0
CIRCLE
8
WGSpoints
62
1
10
-4543006.165694
20
3137129.010718
30
0
40
10000.000000
0
CIRCLE
8
WGSpoints
62
1
10
-2971157.430779
20
4390993.802867
30
0
40
10000.000000
0
CIRCLE
8
WGSpoints
62
1
10
-1789084.859405
20
4860967.801047
30
0
40
10000.000000
0
CIRCLE
8
WGSpoints
62
1
10
-708677.282304
20
4788167.259936
30
0
40
10000.000000
0
CIRCLE
8
WGSpoints
62
1
10
399999.699705
20
4470074.791521
30
0
40
10000.000000
0
CIRCLE
8
WGSpoints
62
1
10
399999.706721
20
-15524202.008261
30
0
40
10000.000000
0
CIRCLE
8
WGSpoints
62
1
10
-691199.408083
20
-15520584.432183
30
0
40
10000.000000
0
CIRCLE
8
WGSpoints
62
1
10
-1786174.447845
20
-15319179.215968
30
0
40
10000.000000
0
CIRCLE
8
WGSpoints
62
1
10
-2965567.653785
20
-14712630.200766
30
0
40
10000.000000
0
CIRCLE
8
WGSpoints
62
1
10
-4379919.665372
20
-13554876.969912
30
0
40
10000.000000
0
CIRCLE
8
WGSpoints
62
1
10
-6141329.707172
20
-11882195.690226
30
0
40
10000.000000
0
CIRCLE
8
WGSpoints
62
1
10
-8181842.126354
20
-9957698.528222
30
0
40
10000.000000
0
CIRCLE
8
WGSpoints
62
1
10
-10188338.975979
20
-8147892.536675
30
0
40
10000.000000
0
CIRCLE
8
WGSpoints
62
1
10
-11685701.086585
20
-6689599.576885
30
0
40
10000.000000
0
CIRCLE
8
WGSpoints
62
1
10
-12242744.760033
20
-5527063.652264
30
0
40
10000.000000
0
CIRCLE
8
WGSpoints
62
1
10
-11685701.086585
20
-4364527.727642
30
0
40
10000.000000
0
CIRCLE
8
WGSpoints
62
1
10
-10188338.975979
20
-2906234.767853
30
0
40
10000.000000
0
CIRCLE
8
WGSpoints
62
1
10
-8181842.126354
20
-1096428.776306
30
0
40
10000.000000
0
CIRCLE
8
WGSpoints
62
1
10
-6141329.707172
20
828068.385699
30
0
40
10000.000000
0
CIRCLE
8
WGSpoints
62
1
10
-4379919.665372
20
2500749.665384
30
0
40
10000.000000
0
CIRCLE
8
WGSpoints
62
1
10
-2965567.653785
20
3658502.896238
30
0
40
10000.000000
0
CIRCLE
8
WGSpoints
62
1
10
-1786174.447845
20
4265051.911441
30
0
40
10000.000000
0
CIRCLE
8
WGSpoints
62
1
10
-691199.408083
20
4466457.127655
30
0
40
10000.000000
0
CIRCLE
8
WGSpoints
62
1
10
399999.706721
20
4470074.703733
30
0
40
10000.000000
0
CIRCLE
8
WGSpoints
62
1
10
399999.722284
20
-15524201.932049
30
0
40
10000.000000
0
CIRCLE
8
WGSpoints
62
1
10
-636444.303631
20
-15243126.595074
30
0
40
10000.000000
0
CIRCLE
8
WGSpoints
62
1
10
-1685117.402905
20
-14811552.792500
30
0
40
10000.000000
0
CIRCLE
8
WGSpoints
62
1
10
-2789912.533615
20
-14088702.872620
30
0
40
10000.000000
0
CIRCLE
8
WGSpoints
62
1
10
-4017850.029834
20
-12988115.282373
30
0
40
10000.000000
0
CIRCLE
8
WGSpoints
62
1
10
-5402981.978776
20
-11538686.228213
30
0
40
10000.000000
0
CIRCLE
8
WGSpoints
62
1
10
-6877561.103824
20
-9898967.286152
30
0
40
10000.000000
0
CIRCLE
8
WGSpoints
62
1
10
-8245199.547223
20
-8282811.971198
30
0
40
10000.000000
0
CIRCLE
8
WGSpoints
62
1
10
-9230655.604999
20
-6831435.397706
30
0
40
10000.000000
0
CIRCLE
8
WGSpoints
62
1
10
-9591366.552402
20
-5527063.652264
30
0
40
10000.000000
0
CIRCLE
8
WGSpoints
62
1
10
-9230655.604999
20
-4222691.906822
30
0
40
10000.000000
0
CIRCLE
8
WGSpoints
62
1
10
-8245199.547223
20
-2771315.333330
30
0
40
10000.000000
0
CIRCLE
8
WGSpoints
62
1
10
-6877561.103824
20
-1155160.018376
30
0
40
10000.000000
0
CIRCLE
8
WGSpoints
62
1
10
-5402981.978776
20
484558.923685
30
0
40
10000.000000
0
CIRCLE
8
WGSpoints
62
1
10
-4017850.029834
20
1933987.977845
30
0
40
10000.000000
0
CIRCLE
8
WGSpoints
62
1
10
-2789912.533615
20
3034575.568092
30
0
40
10000.000000
0
CIRCLE
8
WGSpoints
62
1
10
-1685117.402905
20
3757425.487972
30
0
40
10000.000000
0
CIRCLE
8
WGSpoints
62
1
10
-636444.303631
20
4188999.290546
30
0
40
10000.000000
0
CIRCLE
8
WGSpoints
62
1
10
399999.722284
20
4470074.627521
30
0
40
10000.000000
0
CIRCLE
8
WGSpoints
62
1
10
399999.746100
20
-15524201.867232
30
0
40
10000.000000
0
CIRCLE
8
WGSpoints
62
1
10
-547945.848415
20
-15008177.107132
30
0
40
10000.000000
0
CIRCLE
8
WGSpoints
62
1
10
-1504448.847679
20
-14384905.133953
30
0
40
10000.000000
0
CIRCLE
8
WGSpoints
62
1
10
-2487547.177927
20
-13562194.389901
30
0
40
10000.000000
0
CIRCLE
8
WGSpoints
62
1
10
-3517502.834414
20
-12489686.722013
30
0
40
10000.000000
0
CIRCLE
8
WGSpoints
62
1
10
-4590515.912694
20
-11186743.117591
30
0
40
10000.000000
0
CIRCLE
8
WGSpoints
62
1
10
-5649498.463046
20
-9743318.179367
30
0
40
10000.000000
0
CIRCLE
8
WGSpoints
62
1
10
-6576218.866120
20
-8277794.560363
30
0
40
10000.000000
0
CIRCLE
8
WGSpoints
62
1
10
-7219398.511637
20
-6871630.729978
30
0
40
10000.000000
0
CIRCLE
8
WGSpoints
62
1
10
-7450606.415507
20
-5527063.652264
30
0
40
10000.000000
0
CIRCLE
8
WGSpoints
62
1
10
-7219398.511637
20
-4182496.574550
30
0
40
10000.000000
0
CIRCLE
8
WGSpoints
62
1
10
-6576218.866120
20
-2776332.744165
30
0
40
10000.000000
0
CIRCLE
8
WGSpoints
62
1
10
-5649498.463046
20
-1310809.125160
30
0
40
10000.000000
0
CIRCLE
8
WGSpoints
62
1
10
-4590515.912694
20
132615.813063
30
0
40
10000.000000
0
CIRCLE
8
WGSpoints
62
1
10
-3517502.834414
20
1435559.417485
30
0
40
10000.000000
0
CIRCLE
8
WGSpoints
62
1
10
-2487547.177927
20
2508067.085374
30
0
40
10000.000000
0
CIRCLE
8
WGSpoints
62
1
10
-1504448.847679
20
3330777.829425
30
0
40
10000.000000
0
CIRCLE
8
WGSpoints
62
1
10
-547945.848415
20
3954049.802604
30
0
40
10000.000000
0
CIRCLE
8
WGSpoints
62
1
10
399999.746100
20
4470074.562705
30
0
40
10000.000000
0
CIRCLE
8
WGSpoints
62
1
10
399999.777546
20
-15524201.813574
30
0
40
10000.000000
0
CIRCLE
8
WGSpoints
62
1
10
-429749.669552
20
-14814132.570508
30
0
40
10000.000000
0
CIRCLE
8
WGSpoints
62
1
10
-1260257.786883
20
-14033576.300773
30
0
40
10000.000000
0
CIRCLE
8
WGSpoints
62
1
10
-2092969.766218
20
-13125261.655027
30
0
40
10000.000000
0
CIRCLE
8
WGSpoints
62
1
10
-2925119.989934
20
-12060214.628163
30
0
40
10000.000000
0
CIRCLE
8
WGSpoints
62
1
10
-3739026.571586
20
-10849040.025791
30
0
40
10000.000000
0
CIRCLE
8
WGSpoints
62
1
10
-4492060.079654
20
-9538725.083565
30
0
40
10000.000000
0
CIRCLE
8
WGSpoints
62
1
10
-5116464.377185
20
-8190624.481538
30
0
40
10000.000000
0
CIRCLE
8
WGSpoints
62
1
10
-5534001.078876
20
-6849975.964391
30
0
40
10000.000000
0
CIRCLE
8
WGSpoints
62
1
10
-5681315.093180
20
-5527063.652264
30
0
40
10000.000000
0
CIRCLE
8
WGSpoints
62
1
10
-5534001.078876
20
-4204151.340137
30
0
40
10000.000000
0
CIRCLE
8
WGSpoints
62
1
10
-5116464.377185
20
-2863502.822990
30
0
40
10000.000000
0
CIRCLE
8
WGSpoints
62
1
10
-4492060.079654
20
-1515402.220963
30
0
40
10000.000000
0
CIRCLE
8
WGSpoints
62
1
10
-3739026.571586
20
-205087.278737
30
0
40
10000.000000
0
CIRCLE
8
WGSpoints
62
1
10
-2925119.989934
20
1006087.323635
30
0
40
10000.000000
0
CIRCLE
8
WGSpoints
62
1
10
-2092969.766218
20
2071134.350499
30
0
40
10000.000000
0
CIRCLE
8
WGSpoints
62
1
10
-1260257.786883
20
2979448.996245
30
0
40
10000.000000
0
CIRCLE
8
WGSpoints
62
1
10
-429749.669552
20
3760005.265980
30
0
40
10000.000000
0
CIRCLE
8
WGSpoints
62
1
10
399999.777546
20
4470074.509047
30
0
40
10000.000000
0
CIRCLE
8
WGSpoints
62
1
10
399999.815718
20
-15524201.770792
30
0
40
10000.000000
0
CIRCLE
8
WGSpoints
62
1
10
-286337.884801
20
-14659509.466668
30
0
40
10000.000000
0
CIRCLE
8
WGSpoints
62
1
10
-966546.830152
20
-13753314.355995
30
0
40
10000.000000
0
CIRCLE
8
WGSpoints
62
1
10
-1633124.039254
20
-12772877.671258
30
0
40
10000.000000
0
CIRCLE
8
WGSpoints
62
1
10
-2274606.752197
20
-11701949.640985
30
0
40
10000.000000
0
CIRCLE
8
WGSpoints
62
1
10
-2872087.443296
20
-10544749.691673
30
0
40
10000.000000
0
CIRCLE
8
WGSpoints
62
1
10
-3396978.276340
20
-9322997.607884
30
0
40
10000.000000
0
CIRCLE
8
WGSpoints
62
1
10
-3812724.997597
20
-8065741.487782
30
0
40
10000.000000
0
CIRCLE
8
WGSpoints
62
1
10
-4081613.497832
20
-6796757.173592
30
0
40
10000.000000
0
CIRCLE
8
WGSpoints
62
1
10
-4174847.311833
20
-5527063.652264
30
0
40
10000.000000
0
CIRCLE
8
WGSpoints
62
1
10
-4081613.497832
20
-4257370.130936
30
0
40
10000.000000
0
CIRCLE
8
WGSpoints
62
1
10
-3812724.997597
20
-2988385.816746
30
0
40
10000.000000
0
CIRCLE
8
WGSpoints
62
1
10
-3396978.276340
20
-1731129.696644
30
0
40
10000.000000
0
CIRCLE
8
WGSpoints
62
1
10
-2872087.443296
20
-509377.612855
30
0
40
10000.000000
0
CIRCLE
8
WGSpoints
62
1
10
-2274606.752197
20
647822.336458
30
0
40
10000.000000
0
CIRCLE
8
WGSpoints
62
1
10
-1633124.039254
20
1718750.366730
30
0
40
10000.000000
0
CIRCLE
8
WGSpoints
62
1
10
-966546.830152
20
2699187.051467
30
0
40
10000.000000
0
CIRCLE
8
WGSpoints
62
1
10
-286337.884801
20
3605382.162140
30
0
40
10000.000000
0
CIRCLE
8
WGSpoints
62
1
10
399999.815718
20
4470074.466264
30
0
40
10000.000000
0
CIRCLE
8
WGSpoints
62
1
10
399999.859478
20
-15524201.738562
30
0
40
10000.000000
0
CIRCLE
8
WGSpoints
62
1
10
-122553.845556
20
-14542923.487539
30
0
40
10000.000000
0
CIRCLE
8
WGSpoints
62
1
10
-635591.915327
20
-13541032.606182
30
0
40
10000.000000
0
CIRCLE
8
WGSpoints
62
1
10
-1128701.788508
20
-12502346.008069
30
0
40
10000.000000
0
CIRCLE
8
WGSpoints
62
1
10
-1589658.731468
20
-11418489.132368
30
0
40
10000.000000
0
CIRCLE
8
WGSpoints
62
1
10
-2003736.919265
20
-10290147.533903
30
0
40
10000.000000
0
CIRCLE
8
WGSpoints
62
1
10
-2353772.780249
20
-9125533.554661
30
0
40
10000.000000
0
CIRCLE
8
WGSpoints
62
1
10
-2621490.173636
20
-7936541.670662
30
0
40
10000.000000
0
CIRCLE
8
WGSpoints
62
1
10
-2790140.926856
20
-6734394.787706
30
0
40
10000.000000
0
CIRCLE
8
WGSpoints
62
1
10
-2847802.473110
20
-5527063.652264
30
0
40
10000.000000
0
CIRCLE
8
WGSpoints
62
1
10
-2790140.926856
20
-4319732.516822
30
0
40
10000.000000
0
CIRCLE
8
WGSpoints
62
1
10
-2621490.173636
20
-3117585.633866
30
0
40
10000.000000
0
CIRCLE
8
WGSpoints
62
1
10
-2353772.780249
20
-1928593.749867
30
0
40
10000.000000
0
CIRCLE
8
WGSpoints
62
1
10
-2003736.919265
20
-763979.770625
30
0
40
10000.000000
0
CIRCLE
8
WGSpoints
62
1
10
-1589658.731468
20
364361.827840
30
0
40
10000.000000
0
CIRCLE
8
WGSpoints
62
1
10
-1128701.788508
20
1448218.703541
30
0
40
10000.000000
0
CIRCLE
8
WGSpoints
62
1
10
-635591.915327
20
2486905.301654
30
0
40
10000.000000
0
CIRCLE
8
WGSpoints
62
1
10
-122553.845556
20
3488796.183011
30
0
40
10000.000000
0
CIRCLE
8
WGSpoints
62
1
10
399999.859478
20
4470074.434034
30
0
40
10000.000000
0
CIRCLE
8
WGSpoints
62
1
10
399999.907506
20
-15524201.716533
30
0
40
10000.000000
0
CIRCLE
8
WGSpoints
62
1
10
56473.120163
20
-14463068.866665
30
0
40
10000.000000
0
CIRCLE
8
WGSpoints
62
1
10
-278302.031746
20
-13394566.842353
30
0
40
10000.000000
0
CIRCLE
8
WGSpoints
62
1
10
-595445.345595
20
-12312815.266524
30
0
40
10000.000000
0
CIRCLE
8
WGSpoints
62
1
10
-885888.901964
20
-11214496.636816
30
0
40
10000.000000
0
CIRCLE
8
WGSpoints
62
1
10
-1140464.772948
20
-10099215.259325
30
0
40
10000.000000
0
CIRCLE
8
WGSpoints
62
1
10
-1350211.680392
20
-8969071.379174
30
0
40
10000.000000
0
CIRCLE
8
WGSpoints
62
1
10
-1506928.937122
20
-7827678.223060
30
0
40
10000.000000
0
CIRCLE
8
WGSpoints
62
1
10
-1603919.540025
20
-6679082.269864
30
0
40
10000.000000
0
CIRCLE
8
WGSpoints
62
1
10
-1636765.346553
20
-5527063.652264
30
0
40
10000.000000
0
CIRCLE
8
WGSpoints
62
1
10
-1603919.540025
20
-4375045.034664
30
0
40
10000.000000
0
CIRCLE
8
WGSpoints
62
1
10
-1506928.937122
20
-3226449.081468
30
0
40
10000.000000
0
CIRCLE
8
WGSpoints
62
1
10
-1350211.680392
20
-2085055.925354
30
0
40
10000.000000
0
CIRCLE
8
WGSpoints
62
1
10
-1140464.772948
20
-954912.045203
30
0
40
10000.000000
0
CIRCLE
8
WGSpoints
62
1
10
-885888.901964
20
160369.332288
30
0
40
10000.000000
0
CIRCLE
8
WGSpoints
62
1
10
-595445.345595
20
1258687.961996
30
0
40
10000.000000
0
CIRCLE
8
WGSpoints
62
1
10
-278302.031746
20
2340439.537825
30
0
40
10000.000000
0
CIRCLE
8
WGSpoints
62
1
10
56473.120163
20
3408941.562137
30
0
40
10000.000000
0
CIRCLE
8
WGSpoints
62
1
10
399999.907506
20
4470074.412005
30
0
40
10000.000000
0
CIRCLE
8
WGSpoints
62
1
10
399999.958343
20
-15524201.704328
30
0
40
10000.000000
0
CIRCLE
8
WGSpoints
62
1
10
245402.964712
20
-14418697.710364
30
0
40
10000.000000
0
CIRCLE
8
WGSpoints
62
1
10
95421.056466
20
-13312432.580915
30
0
40
10000.000000
0
CIRCLE
8
WGSpoints
62
1
10
-45450.071713
20
-12204793.544646
30
0
40
10000.000000
0
CIRCLE
8
WGSpoints
62
1
10
-172954.611339
20
-11095421.282338
30
0
40
10000.000000
0
CIRCLE
8
WGSpoints
62
1
10
-283198.638234
20
-9984244.471335
30
0
40
10000.000000
0
CIRCLE
8
WGSpoints
62
1
10
-372772.385046
20
-8871442.649401
30
0
40
10000.000000
0
CIRCLE
8
WGSpoints
62
1
10
-438868.961851
20
-7757362.201988
30
0
40
10000.000000
0
CIRCLE
8
WGSpoints
62
1
10
-479392.575636
20
-6642424.791726
30
0
40
10000.000000
0
CIRCLE
8
WGSpoints
62
1
10
-493046.762259
20
-5527063.652264
30
0
40
10000.000000
0
CIRCLE
8
WGSpoints
62
1
10
-479392.575636
20
-4411702.512802
30
0
40
10000.000000
0
CIRCLE
8
WGSpoints
62
1
10
-438868.961851
20
-3296765.102540
30
0
40
10000.000000
0
CIRCLE
8
WGSpoints
62
1
10
-372772.385046
20
-2182684.655127
30
0
40
10000.000000
0
CIRCLE
8
WGSpoints
62
1
10
-283198.638234
20
-1069882.833193
30
0
40
10000.000000
0
CIRCLE
8
WGSpoints
62
1
10
-172954.611339
20
41293.977810
30
0
40
10000.000000
0
CIRCLE
8
WGSpoints
62
1
10
-45450.071713
20
1150666.240118
30
0
40
10000.000000
0
CIRCLE
8
WGSpoints
62
1
10
95421.056466
20
2258305.276387
30
0
40
10000.000000
0
CIRCLE
8
WGSpoints
62
1
10
245402.964712
20
3364570.405836
30
0
40
10000.000000
0
CIRCLE
8
WGSpoints
62
1
10
399999.958343
20
4470074.399800
30
0
40
10000.000000
0
CIRCLE
8
WGSpoints
62
1
10
400000.010446
20
-15524201.701558
30
0
40
10000.000000
0
CIRCLE
8
WGSpoints
62
1
10
438760.177838
20
-14408599.328875
30
0
40
10000.000000
0
CIRCLE
8
WGSpoints
62
1
10
476323.087107
20
-13293582.304600
30
0
40
10000.000000
0
CIRCLE
8
WGSpoints
62
1
10
511533.152930
20
-12179662.902787
30
0
40
10000.000000
0
CIRCLE
8
WGSpoints
62
1
10
543315.409829
20
-11067217.221341
30
0
40
10000.000000
0
CIRCLE
8
WGSpoints
62
1
10
570709.512137
20
-9956440.278258
30
0
40
10000.000000
0
CIRCLE
8
WGSpoints
62
1
10
592897.420838
20
-8847324.505766
30
0
40
10000.000000
0
CIRCLE
8
WGSpoints
62
1
10
609224.379970
20
-7739663.291395
30
0
40
10000.000000
0
CIRCLE
8
WGSpoints
62
1
10
619213.615301
20
-6633077.909006
30
0
40
10000.000000
0
CIRCLE
8
WGSpoints
62
1
10
622575.696464
20
-5527063.652264
30
0
40
10000.000000
0
CIRCLE
8
WGSpoints
62
1
10
619213.615301
20
-4421049.395522
30
0
40
10000.000000
0
CIRCLE
8
WGSpoints
62
1
10
609224.379970
20
-3314464.013133
30
0
40
10000.000000
0
CIRCLE
8
WGSpoints
62
1
10
592897.420838
20
-2206802.798762
30
0
40
10000.000000
0
CIRCLE
8
WGSpoints
62
1
10
570709.512137
20
-1097687.026269
30
0
40
10000.000000
0
CIRCLE
8
WGSpoints
62
1
10
543315.409829
20
13089.916813
30
0
40
10000.000000
0
CIRCLE
8
WGSpoints
62
1
10
511533.152930
20
1125535.598259
30
0
40
10000.000000
0
CIRCLE
8
WGSpoints
62
1
10
476323.087107
20
2239455.000072
30
0
40
10000.000000
0
CIRCLE
8
WGSpoints
62
1
10
438760.177838
20
3354472.024347
30
0
40
10000.000000
0
CIRCLE
8
WGSpoints
62
1
10
400000.010446
20
4470074.397030
30
0
40
10000.000000
0
CIRCLE
8
WGSpoints
62
1
10
400000.062232
20
-15524201.707827
30
0
40
10000.000000
0
CIRCLE
8
WGSpoints
62
1
10
631009.043680
20
-14431579.567516
30
0
40
10000.000000
0
CIRCLE
8
WGSpoints
62
1
10
855437.576607
20
-13337162.703391
30
0
40
10000.000000
0
CIRCLE
8
WGSpoints
62
1
10
1066795.439672
20
-12239193.829002
30
0
40
10000.000000
0
CIRCLE
8
WGSpoints
62
1
10
1258794.038551
20
-11136063.061521
30
0
40
10000.000000
0
CIRCLE
8
WGSpoints
62
1
10
1425496.888163
20
-10026524.901719
30
0
40
10000.000000
0
CIRCLE
8
WGSpoints
62
1
10
1561518.818236
20
-8909992.120894
30
0
40
10000.000000
0
CIRCLE
8
WGSpoints
62
1
10
1662268.961283
20
-7786810.564982
30
0
40
10000.000000
0
CIRCLE
8
WGSpoints
62
1
10
1724213.520571
20
-6658386.237000
30
0
40
10000.000000
0
CIRCLE
8
WGSpoints
62
1
10
1745117.000433
20
-5527063.652264
30
0
40
10000.000000
0
CIRCLE
8
WGSpoints
62
1
10
1724213.520571
20
-4395741.067528
30
0
40
10000.000000
0
CIRCLE
8
WGSpoints
62
1
10
1662268.961283
20
-3267316.739546
30
0
40
10000.000000
0
CIRCLE
8
WGSpoints
62
1
10
1561518.818236
20
-2144135.183634
30
0
40
10000.000000
0
CIRCLE
8
WGSpoints
62
1
10
1425496.888163
20
-1027602.402809
30
0
40
10000.000000
0
CIRCLE
8
WGSpoints
62
1
10
1258794.038551
20
81935.756993
30
0
40
10000.000000
0
CIRCLE
8
WGSpoints
62
1
10
1066795.439672
20
1185066.524474
30
0
40
10000.000000
0
CIRCLE
8
WGSpoints
62
1
10
855437.576607
20
2283035.398863
30
0
40
10000.000000
0
CIRCLE
8
WGSpoints
62
1
10
631009.043680
20
3377452.262988
30
0
40
10000.000000
0
CIRCLE
8
WGSpoints
62
1
10
400000.062232
20
4470074.403299
30
0
40
10000.000000
0
CIRCLE
8
WGSpoints
62
1
10
400000.112127
20
-15524201.722739
30
0
40
10000.000000
0
CIRCLE
8
WGSpoints
62
1
10
816628.897778
20
-14486440.137834
30
0
40
10000.000000
0
CIRCLE
8
WGSpoints
62
1
10
1223726.096737
20
-13442271.915460
30
0
40
10000.000000
0
CIRCLE
8
WGSpoints
62
1
10
1611367.401963
20
-12385059.704423
30
0
40
10000.000000
0
CIRCLE
8
WGSpoints
62
1
10
1968928.749941
20
-11308081.296748
30
0
40
10000.000000
0
CIRCLE
8
WGSpoints
62
1
10
2285003.404154
20
-10205341.285015
30
0
40
10000.000000
0
CIRCLE
8
WGSpoints
62
1
10
2547720.696640
20
-9073071.159359
30
0
40
10000.000000
0
CIRCLE
8
WGSpoints
62
1
10
2745586.843741
20
-7911493.249013
30
0
40
10000.000000
0
CIRCLE
8
WGSpoints
62
1
10
2868786.418260
20
-6726022.126108
30
0
40
10000.000000
0
CIRCLE
8
WGSpoints
62
1
10
2910643.981934
20
-5527063.652264
30
0
40
10000.000000
0
CIRCLE
8
WGSpoints
62
1
10
2868786.418260
20
-4328105.178420
30
0
40
10000.000000
0
CIRCLE
8
WGSpoints
62
1
10
2745586.843741
20
-3142634.055515
30
0
40
10000.000000
0
CIRCLE
8
WGSpoints
62
1
10
2547720.696640
20
-1981056.145169
30
0
40
10000.000000
0
CIRCLE
8
WGSpoints
62
1
10
2285003.404154
20
-848786.019512
30
0
40
10000.000000
0
CIRCLE
8
WGSpoints
62
1
10
1968928.749941
20
253953.992220
30
0
40
10000.000000
0
CIRCLE
8
WGSpoints
62
1
10
1611367.401963
20
1330932.399895
30
0
40
10000.000000
0
CIRCLE
8
WGSpoints
62
1
10
1223726.096737
20
2388144.610932
30
0
40
10000.000000
0
CIRCLE
8
WGSpoints
62
1
10
816628.897778
20
3432312.833306
30
0
40
10000.000000
0
CIRCLE
8
WGSpoints
62
1
10
400000.112127
20
4470074.418211
30
0
40
10000.000000
0
CIRCLE
8
WGSpoints
62
1
10
400000.158616
20
-15524201.745909
30
0
40
10000.000000
0
CIRCLE
8
WGSpoints
62
1
10
990189.384083
20
-14571957.948762
30
0
40
10000.000000
0
CIRCLE
8
WGSpoints
62
1
10
1571718.551321
20
-13607716.768095
30
0
40
10000.000000
0
CIRCLE
8
WGSpoints
62
1
10
2134716.665933
20
-12618351.268625
30
0
40
10000.000000
0
CIRCLE
8
WGSpoints
62
1
10
2666614.607728
20
-11589057.737966
30
0
40
10000.000000
0
CIRCLE
8
WGSpoints
62
1
10
3150685.200323
20
-10504456.701497
30
0
40
10000.000000
0
CIRCLE
8
WGSpoints
62
1
10
3565578.796659
20
-9352290.237436
30
0
40
10000.000000
0
CIRCLE
8
WGSpoints
62
1
10
3886925.221274
20
-8129161.485126
30
0
40
10000.000000
0
CIRCLE
8
WGSpoints
62
1
10
4091300.328262
20
-6845624.337360
30
0
40
10000.000000
0
CIRCLE
8
WGSpoints
62
1
10
4161534.642062
20
-5527063.652264
30
0
40
10000.000000
0
CIRCLE
8
WGSpoints
62
1
10
4091300.328262
20
-4208502.967168
30
0
40
10000.000000
0
CIRCLE
8
WGSpoints
62
1
10
3886925.221274
20
-2924965.819402
30
0
40
10000.000000
0
CIRCLE
8
WGSpoints
62
1
10
3565578.796659
20
-1701837.067091
30
0
40
10000.000000
0
CIRCLE
8
WGSpoints
62
1
10
3150685.200323
20
-549670.603031
30
0
40
10000.000000
0
CIRCLE
8
WGSpoints
62
1
10
2666614.607728
20
534930.433438
30
0
40
10000.000000
0
CIRCLE
8
WGSpoints
62
1
10
2134716.665933
20
1564223.964098
30
0
40
10000.000000
0
CIRCLE
8
WGSpoints
62
1
10
1571718.551321
20
2553589.463567
30
0
40
10000.000000
0
CIRCLE
8
WGSpoints
62
1
10
990189.384083
20
3517830.644235
30
0
40
10000.000000
0
CIRCLE
8
WGSpoints
62
1
10
400000.158616
20
4470074.441381
30
0
40
10000.000000
0
CIRCLE
8
WGSpoints
62
1
10
400000.200290
20
-15524201.776971
30
0
40
10000.000000
0
CIRCLE
8
WGSpoints
62
1
10
1146425.711959
20
-14686864.437770
30
0
40
10000.000000
0
CIRCLE
8
WGSpoints
62
1
10
1889153.452943
20
-13831770.018638
30
0
40
10000.000000
0
CIRCLE
8
WGSpoints
62
1
10
2623445.380949
20
-12939091.085003
30
0
40
10000.000000
0
CIRCLE
8
WGSpoints
62
1
10
3340067.254772
20
-11984160.944073
30
0
40
10000.000000
0
CIRCLE
8
WGSpoints
62
1
10
4019628.164363
20
-10936766.362934
30
0
40
10000.000000
0
CIRCLE
8
WGSpoints
62
1
10
4628154.752611
20
-9767233.382854
30
0
40
10000.000000
0
CIRCLE
8
WGSpoints
62
1
10
5118477.363650
20
-8460327.093141
30
0
40
10000.000000
0
CIRCLE
8
WGSpoints
62
1
10
5439635.963788
20
-7030436.717940
30
0
40
10000.000000
0
CIRCLE
8
WGSpoints
62
1
10
5551737.458062
20
-5527063.652264
30
0
40
10000.000000
0
CIRCLE
8
WGSpoints
62
1
10
5439635.963788
20
-4023690.586588
30
0
40
10000.000000
0
CIRCLE
8
WGSpoints
62
1
10
5118477.363650
20
-2593800.211387
30
0
40
10000.000000
0
CIRCLE
8
WGSpoints
62
1
10
4628154.752611
20
-1286893.921674
30
0
40
10000.000000
0
CIRCLE
8
WGSpoints
62
1
10
4019628.164363
20
-117360.941594
30
0
40
10000.000000
0
CIRCLE
8
WGSpoints
62
1
10
3340067.254772
20
930033.639545
30
0
40
10000.000000
0
CIRCLE
8
WGSpoints
62
1
10
2623445.380949
20
1884963.780475
30
0
40
10000.000000
0
CIRCLE
8
WGSpoints
62
1
10
1889153.452943
20
2777642.714110
30
0
40
10000.000000
0
CIRCLE
8
WGSpoints
62
1
10
1146425.711959
20
3632737.133242
30
0
40
10000.000000
0
CIRCLE
8
WGSpoints
62
1
10
400000.200290
20
4470074.472443
30
0
40
10000.000000
0
CIRCLE
8
WGSpoints
62
1
10
400000.235896
20
-15524201.815581
30
0
40
10000.000000
0
CIRCLE
8
WGSpoints
62
1
10
1280313.913195
20
-14829824.902017
30
0
40
10000.000000
0
CIRCLE
8
WGSpoints
62
1
10
2164618.199660
20
-14111927.595412
30
0
40
10000.000000
0
CIRCLE
8
WGSpoints
62
1
10
3059987.730185
20
-13345748.006140
30
0
40
10000.000000
0
CIRCLE
8
WGSpoints
62
1
10
3970695.903576
20
-12497661.652822
30
0
40
10000.000000
0
CIRCLE
8
WGSpoints
62
1
10
4882561.453035
20
-11517097.027894
30
0
40
10000.000000
0
CIRCLE
8
WGSpoints
62
1
10
5747035.135118
20
-10343092.494544
30
0
40
10000.000000
0
CIRCLE
8
WGSpoints
62
1
10
6478903.560037
20
-8932864.333879
30
0
40
10000.000000
0
CIRCLE
8
WGSpoints
62
1
10
6975510.682870
20
-7298946.876716
30
0
40
10000.000000
0
CIRCLE
8
WGSpoints
62
1
10
7152030.690670
20
-5527063.652264
30
0
40
10000.000000
0
CIRCLE
8
WGSpoints
62
1
10
6975510.682870
20
-3755180.427812
30
0
40
10000.000000
0
CIRCLE
8
WGSpoints
62
1
10
6478903.560037
20
-2121262.970649
30
0
40
10000.000000
0
CIRCLE
8
WGSpoints
62
1
10
5747035.135118
20
-711034.809984
30
0
40
10000.000000
0
CIRCLE
8
WGSpoints
62
1
10
4882561.453035
20
462969.723366
30
0
40
10000.000000
0
CIRCLE
8
WGSpoints
62
1
10
3970695.903576
20
1443534.348294
30
0
40
10000.000000
0
CIRCLE
8
WGSpoints
62
1
10
3059987.730185
20
2291620.701612
30
0
40
10000.000000
0
CIRCLE
8
WGSpoints
62
1
10
2164618.199660
20
3057800.290884
30
0
40
10000.000000
0
CIRCLE
8
WGSpoints
62
1
10
1280313.913195
20
3775697.597489
30
0
40
10000.000000
0
CIRCLE
8
WGSpoints
62
1
10
400000.235896
20
4470074.511053
30
0
40
10000.000000
0
CIRCLE
8
WGSpoints
62
1
10
400000.264384
20
-15524201.861434
30
0
40
10000.000000
0
CIRCLE
8
WGSpoints
62
1
10
1387146.099011
20
-14999417.829507
30
0
40
10000.000000
0
CIRCLE
8
WGSpoints
62
1
10
2385189.351707
20
-14444665.838658
30
0
40
10000.000000
0
CIRCLE
8
WGSpoints
62
1
10
3421307.441183
20
-13834751.639180
30
0
40
10000.000000
0
CIRCLE
8
WGSpoints
62
1
10
4530976.326796
20
-13132652.211703
30
0
40
10000.000000
0
CIRCLE
8
WGSpoints
62
1
10
5721871.013747
20
-12262810.610116
30
0
40
10000.000000
0
CIRCLE
8
WGSpoints
62
1
10
6931870.493706
20
-11112419.802392
30
0
40
10000.000000
0
CIRCLE
8
WGSpoints
62
1
10
8015352.062567
20
-9584310.671964
30
0
40
10000.000000
0
CIRCLE
8
WGSpoints
62
1
10
8778802.439870
20
-7676524.859756
30
0
40
10000.000000
0
CIRCLE
8
WGSpoints
62
1
10
9055281.691453
20
-5527063.652264
30
0
40
10000.000000
0
CIRCLE
8
WGSpoints
62
1
10
8778802.439870
20
-3377602.444772
30
0
40
10000.000000
0
CIRCLE
8
WGSpoints
62
1
10
8015352.062567
20
-1469816.632563
30
0
40
10000.000000
0
CIRCLE
8
WGSpoints
62
1
10
6931870.493706
20
58292.497865
30
0
40
10000.000000
0
CIRCLE
8
WGSpoints
62
1
10
5721871.013747
20
1208683.305588
30
0
40
10000.000000
0
CIRCLE
8
WGSpoints
62
1
10
4530976.326796
20
2078524.907175
30
0
40
10000.000000
0
CIRCLE
8
WGSpoints
62
1
10
3421307.441183
20
2780624.334652
30
0
40
10000.000000
0
CIRCLE
8
WGSpoints
62
1
10
2385189.351707
20
3390538.534130
30
0
40
10000.000000
0
CIRCLE
8
WGSpoints
62
1
10
1387146.099011
20
3945290.524979
30
0
40
10000.000000
0
CIRCLE
8
WGSpoints
62
1
10
400000.264384
20
4470074.556906
30
0
40
10000.000000
0
CIRCLE
8
WGSpoints
62
1
10
400000.284956
20
-15524201.914263
30
0
40
10000.000000
0
CIRCLE
8
WGSpoints
62
1
10
1462605.717064
20
-15194114.230241
30
0
40
10000.000000
0
CIRCLE
8
WGSpoints
62
1
10
2536072.908212
20
-14825198.741464
30
0
40
10000.000000
0
CIRCLE
8
WGSpoints
62
1
10
3677595.296417
20
-14400006.811204
30
0
40
10000.000000
0
CIRCLE
8
WGSpoints
62
1
10
4982323.847763
20
-13890766.008839
30
0
40
10000.000000
0
CIRCLE
8
WGSpoints
62
1
10
6509613.106139
20
-13194407.786884
30
0
40
10000.000000
0
CIRCLE
8
WGSpoints
62
1
10
8189914.399395
20
-12116880.326993
30
0
40
10000.000000
0
CIRCLE
8
WGSpoints
62
1
10
9785480.029900
20
-10464167.538644
30
0
40
10000.000000
0
CIRCLE
8
WGSpoints
62
1
10
10951873.736986
20
-8197061.825863
30
0
40
10000.000000
0
CIRCLE
8
WGSpoints
62
1
10
11381706.210152
20
-5527063.652264
30
0
40
10000.000000
0
CIRCLE
8
WGSpoints
62
1
10
10951873.736986
20
-2857065.478665
30
0
40
10000.000000
0
CIRCLE
8
WGSpoints
62
1
10
9785480.029900
20
-589959.765884
30
0
40
10000.000000
0
CIRCLE
8
WGSpoints
62
1
10
8189914.399395
20
1062753.022465
30
0
40
10000.000000
0
CIRCLE
8
WGSpoints
62
1
10
6509613.106139
20
2140280.482356
30
0
40
10000.000000
0
CIRCLE
8
WGSpoints
62
1
10
4982323.847763
20
2836638.704311
30
0
40
10000.000000
0
CIRCLE
8
WGSpoints
62
1
10
3677595.296417
20
3345879.506676
30
0
40
10000.000000
0
CIRCLE
8
WGSpoints
62
1
10
2536072.908212
20
3771071.436936
30
0
40
10000.000000
0
CIRCLE
8
WGSpoints
62
1
10
1462605.717064
20
4139986.925713
30
0
40
10000.000000
0
CIRCLE
8
WGSpoints
62
1
10
400000.284956
20
4470074.609735
30
0
40
10000.000000
0
CIRCLE
8
WGSpoints
62
1
10
400000.297115
20
-15524201.973853
30
0
40
10000.000000
0
CIRCLE
8
WGSpoints
62
1
10
1502842.808456
20
-15412256.967370
30
0
40
10000.000000
0
CIRCLE
8
WGSpoints
62
1
10
2600244.583902
20
-15247235.190697
30
0
40
10000.000000
0
CIRCLE
8
WGSpoints
62
1
10
3790966.643858
20
-15032408.034593
30
0
40
10000.000000
0
CIRCLE
8
WGSpoints
62
1
10
5272966.330986
20
-14771896.903875
30
0
40
10000.000000
0
CIRCLE
8
WGSpoints
62
1
10
7205527.823666
20
-14336131.607399
30
0
40
10000.000000
0
CIRCLE
8
WGSpoints
62
1
10
9525562.487298
20
-13409004.339394
30
0
40
10000.000000
0
CIRCLE
8
WGSpoints
62
1
10
11859474.470784
20
-11636201.094594
30
0
40
10000.000000
0
CIRCLE
8
WGSpoints
62
1
10
13623895.575761
20
-8904608.722092
30
0
40
10000.000000
0
CIRCLE
8
WGSpoints
62
1
10
14284127.702019
20
-5527063.652264
30
0
40
10000.000000
0
CIRCLE
8
WGSpoints
62
1
10
13623895.575761
20
-2149518.582436
30
0
40
10000.000000
0
CIRCLE
8
WGSpoints
62
1
10
11859474.470784
20
582073.790066
30
0
40
10000.000000
0
CIRCLE
8
WGSpoints
62
1
10
9525562.487298
20
2354877.034866
30
0
40
10000.000000
0
CIRCLE
8
WGSpoints
62
1
10
7205527.823666
20
3282004.302871
30
0
40
10000.000000
0
CIRCLE
8
WGSpoints
62
1
10
5272966.330986
20
3717769.599347
30
0
40
10000.000000
0
CIRCLE
8
WGSpoints
62
1
10
3790966.643858
20
3978280.730065
30
0
40
10000.000000
0
CIRCLE
8
WGSpoints
62
1
10
2600244.583902
20
4193107.886169
30
0
40
10000.000000
0
CIRCLE
8
WGSpoints
62
1
10
1502842.808456
20
4358129.662842
30
0
40
10000.000000
0
CIRCLE
8
WGSpoints
62
1
10
400000.297115
20
4470074.669325
30
0
40
10000.000000
0
CIRCLE
8
WGSpoints
62
1
10
400000.300713
20
-15524202.040046
30
0
40
10000.000000
0
CIRCLE
8
WGSpoints
62
1
10
1504549.264742
20
-15652040.088349
30
0
40
10000.000000
0
CIRCLE
8
WGSpoints
62
1
10
2558090.085815
20
-15702736.207939
30
0
40
10000.000000
0
CIRCLE
8
WGSpoints
62
1
10
3714158.907538
20
-15719353.972407
30
0
40
10000.000000
0
CIRCLE
8
WGSpoints
62
1
10
5335817.172672
20
-15773918.658868
30
0
40
10000.000000
0
CIRCLE
8
WGSpoints
62
1
10
7755052.615180
20
-15716571.101156
30
0
40
10000.000000
0
CIRCLE
8
WGSpoints
62
1
10
10939891.499213
20
-15053939.820855
30
0
40
10000.000000
0
CIRCLE
8
WGSpoints
62
1
10
14322073.187618
20
-13180742.992733
30
0
40
10000.000000
0
CIRCLE
8
WGSpoints
62
1
10
16955171.408587
20
-9855014.959281
30
0
40
10000.000000
0
CIRCLE
8
WGSpoints
62
1
10
17953236.635163
20
-5527063.652264
30
0
40
10000.000000
0
CIRCLE
8
WGSpoints
62
1
10
16955171.408587
20
-1199112.345247
30
0
40
10000.000000
0
CIRCLE
8
WGSpoints
62
1
10
14322073.187618
20
2126615.688205
30
0
40
10000.000000
0
CIRCLE
8
WGSpoints
62
1
10
10939891.499213
20
3999812.516327
30
0
40
10000.000000
0
CIRCLE
8
WGSpoints
62
1
10
7755052.615180
20
4662443.796628
30
0
40
10000.000000
0
CIRCLE
8
WGSpoints
62
1
10
5335817.172672
20
4719791.354341
30
0
40
10000.000000
0
CIRCLE
8
WGSpoints
62
1
10
3714158.907538
20
4665226.667879
30
0
40
10000.000000
0
CIRCLE
8
WGSpoints
62
1
10
2558090.085815
20
4648608.903411
30
0
40
10000.000000
0
CIRCLE
8
WGSpoints
62
1
10
1504549.264742
20
4597912.783821
30
0
40
10000.000000
0
CIRCLE
8
WGSpoints
62
1
10
400000.300713
20
4470074.735518
30
0
40
10000.000000
0
CIRCLE
8
London
62
7
10
538966.000000
20
177334.000000
30
0
40
89000.000000
0
CIRCLE
8
Lincoln
62
2
10
497796.000000
20
371810.000000
30
0
40
7560.000000
0
CIRCLE
8
Louth
62
2
10
532643.000000
20
387383.000000
30
0
40
200.000000
0
CIRCLE
8
Birmingham
62
3
10
406689.000000
20
286822.000000
30
0
40
10860.000000
0
CIRCLE
8
Cardiff
62
4
10
318371.000000
20
176329.000000
30
0
40
3350.000000
0
CIRCLE
8
Glasgow
62
5
10
260107.000000
20
665646.000000
30
0
40
6000.000000
0
CIRCLE
8
Aberdeen
62
6
10
425678.000000
20
554270.000000
30
0
40
2080.000000
0
LINE
8
tyLinesList
62
8
10
0.000000
20
0.000000
30
0
11
0.000000
21
100000.000000
31
0
0
LINE
8
tyLinesList
62
8
10
0.000000
20
0.000000
30
0
11
100000.000000
21
0.000000
31
0
0
LINE
8
tyLinesList
62
8
10
100000.000000
20
0.000000
30
0
11
100000.000000
21
100000.000000
31
0
0
LINE
8
tyLinesList
62
8
10
100000.000000
20
0.000000
30
0
11
200000.000000
21
0.000000
31
0
0
LINE
8
tyLinesList
62
8
10
200000.000000
20
0.000000
30
0
11
200000.000000
21
100000.000000
31
0
0
LINE
8
tyLinesList
62
8
10
200000.000000
20
0.000000
30
0
11
300000.000000
21
0.000000
31
0
0
LINE
8
tyLinesList
62
8
10
300000.000000
20
0.000000
30
0
11
300000.000000
21
100000.000000
31
0
0
LINE
8
tyLinesList
62
8
10
300000.000000
20
0.000000
30
0
11
400000.000000
21
0.000000
31
0
0
LINE
8
tyLinesList
62
8
10
400000.000000
20
0.000000
30
0
11
400000.000000
21
100000.000000
31
0
0
LINE
8
tyLinesList
62
8
10
400000.000000
20
0.000000
30
0
11
500000.000000
21
0.000000
31
0
0
LINE
8
tyLinesList
62
8
10
500000.000000
20
0.000000
30
0
11
500000.000000
21
100000.000000
31
0
0
LINE
8
tyLinesList
62
8
10
500000.000000
20
0.000000
30
0
11
600000.000000
21
0.000000
31
0
0
LINE
8
tyLinesList
62
8
10
600000.000000
20
0.000000
30
0
11
600000.000000
21
100000.000000
31
0
0
LINE
8
tyLinesList
62
8
10
600000.000000
20
0.000000
30
0
11
700000.000000
21
0.000000
31
0
0
LINE
8
tyLinesList
62
8
10
700000.000000
20
0.000000
30
0
11
700000.000000
21
100000.000000
31
0
0
LINE
8
tyLinesList
62
8
10
0.000000
20
100000.000000
30
0
11
0.000000
21
200000.000000
31
0
0
LINE
8
tyLinesList
62
8
10
0.000000
20
100000.000000
30
0
11
100000.000000
21
100000.000000
31
0
0
LINE
8
tyLinesList
62
8
10
100000.000000
20
100000.000000
30
0
11
100000.000000
21
200000.000000
31
0
0
LINE
8
tyLinesList
62
8
10
100000.000000
20
100000.000000
30
0
11
200000.000000
21
100000.000000
31
0
0
LINE
8
tyLinesList
62
8
10
200000.000000
20
100000.000000
30
0
11
200000.000000
21
200000.000000
31
0
0
LINE
8
tyLinesList
62
8
10
200000.000000
20
100000.000000
30
0
11
300000.000000
21
100000.000000
31
0
0
LINE
8
tyLinesList
62
8
10
300000.000000
20
100000.000000
30
0
11
300000.000000
21
200000.000000
31
0
0
LINE
8
tyLinesList
62
8
10
300000.000000
20
100000.000000
30
0
11
400000.000000
21
100000.000000
31
0
0
LINE
8
tyLinesList
62
8
10
400000.000000
20
100000.000000
30
0
11
400000.000000
21
200000.000000
31
0
0
LINE
8
tyLinesList
62
8
10
400000.000000
20
100000.000000
30
0
11
500000.000000
21
100000.000000
31
0
0
LINE
8
tyLinesList
62
8
10
500000.000000
20
100000.000000
30
0
11
500000.000000
21
200000.000000
31
0
0
LINE
8
tyLinesList
62
8
10
500000.000000
20
100000.000000
30
0
11
600000.000000
21
100000.000000
31
0
0
LINE
8
tyLinesList
62
8
10
600000.000000
20
100000.000000
30
0
11
600000.000000
21
200000.000000
31
0
0
LINE
8
tyLinesList
62
8
10
600000.000000
20
100000.000000
30
0
11
700000.000000
21
100000.000000
31
0
0
LINE
8
tyLinesList
62
8
10
700000.000000
20
100000.000000
30
0
11
700000.000000
21
200000.000000
31
0
0
LINE
8
tyLinesList
62
8
10
0.000000
20
200000.000000
30
0
11
0.000000
21
300000.000000
31
0
0
LINE
8
tyLinesList
62
8
10
0.000000
20
200000.000000
30
0
11
100000.000000
21
200000.000000
31
0
0
LINE
8
tyLinesList
62
8
10
100000.000000
20
200000.000000
30
0
11
100000.000000
21
300000.000000
31
0
0
LINE
8
tyLinesList
62
8
10
100000.000000
20
200000.000000
30
0
11
200000.000000
21
200000.000000
31
0
0
LINE
8
tyLinesList
62
8
10
200000.000000
20
200000.000000
30
0
11
200000.000000
21
300000.000000
31
0
0
LINE
8
tyLinesList
62
8
10
200000.000000
20
200000.000000
30
0
11
300000.000000
21
200000.000000
31
0
0
LINE
8
tyLinesList
62
8
10
300000.000000
20
200000.000000
30
0
11
300000.000000
21
300000.000000
31
0
0
LINE
8
tyLinesList
62
8
10
300000.000000
20
200000.000000
30
0
11
400000.000000
21
200000.000000
31
0
0
LINE
8
tyLinesList
62
8
10
400000.000000
20
200000.000000
30
0
11
400000.000000
21
300000.000000
31
0
0
LINE
8
tyLinesList
62
8
10
400000.000000
20
200000.000000
30
0
11
500000.000000
21
200000.000000
31
0
0
LINE
8
tyLinesList
62
8
10
500000.000000
20
200000.000000
30
0
11
500000.000000
21
300000.000000
31
0
0
LINE
8
tyLinesList
62
8
10
500000.000000
20
200000.000000
30
0
11
600000.000000
21
200000.000000
31
0
0
LINE
8
tyLinesList
62
8
10
600000.000000
20
200000.000000
30
0
11
600000.000000
21
300000.000000
31
0
0
LINE
8
tyLinesList
62
8
10
600000.000000
20
200000.000000
30
0
11
700000.000000
21
200000.000000
31
0
0
LINE
8
tyLinesList
62
8
10
700000.000000
20
200000.000000
30
0
11
700000.000000
21
300000.000000
31
0
0
LINE
8
tyLinesList
62
8
10
0.000000
20
300000.000000
30
0
11
0.000000
21
400000.000000
31
0
0
LINE
8
tyLinesList
62
8
10
0.000000
20
300000.000000
30
0
11
100000.000000
21
300000.000000
31
0
0
LINE
8
tyLinesList
62
8
10
100000.000000
20
300000.000000
30
0
11
100000.000000
21
400000.000000
31
0
0
LINE
8
tyLinesList
62
8
10
100000.000000
20
300000.000000
30
0
11
200000.000000
21
300000.000000
31
0
0
LINE
8
tyLinesList
62
8
10
200000.000000
20
300000.000000
30
0
11
200000.000000
21
400000.000000
31
0
0
LINE
8
tyLinesList
62
8
10
200000.000000
20
300000.000000
30
0
11
300000.000000
21
300000.000000
31
0
0
LINE
8
tyLinesList
62
8
10
300000.000000
20
300000.000000
30
0
11
300000.000000
21
400000.000000
31
0
0
LINE
8
tyLinesList
62
8
10
300000.000000
20
300000.000000
30
0
11
400000.000000
21
300000.000000
31
0
0
LINE
8
tyLinesList
62
8
10
400000.000000
20
300000.000000
30
0
11
400000.000000
21
400000.000000
31
0
0
LINE
8
tyLinesList
62
8
10
400000.000000
20
300000.000000
30
0
11
500000.000000
21
300000.000000
31
0
0
LINE
8
tyLinesList
62
8
10
500000.000000
20
300000.000000
30
0
11
500000.000000
21
400000.000000
31
0
0
LINE
8
tyLinesList
62
8
10
500000.000000
20
300000.000000
30
0
11
600000.000000
21
300000.000000
31
0
0
LINE
8
tyLinesList
62
8
10
600000.000000
20
300000.000000
30
0
11
600000.000000
21
400000.000000
31
0
0
LINE
8
tyLinesList
62
8
10
600000.000000
20
300000.000000
30
0
11
700000.000000
21
300000.000000
31
0
0
LINE
8
tyLinesList
62
8
10
700000.000000
20
300000.000000
30
0
11
700000.000000
21
400000.000000
31
0
0
LINE
8
tyLinesList
62
8
10
0.000000
20
400000.000000
30
0
11
0.000000
21
500000.000000
31
0
0
LINE
8
tyLinesList
62
8
10
0.000000
20
400000.000000
30
0
11
100000.000000
21
400000.000000
31
0
0
LINE
8
tyLinesList
62
8
10
100000.000000
20
400000.000000
30
0
11
100000.000000
21
500000.000000
31
0
0
LINE
8
tyLinesList
62
8
10
100000.000000
20
400000.000000
30
0
11
200000.000000
21
400000.000000
31
0
0
LINE
8
tyLinesList
62
8
10
200000.000000
20
400000.000000
30
0
11
200000.000000
21
500000.000000
31
0
0
LINE
8
tyLinesList
62
8
10
200000.000000
20
400000.000000
30
0
11
300000.000000
21
400000.000000
31
0
0
LINE
8
tyLinesList
62
8
10
300000.000000
20
400000.000000
30
0
11
300000.000000
21
500000.000000
31
0
0
LINE
8
tyLinesList
62
8
10
300000.000000
20
400000.000000
30
0
11
400000.000000
21
400000.000000
31
0
0
LINE
8
tyLinesList
62
8
10
400000.000000
20
400000.000000
30
0
11
400000.000000
21
500000.000000
31
0
0
LINE
8
tyLinesList
62
8
10
400000.000000
20
400000.000000
30
0
11
500000.000000
21
400000.000000
31
0
0
LINE
8
tyLinesList
62
8
10
500000.000000
20
400000.000000
30
0
11
500000.000000
21
500000.000000
31
0
0
LINE
8
tyLinesList
62
8
10
500000.000000
20
400000.000000
30
0
11
600000.000000
21
400000.000000
31
0
0
LINE
8
tyLinesList
62
8
10
600000.000000
20
400000.000000
30
0
11
600000.000000
21
500000.000000
31
0
0
LINE
8
tyLinesList
62
8
10
600000.000000
20
400000.000000
30
0
11
700000.000000
21
400000.000000
31
0
0
LINE
8
tyLinesList
62
8
10
700000.000000
20
400000.000000
30
0
11
700000.000000
21
500000.000000
31
0
0
LINE
8
tyLinesList
62
8
10
0.000000
20
500000.000000
30
0
11
0.000000
21
600000.000000
31
0
0
LINE
8
tyLinesList
62
8
10
0.000000
20
500000.000000
30
0
11
100000.000000
21
500000.000000
31
0
0
LINE
8
tyLinesList
62
8
10
100000.000000
20
500000.000000
30
0
11
100000.000000
21
600000.000000
31
0
0
LINE
8
tyLinesList
62
8
10
100000.000000
20
500000.000000
30
0
11
200000.000000
21
500000.000000
31
0
0
LINE
8
tyLinesList
62
8
10
200000.000000
20
500000.000000
30
0
11
200000.000000
21
600000.000000
31
0
0
LINE
8
tyLinesList
62
8
10
200000.000000
20
500000.000000
30
0
11
300000.000000
21
500000.000000
31
0
0
LINE
8
tyLinesList
62
8
10
300000.000000
20
500000.000000
30
0
11
300000.000000
21
600000.000000
31
0
0
LINE
8
tyLinesList
62
8
10
300000.000000
20
500000.000000
30
0
11
400000.000000
21
500000.000000
31
0
0
LINE
8
tyLinesList
62
8
10
400000.000000
20
500000.000000
30
0
11
400000.000000
21
600000.000000
31
0
0
LINE
8
tyLinesList
62
8
10
400000.000000
20
500000.000000
30
0
11
500000.000000
21
500000.000000
31
0
0
LINE
8
tyLinesList
62
8
10
500000.000000
20
500000.000000
30
0
11
500000.000000
21
600000.000000
31
0
0
LINE
8
tyLinesList
62
8
10
500000.000000
20
500000.000000
30
0
11
600000.000000
21
500000.000000
31
0
0
LINE
8
tyLinesList
62
8
10
600000.000000
20
500000.000000
30
0
11
600000.000000
21
600000.000000
31
0
0
LINE
8
tyLinesList
62
8
10
600000.000000
20
500000.000000
30
0
11
700000.000000
21
500000.000000
31
0
0
LINE
8
tyLinesList
62
8
10
700000.000000
20
500000.000000
30
0
11
700000.000000
21
600000.000000
31
0
0
LINE
8
tyLinesList
62
8
10
0.000000
20
600000.000000
30
0
11
0.000000
21
700000.000000
31
0
0
LINE
8
tyLinesList
62
8
10
0.000000
20
600000.000000
30
0
11
100000.000000
21
600000.000000
31
0
0
LINE
8
tyLinesList
62
8
10
100000.000000
20
600000.000000
30
0
11
100000.000000
21
700000.000000
31
0
0
LINE
8
tyLinesList
62
8
10
100000.000000
20
600000.000000
30
0
11
200000.000000
21
600000.000000
31
0
0
LINE
8
tyLinesList
62
8
10
200000.000000
20
600000.000000
30
0
11
200000.000000
21
700000.000000
31
0
0
LINE
8
tyLinesList
62
8
10
200000.000000
20
600000.000000
30
0
11
300000.000000
21
600000.000000
31
0
0
LINE
8
tyLinesList
62
8
10
300000.000000
20
600000.000000
30
0
11
300000.000000
21
700000.000000
31
0
0
LINE
8
tyLinesList
62
8
10
300000.000000
20
600000.000000
30
0
11
400000.000000
21
600000.000000
31
0
0
LINE
8
tyLinesList
62
8
10
400000.000000
20
600000.000000
30
0
11
400000.000000
21
700000.000000
31
0
0
LINE
8
tyLinesList
62
8
10
400000.000000
20
600000.000000
30
0
11
500000.000000
21
600000.000000
31
0
0
LINE
8
tyLinesList
62
8
10
500000.000000
20
600000.000000
30
0
11
500000.000000
21
700000.000000
31
0
0
LINE
8
tyLinesList
62
8
10
500000.000000
20
600000.000000
30
0
11
600000.000000
21
600000.000000
31
0
0
LINE
8
tyLinesList
62
8
10
600000.000000
20
600000.000000
30
0
11
600000.000000
21
700000.000000
31
0
0
LINE
8
tyLinesList
62
8
10
600000.000000
20
600000.000000
30
0
11
700000.000000
21
600000.000000
31
0
0
LINE
8
tyLinesList
62
8
10
700000.000000
20
600000.000000
30
0
11
700000.000000
21
700000.000000
31
0
0
LINE
8
tyLinesList
62
8
10
0.000000
20
700000.000000
30
0
11
0.000000
21
800000.000000
31
0
0
LINE
8
tyLinesList
62
8
10
0.000000
20
700000.000000
30
0
11
100000.000000
21
700000.000000
31
0
0
LINE
8
tyLinesList
62
8
10
100000.000000
20
700000.000000
30
0
11
100000.000000
21
800000.000000
31
0
0
LINE
8
tyLinesList
62
8
10
100000.000000
20
700000.000000
30
0
11
200000.000000
21
700000.000000
31
0
0
LINE
8
tyLinesList
62
8
10
200000.000000
20
700000.000000
30
0
11
200000.000000
21
800000.000000
31
0
0
LINE
8
tyLinesList
62
8
10
200000.000000
20
700000.000000
30
0
11
300000.000000
21
700000.000000
31
0
0
LINE
8
tyLinesList
62
8
10
300000.000000
20
700000.000000
30
0
11
300000.000000
21
800000.000000
31
0
0
LINE
8
tyLinesList
62
8
10
300000.000000
20
700000.000000
30
0
11
400000.000000
21
700000.000000
31
0
0
LINE
8
tyLinesList
62
8
10
400000.000000
20
700000.000000
30
0
11
400000.000000
21
800000.000000
31
0
0
LINE
8
tyLinesList
62
8
10
400000.000000
20
700000.000000
30
0
11
500000.000000
21
700000.000000
31
0
0
LINE
8
tyLinesList
62
8
10
500000.000000
20
700000.000000
30
0
11
500000.000000
21
800000.000000
31
0
0
LINE
8
tyLinesList
62
8
10
500000.000000
20
700000.000000
30
0
11
600000.000000
21
700000.000000
31
0
0
LINE
8
tyLinesList
62
8
10
600000.000000
20
700000.000000
30
0
11
600000.000000
21
800000.000000
31
0
0
LINE
8
tyLinesList
62
8
10
600000.000000
20
700000.000000
30
0
11
700000.000000
21
700000.000000
31
0
0
LINE
8
tyLinesList
62
8
10
700000.000000
20
700000.000000
30
0
11
700000.000000
21
800000.000000
31
0
0
LINE
8
tyLinesList
62
8
10
0.000000
20
800000.000000
30
0
11
0.000000
21
900000.000000
31
0
0
LINE
8
tyLinesList
62
8
10
0.000000
20
800000.000000
30
0
11
100000.000000
21
800000.000000
31
0
0
LINE
8
tyLinesList
62
8
10
100000.000000
20
800000.000000
30
0
11
100000.000000
21
900000.000000
31
0
0
LINE
8
tyLinesList
62
8
10
100000.000000
20
800000.000000
30
0
11
200000.000000
21
800000.000000
31
0
0
LINE
8
tyLinesList
62
8
10
200000.000000
20
800000.000000
30
0
11
200000.000000
21
900000.000000
31
0
0
LINE
8
tyLinesList
62
8
10
200000.000000
20
800000.000000
30
0
11
300000.000000
21
800000.000000
31
0
0
LINE
8
tyLinesList
62
8
10
300000.000000
20
800000.000000
30
0
11
300000.000000
21
900000.000000
31
0
0
LINE
8
tyLinesList
62
8
10
300000.000000
20
800000.000000
30
0
11
400000.000000
21
800000.000000
31
0
0
LINE
8
tyLinesList
62
8
10
400000.000000
20
800000.000000
30
0
11
400000.000000
21
900000.000000
31
0
0
LINE
8
tyLinesList
62
8
10
400000.000000
20
800000.000000
30
0
11
500000.000000
21
800000.000000
31
0
0
LINE
8
tyLinesList
62
8
10
500000.000000
20
800000.000000
30
0
11
500000.000000
21
900000.000000
31
0
0
LINE
8
tyLinesList
62
8
10
500000.000000
20
800000.000000
30
0
11
600000.000000
21
800000.000000
31
0
0
LINE
8
tyLinesList
62
8
10
600000.000000
20
800000.000000
30
0
11
600000.000000
21
900000.000000
31
0
0
LINE
8
tyLinesList
62
8
10
600000.000000
20
800000.000000
30
0
11
700000.000000
21
800000.000000
31
0
0
LINE
8
tyLinesList
62
8
10
700000.000000
20
800000.000000
30
0
11
700000.000000
21
900000.000000
31
0
0
LINE
8
tyLinesList
62
8
10
0.000000
20
900000.000000
30
0
11
0.000000
21
1000000.000000
31
0
0
LINE
8
tyLinesList
62
8
10
0.000000
20
900000.000000
30
0
11
100000.000000
21
900000.000000
31
0
0
LINE
8
tyLinesList
62
8
10
100000.000000
20
900000.000000
30
0
11
100000.000000
21
1000000.000000
31
0
0
LINE
8
tyLinesList
62
8
10
100000.000000
20
900000.000000
30
0
11
200000.000000
21
900000.000000
31
0
0
LINE
8
tyLinesList
62
8
10
200000.000000
20
900000.000000
30
0
11
200000.000000
21
1000000.000000
31
0
0
LINE
8
tyLinesList
62
8
10
200000.000000
20
900000.000000
30
0
11
300000.000000
21
900000.000000
31
0
0
LINE
8
tyLinesList
62
8
10
300000.000000
20
900000.000000
30
0
11
300000.000000
21
1000000.000000
31
0
0
LINE
8
tyLinesList
62
8
10
300000.000000
20
900000.000000
30
0
11
400000.000000
21
900000.000000
31
0
0
LINE
8
tyLinesList
62
8
10
400000.000000
20
900000.000000
30
0
11
400000.000000
21
1000000.000000
31
0
0
LINE
8
tyLinesList
62
8
10
400000.000000
20
900000.000000
30
0
11
500000.000000
21
900000.000000
31
0
0
LINE
8
tyLinesList
62
8
10
500000.000000
20
900000.000000
30
0
11
500000.000000
21
1000000.000000
31
0
0
LINE
8
tyLinesList
62
8
10
500000.000000
20
900000.000000
30
0
11
600000.000000
21
900000.000000
31
0
0
LINE
8
tyLinesList
62
8
10
600000.000000
20
900000.000000
30
0
11
600000.000000
21
1000000.000000
31
0
0
LINE
8
tyLinesList
62
8
10
600000.000000
20
900000.000000
30
0
11
700000.000000
21
900000.000000
31
0
0
LINE
8
tyLinesList
62
8
10
700000.000000
20
900000.000000
30
0
11
700000.000000
21
1000000.000000
31
0
0
LINE
8
tyLinesList
62
8
10
0.000000
20
1000000.000000
30
0
11
100000.000000
21
1000000.000000
31
0
0
LINE
8
tyLinesList
62
8
10
100000.000000
20
1000000.000000
30
0
11
200000.000000
21
1000000.000000
31
0
0
LINE
8
tyLinesList
62
8
10
200000.000000
20
1000000.000000
30
0
11
300000.000000
21
1000000.000000
31
0
0
LINE
8
tyLinesList
62
8
10
300000.000000
20
1000000.000000
30
0
11
400000.000000
21
1000000.000000
31
0
0
LINE
8
tyLinesList
62
8
10
400000.000000
20
1000000.000000
30
0
11
500000.000000
21
1000000.000000
31
0
0
LINE
8
tyLinesList
62
8
10
500000.000000
20
1000000.000000
30
0
11
600000.000000
21
1000000.000000
31
0
0
LINE
8
tyLinesList
62
8
10
600000.000000
20
1000000.000000
30
0
11
700000.000000
21
1000000.000000
31
0
0
POLYLINE
8
UKcoast
70
1
66
1
62
2
0
VERTEX
8
tyPoly
10
409961.000000
20
631178.000000
30
0.000000
0
VERTEX
8
tyPoly
10
400007.000000
20
639829.000000
30
0.000000
0
VERTEX
8
tyPoly
10
392293.000000
20
652974.000000
30
0.000000
0
VERTEX
8
tyPoly
10
388920.000000
20
656981.000000
30
0.000000
0
VERTEX
8
tyPoly
10
382341.000000
20
659219.000000
30
0.000000
0
VERTEX
8
tyPoly
10
375281.000000
20
660976.000000
30
0.000000
0
VERTEX
8
tyPoly
10
371749.000000
20
664501.000000
30
0.000000
0
VERTEX
8
tyPoly
10
360838.000000
20
667297.000000
30
0.000000
0
VERTEX
8
tyPoly
10
360113.000000
20
670103.000000
30
0.000000
0
VERTEX
8
tyPoly
10
356982.000000
20
672987.000000
30
0.000000
0
VERTEX
8
tyPoly
10
351125.000000
20
674665.000000
30
0.000000
0
VERTEX
8
tyPoly
10
346635.000000
20
673537.000000
30
0.000000
0
VERTEX
8
tyPoly
10
342793.000000
20
666315.000000
30
0.000000
0
VERTEX
8
tyPoly
10
337183.000000
20
662058.000000
30
0.000000
0
VERTEX
8
tyPoly
10
329725.000000
20
661809.000000
30
0.000000
0
VERTEX
8
tyPoly
10
325712.000000
20
664131.000000
30
0.000000
0
VERTEX
8
tyPoly
10
322422.000000
20
665491.000000
30
0.000000
0
VERTEX
8
tyPoly
10
314322.000000
20
665562.000000
30
0.000000
0
VERTEX
8
tyPoly
10
309830.000000
20
665638.000000
30
0.000000
0
VERTEX
8
tyPoly
10
305337.000000
20
667157.000000
30
0.000000
0
VERTEX
8
tyPoly
10
299640.000000
20
669156.000000
30
0.000000
0
VERTEX
8
tyPoly
10
294347.000000
20
669150.000000
30
0.000000
0
VERTEX
8
tyPoly
10
291217.000000
20
671392.000000
30
0.000000
0
VERTEX
8
tyPoly
10
291857.000000
20
672355.000000
30
0.000000
0
VERTEX
8
tyPoly
10
294503.000000
20
673000.000000
30
0.000000
0
VERTEX
8
tyPoly
10
296429.000000
20
672039.000000
30
0.000000
0
VERTEX
8
tyPoly
10
298995.000000
20
672764.000000
30
0.000000
0
VERTEX
8
tyPoly
10
302124.000000
20
671564.000000
30
0.000000
0
VERTEX
8
tyPoly
10
309586.000000
20
668605.000000
30
0.000000
0
VERTEX
8
tyPoly
10
311349.000000
20
669970.000000
30
0.000000
0
VERTEX
8
tyPoly
10
313675.000000
20
670294.000000
30
0.000000
0
VERTEX
8
tyPoly
10
315037.000000
20
671418.000000
30
0.000000
0
VERTEX
8
tyPoly
10
316720.000000
20
673104.000000
30
0.000000
0
VERTEX
8
tyPoly
10
321050.000000
20
673830.000000
30
0.000000
0
VERTEX
8
tyPoly
10
325379.000000
20
675199.000000
30
0.000000
0
VERTEX
8
tyPoly
10
326577.000000
20
680092.000000
30
0.000000
0
VERTEX
8
tyPoly
10
331625.000000
20
684188.000000
30
0.000000
0
VERTEX
8
tyPoly
10
339077.000000
20
690773.000000
30
0.000000
0
VERTEX
8
tyPoly
10
341644.000000
20
690294.000000
30
0.000000
0
VERTEX
8
tyPoly
10
343171.000000
20
687890.000000
30
0.000000
0
VERTEX
8
tyPoly
10
345658.000000
20
687492.000000
30
0.000000
0
VERTEX
8
tyPoly
10
355598.000000
20
691914.000000
30
0.000000
0
VERTEX
8
tyPoly
10
360285.000000
20
696310.000000
30
0.000000
0
VERTEX
8
tyPoly
10
361406.000000
20
697835.000000
30
0.000000
0
VERTEX
8
tyPoly
10
360844.000000
20
699117.000000
30
0.000000
0
VERTEX
8
tyPoly
10
358918.000000
20
699757.000000
30
0.000000
0
VERTEX
8
tyPoly
10
356229.000000
20
702040.000000
30
0.000000
0
VERTEX
8
tyPoly
10
352658.000000
20
703881.000000
30
0.000000
0
VERTEX
8
tyPoly
10
346680.000000
20
706441.000000
30
0.000000
0
VERTEX
8
tyPoly
10
346397.000000
20
708566.000000
30
0.000000
0
VERTEX
8
tyPoly
10
347757.000000
20
711936.000000
30
0.000000
0
VERTEX
8
tyPoly
10
347833.000000
20
715786.000000
30
0.000000
0
VERTEX
8
tyPoly
10
346629.000000
20
716426.000000
30
0.000000
0
VERTEX
8
tyPoly
10
343020.000000
20
716422.000000
30
0.000000
0
VERTEX
8
tyPoly
10
341815.000000
20
717624.000000
30
0.000000
0
VERTEX
8
tyPoly
10
343178.000000
20
718508.000000
30
0.000000
0
VERTEX
8
tyPoly
10
344862.000000
20
718911.000000
30
0.000000
0
VERTEX
8
tyPoly
10
347025.000000
20
720998.000000
30
0.000000
0
VERTEX
8
tyPoly
10
348229.000000
20
719796.000000
30
0.000000
0
VERTEX
8
tyPoly
10
352561.000000
20
719320.000000
30
0.000000
0
VERTEX
8
tyPoly
10
354643.000000
20
722370.000000
30
0.000000
0
VERTEX
8
tyPoly
10
356725.000000
20
725259.000000
30
0.000000
0
VERTEX
8
tyPoly
10
360892.000000
20
728312.000000
30
0.000000
0
VERTEX
8
tyPoly
10
366342.000000
20
732328.000000
30
0.000000
0
VERTEX
8
tyPoly
10
367460.000000
20
736339.000000
30
0.000000
0
VERTEX
8
tyPoly
10
366336.000000
20
737942.000000
30
0.000000
0
VERTEX
8
tyPoly
10
365852.000000
20
740508.000000
30
0.000000
0
VERTEX
8
tyPoly
10
370020.000000
20
743079.000000
30
0.000000
0
VERTEX
8
tyPoly
10
370981.000000
20
744363.000000
30
0.000000
0
VERTEX
8
tyPoly
10
368895.000000
20
745003.000000
30
0.000000
0
VERTEX
8
tyPoly
10
366167.000000
20
745481.000000
30
0.000000
0
VERTEX
8
tyPoly
10
365845.000000
20
746924.000000
30
0.000000
0
VERTEX
8
tyPoly
10
367447.000000
20
749011.000000
30
0.000000
0
VERTEX
8
tyPoly
10
369375.000000
20
746126.000000
30
0.000000
0
VERTEX
8
tyPoly
10
370497.000000
20
747090.000000
30
0.000000
0
VERTEX
8
tyPoly
10
370655.000000
20
748694.000000
30
0.000000
0
VERTEX
8
tyPoly
10
371536.000000
20
750098.000000
30
0.000000
0
VERTEX
8
tyPoly
10
372336.000000
20
751623.000000
30
0.000000
0
VERTEX
8
tyPoly
10
373818.000000
20
753209.000000
30
0.000000
0
VERTEX
8
tyPoly
10
376863.000000
20
756260.000000
30
0.000000
0
VERTEX
8
tyPoly
10
381989.000000
20
763002.000000
30
0.000000
0
VERTEX
8
tyPoly
10
384389.000000
20
767978.000000
30
0.000000
0
VERTEX
8
tyPoly
10
385021.000000
20
776961.000000
30
0.000000
0
VERTEX
8
tyPoly
10
390466.000000
20
785148.000000
30
0.000000
0
VERTEX
8
tyPoly
10
394790.000000
20
792210.000000
30
0.000000
0
VERTEX
8
tyPoly
10
392860.000000
20
797021.000000
30
0.000000
0
VERTEX
8
tyPoly
10
392854.000000
20
801993.000000
30
0.000000
0
VERTEX
8
tyPoly
10
395415.000000
20
807610.000000
30
0.000000
0
VERTEX
8
tyPoly
10
400458.000000
20
816599.000000
30
0.000000
0
VERTEX
8
tyPoly
10
403743.000000
20
819570.000000
30
0.000000
0
VERTEX
8
tyPoly
10
411751.000000
20
831448.000000
30
0.000000
0
VERTEX
8
tyPoly
10
412377.000000
20
845244.000000
30
0.000000
0
VERTEX
8
tyPoly
10
402100.000000
20
856141.000000
30
0.000000
0
VERTEX
8
tyPoly
10
396002.000000
20
858380.000000
30
0.000000
0
VERTEX
8
tyPoly
10
382528.000000
20
858044.000000
30
0.000000
0
VERTEX
8
tyPoly
10
371299.000000
20
858032.000000
30
0.000000
0
VERTEX
8
tyPoly
10
352372.000000
20
857050.000000
30
0.000000
0
VERTEX
8
tyPoly
10
344670.000000
20
859287.000000
30
0.000000
0
VERTEX
8
tyPoly
10
342429.000000
20
854793.000000
30
0.000000
0
VERTEX
8
tyPoly
10
329435.000000
20
855742.000000
30
0.000000
0
VERTEX
8
tyPoly
10
323336.000000
20
859424.000000
30
0.000000
0
VERTEX
8
tyPoly
10
318363.000000
20
859900.000000
30
0.000000
0
VERTEX
8
tyPoly
10
309703.000000
20
857806.000000
30
0.000000
0
VERTEX
8
tyPoly
10
301849.000000
20
852504.000000
30
0.000000
0
VERTEX
8
tyPoly
10
300243.000000
20
854427.000000
30
0.000000
0
VERTEX
8
tyPoly
10
291585.000000
20
849926.000000
30
0.000000
0
VERTEX
8
tyPoly
10
288542.000000
20
846073.000000
30
0.000000
0
VERTEX
8
tyPoly
10
283248.000000
20
846388.000000
30
0.000000
0
VERTEX
8
tyPoly
10
276675.000000
20
843333.000000
30
0.000000
0
VERTEX
8
tyPoly
10
271381.000000
20
843969.000000
30
0.000000
0
VERTEX
8
tyPoly
10
274583.000000
20
849106.000000
30
0.000000
0
VERTEX
8
tyPoly
10
277465.000000
20
854242.000000
30
0.000000
0
VERTEX
8
tyPoly
10
282755.000000
20
856974.000000
30
0.000000
0
VERTEX
8
tyPoly
10
292358.000000
20
876875.000000
30
0.000000
0
VERTEX
8
tyPoly
10
289155.000000
20
872380.000000
30
0.000000
0
VERTEX
8
tyPoly
10
275682.000000
20
871083.000000
30
0.000000
0
VERTEX
8
tyPoly
10
264770.000000
20
874921.000000
30
0.000000
0
VERTEX
8
tyPoly
10
255139.000000
20
881327.000000
30
0.000000
0
VERTEX
8
tyPoly
10
272469.000000
20
876212.000000
30
0.000000
0
VERTEX
8
tyPoly
10
276309.000000
20
884558.000000
30
0.000000
0
VERTEX
8
tyPoly
10
290413.000000
20
896122.000000
30
0.000000
0
VERTEX
8
tyPoly
10
304515.000000
20
908328.000000
30
0.000000
0
VERTEX
8
tyPoly
10
314766.000000
20
923097.000000
30
0.000000
0
VERTEX
8
tyPoly
10
333367.000000
20
928250.000000
30
0.000000
0
VERTEX
8
tyPoly
10
338491.000000
20
937238.000000
30
0.000000
0
VERTEX
8
tyPoly
10
334629.000000
20
948142.000000
30
0.000000
0
VERTEX
8
tyPoly
10
337830.000000
20
955203.000000
30
0.000000
0
VERTEX
8
tyPoly
10
337178.000000
20
964185.000000
30
0.000000
0
VERTEX
8
tyPoly
10
328832.000000
20
968668.000000
30
0.000000
0
VERTEX
8
tyPoly
10
321142.000000
20
960318.000000
30
0.000000
0
VERTEX
8
tyPoly
10
319211.000000
20
966091.000000
30
0.000000
0
VERTEX
8
tyPoly
10
303178.000000
20
958374.000000
30
0.000000
0
VERTEX
8
tyPoly
10
291631.000000
20
956437.000000
30
0.000000
0
VERTEX
8
tyPoly
10
274953.000000
20
951927.000000
30
0.000000
0
VERTEX
8
tyPoly
10
267893.000000
20
954486.000000
30
0.000000
0
VERTEX
8
tyPoly
10
258277.000000
20
946776.000000
30
0.000000
0
VERTEX
8
tyPoly
10
254419.000000
20
953830.000000
30
0.000000
0
VERTEX
8
tyPoly
10
246715.000000
20
958313.000000
30
0.000000
0
VERTEX
8
tyPoly
10
240955.000000
20
944191.000000
30
0.000000
0
VERTEX
8
tyPoly
10
235815.000000
20
951243.000000
30
0.000000
0
VERTEX
8
tyPoly
10
234525.000000
20
957658.000000
30
0.000000
0
VERTEX
8
tyPoly
10
223612.000000
20
962138.000000
30
0.000000
0
VERTEX
8
tyPoly
10
218488.000000
20
953791.000000
30
0.000000
0
VERTEX
8
tyPoly
10
220422.000000
20
945452.000000
30
0.000000
0
VERTEX
8
tyPoly
10
218507.000000
20
935826.000000
30
0.000000
0
VERTEX
8
tyPoly
10
214018.000000
20
933896.000000
30
0.000000
0
VERTEX
8
tyPoly
10
211458.000000
20
928118.000000
30
0.000000
0
VERTEX
8
tyPoly
10
215318.000000
20
918498.000000
30
0.000000
0
VERTEX
8
tyPoly
10
208257.000000
20
921057.000000
30
0.000000
0
VERTEX
8
tyPoly
10
196707.000000
20
922328.000000
30
0.000000
0
VERTEX
8
tyPoly
10
200568.000000
20
911424.000000
30
0.000000
0
VERTEX
8
tyPoly
10
201220.000000
20
901801.000000
30
0.000000
0
VERTEX
8
tyPoly
10
189668.000000
20
904355.000000
30
0.000000
0
VERTEX
8
tyPoly
10
194811.000000
20
894736.000000
30
0.000000
0
VERTEX
8
tyPoly
10
205727.000000
20
887690.000000
30
0.000000
0
VERTEX
8
tyPoly
10
215362.000000
20
878076.000000
30
0.000000
0
VERTEX
8
tyPoly
10
201884.000000
20
881269.000000
30
0.000000
0
VERTEX
8
tyPoly
10
196106.000000
20
883829.000000
30
0.000000
0
VERTEX
8
tyPoly
10
186487.000000
20
879328.000000
30
0.000000
0
VERTEX
8
tyPoly
10
183918.000000
20
881891.000000
30
0.000000
0
VERTEX
8
tyPoly
10
183924.000000
20
875475.000000
30
0.000000
0
VERTEX
8
tyPoly
10
173013.000000
20
878671.000000
30
0.000000
0
VERTEX
8
tyPoly
10
174947.000000
20
870974.000000
30
0.000000
0
VERTEX
8
tyPoly
10
174314.000000
20
862632.000000
30
0.000000
0
VERTEX
8
tyPoly
10
167899.000000
20
861342.000000
30
0.000000
0
VERTEX
8
tyPoly
10
173683.000000
20
852365.000000
30
0.000000
0
VERTEX
8
tyPoly
10
175619.000000
20
842743.000000
30
0.000000
0
VERTEX
8
tyPoly
10
168561.000000
20
842094.000000
30
0.000000
0
VERTEX
8
tyPoly
10
170497.000000
20
832471.000000
30
0.000000
0
VERTEX
8
tyPoly
10
170512.000000
20
818356.000000
30
0.000000
0
VERTEX
8
tyPoly
10
155754.000000
20
818340.000000
30
0.000000
0
VERTEX
8
tyPoly
10
152538.000000
20
826036.000000
30
0.000000
0
VERTEX
8
tyPoly
10
155087.000000
20
842079.000000
30
0.000000
0
VERTEX
8
tyPoly
10
150578.000000
20
858115.000000
30
0.000000
0
VERTEX
8
tyPoly
10
136463.000000
20
857458.000000
30
0.000000
0
VERTEX
8
tyPoly
10
136468.000000
20
852967.000000
30
0.000000
0
VERTEX
8
tyPoly
10
133917.000000
20
838848.000000
30
0.000000
0
VERTEX
8
tyPoly
10
124927.000000
20
845255.000000
30
0.000000
0
VERTEX
8
tyPoly
10
117873.000000
20
841397.000000
30
0.000000
0
VERTEX
8
tyPoly
10
113388.000000
20
835618.000000
30
0.000000
0
VERTEX
8
tyPoly
10
114682.000000
20
825995.000000
30
0.000000
0
VERTEX
8
tyPoly
10
123668.000000
20
822796.000000
30
0.000000
0
VERTEX
8
tyPoly
10
124326.000000
20
808040.000000
30
0.000000
0
VERTEX
8
tyPoly
10
139733.000000
20
800357.000000
30
0.000000
0
VERTEX
8
tyPoly
10
148713.000000
20
802933.000000
30
0.000000
0
VERTEX
8
tyPoly
10
153213.000000
20
794597.000000
30
0.000000
0
VERTEX
8
tyPoly
10
157074.000000
20
784976.000000
30
0.000000
0
VERTEX
8
tyPoly
10
161548.000000
20
800380.000000
30
0.000000
0
VERTEX
8
tyPoly
10
176304.000000
20
802321.000000
30
0.000000
0
VERTEX
8
tyPoly
10
182726.000000
20
796553.000000
30
0.000000
0
VERTEX
8
tyPoly
10
173744.000000
20
795902.000000
30
0.000000
0
VERTEX
8
tyPoly
10
173110.000000
20
789485.000000
30
0.000000
0
VERTEX
8
tyPoly
10
181460.000000
20
781153.000000
30
0.000000
0
VERTEX
8
tyPoly
10
169270.000000
20
779856.000000
30
0.000000
0
VERTEX
8
tyPoly
10
164145.000000
20
772793.000000
30
0.000000
0
VERTEX
8
tyPoly
10
164790.000000
20
768944.000000
30
0.000000
0
VERTEX
8
tyPoly
10
173779.000000
20
763821.000000
30
0.000000
0
VERTEX
8
tyPoly
10
168652.000000
20
758040.000000
30
0.000000
0
VERTEX
8
tyPoly
10
159666.000000
20
760597.000000
30
0.000000
0
VERTEX
8
tyPoly
10
153898.000000
20
754816.000000
30
0.000000
0
VERTEX
8
tyPoly
10
143638.000000
20
749031.000000
30
0.000000
0
VERTEX
8
tyPoly
10
132739.000000
20
741319.000000
30
0.000000
0
VERTEX
8
tyPoly
10
139165.000000
20
731702.000000
30
0.000000
0
VERTEX
8
tyPoly
10
148798.000000
20
724654.000000
30
0.000000
0
VERTEX
8
tyPoly
10
134692.000000
20
715015.000000
30
0.000000
0
VERTEX
8
tyPoly
10
123150.000000
20
707944.000000
30
0.000000
0
VERTEX
8
tyPoly
10
134706.000000
20
702182.000000
30
0.000000
0
VERTEX
8
tyPoly
10
147535.000000
20
705404.000000
30
0.000000
0
VERTEX
8
tyPoly
10
167424.000000
20
706709.000000
30
0.000000
0
VERTEX
8
tyPoly
10
171257.000000
20
722112.000000
30
0.000000
0
VERTEX
8
tyPoly
10
176549.000000
20
723401.000000
30
0.000000
0
VERTEX
8
tyPoly
10
184884.000000
20
729826.000000
30
0.000000
0
VERTEX
8
tyPoly
10
193857.000000
20
738658.000000
30
0.000000
0
VERTEX
8
tyPoly
10
197068.000000
20
735614.000000
30
0.000000
0
VERTEX
8
tyPoly
10
199473.000000
20
737060.000000
30
0.000000
0
VERTEX
8
tyPoly
10
200913.000000
20
740110.000000
30
0.000000
0
VERTEX
8
tyPoly
10
207173.000000
20
736347.000000
30
0.000000
0
VERTEX
8
tyPoly
10
206295.000000
20
732175.000000
30
0.000000
0
VERTEX
8
tyPoly
10
206942.000000
20
727604.000000
30
0.000000
0
VERTEX
8
tyPoly
10
211753.000000
20
728572.000000
30
0.000000
0
VERTEX
8
tyPoly
10
214557.000000
20
731783.000000
30
0.000000
0
VERTEX
8
tyPoly
10
222415.000000
20
733155.000000
30
0.000000
0
VERTEX
8
tyPoly
10
228751.000000
20
733402.000000
30
0.000000
0
VERTEX
8
tyPoly
10
232037.000000
20
735571.000000
30
0.000000
0
VERTEX
8
tyPoly
10
235965.000000
20
737340.000000
30
0.000000
0
VERTEX
8
tyPoly
10
238537.000000
20
732531.000000
30
0.000000
0
VERTEX
8
tyPoly
10
233725.000000
20
732526.000000
30
0.000000
0
VERTEX
8
tyPoly
10
231484.000000
20
728032.000000
30
0.000000
0
VERTEX
8
tyPoly
10
231491.000000
20
721295.000000
30
0.000000
0
VERTEX
8
tyPoly
10
223157.000000
20
714869.000000
30
0.000000
0
VERTEX
8
tyPoly
10
222841.000000
20
710057.000000
30
0.000000
0
VERTEX
8
tyPoly
10
225732.000000
20
707173.000000
30
0.000000
0
VERTEX
8
tyPoly
10
231830.000000
20
704613.000000
30
0.000000
0
VERTEX
8
tyPoly
10
229589.000000
20
700119.000000
30
0.000000
0
VERTEX
8
tyPoly
10
228955.000000
20
693381.000000
30
0.000000
0
VERTEX
8
tyPoly
10
233776.000000
20
685366.000000
30
0.000000
0
VERTEX
8
tyPoly
10
234590.000000
20
673497.000000
30
0.000000
0
VERTEX
8
tyPoly
10
232032.000000
20
666115.000000
30
0.000000
0
VERTEX
8
tyPoly
10
232201.000000
20
658416.000000
30
0.000000
0
VERTEX
8
tyPoly
10
231727.000000
20
651678.000000
30
0.000000
0
VERTEX
8
tyPoly
10
228358.000000
20
651354.000000
30
0.000000
0
VERTEX
8
tyPoly
10
224503.000000
20
656482.000000
30
0.000000
0
VERTEX
8
tyPoly
10
218570.000000
20
654551.000000
30
0.000000
0
VERTEX
8
tyPoly
10
222583.000000
20
651829.000000
30
0.000000
0
VERTEX
8
tyPoly
10
226114.000000
20
650389.000000
30
0.000000
0
VERTEX
8
tyPoly
10
228366.000000
20
643975.000000
30
0.000000
0
VERTEX
8
tyPoly
10
237990.000000
20
644627.000000
30
0.000000
0
VERTEX
8
tyPoly
10
237674.000000
20
640135.000000
30
0.000000
0
VERTEX
8
tyPoly
10
233832.000000
20
632752.000000
30
0.000000
0
VERTEX
8
tyPoly
10
233839.000000
20
626978.000000
30
0.000000
0
VERTEX
8
tyPoly
10
228392.000000
20
619914.000000
30
0.000000
0
VERTEX
8
tyPoly
10
228723.000000
20
610771.000000
30
0.000000
0
VERTEX
8
tyPoly
10
224880.000000
20
604671.000000
30
0.000000
0
VERTEX
8
tyPoly
10
219114.000000
20
596324.000000
30
0.000000
0
VERTEX
8
tyPoly
10
219118.000000
20
592474.000000
30
0.000000
0
VERTEX
8
tyPoly
10
211756.000000
20
577388.000000
30
0.000000
0
VERTEX
8
tyPoly
10
201822.000000
20
567111.000000
30
0.000000
0
VERTEX
8
tyPoly
10
201830.000000
20
559412.000000
30
0.000000
0
VERTEX
8
tyPoly
10
205686.000000
20
553320.000000
30
0.000000
0
VERTEX
8
tyPoly
10
203766.000000
20
549468.000000
30
0.000000
0
VERTEX
8
tyPoly
10
201516.000000
20
552995.000000
30
0.000000
0
VERTEX
8
tyPoly
10
201190.000000
20
557807.000000
30
0.000000
0
VERTEX
8
tyPoly
10
197978.000000
20
561011.000000
30
0.000000
0
VERTEX
8
tyPoly
10
192208.000000
20
556835.000000
30
0.000000
0
VERTEX
8
tyPoly
10
195428.000000
20
546572.000000
30
0.000000
0
VERTEX
8
tyPoly
10
200248.000000
20
538557.000000
30
0.000000
0
VERTEX
8
tyPoly
10
205713.000000
20
528938.000000
30
0.000000
0
VERTEX
8
tyPoly
10
204115.000000
20
522841.000000
30
0.000000
0
VERTEX
8
tyPoly
10
210538.000000
20
516432.000000
30
0.000000
0
VERTEX
8
tyPoly
10
213421.000000
20
521247.000000
30
0.000000
0
VERTEX
8
tyPoly
10
211807.000000
20
529907.000000
30
0.000000
0
VERTEX
8
tyPoly
10
209233.000000
20
537283.000000
30
0.000000
0
VERTEX
8
tyPoly
10
212435.000000
20
542741.000000
30
0.000000
0
VERTEX
8
tyPoly
10
219174.000000
20
540502.000000
30
0.000000
0
VERTEX
8
tyPoly
10
225921.000000
20
531847.000000
30
0.000000
0
VERTEX
8
tyPoly
10
240367.000000
20
523522.000000
30
0.000000
0
VERTEX
8
tyPoly
10
244859.000000
20
522885.000000
30
0.000000
0
VERTEX
8
tyPoly
10
245810.000000
20
533152.000000
30
0.000000
0
VERTEX
8
tyPoly
10
241312.000000
20
539564.000000
30
0.000000
0
VERTEX
8
tyPoly
10
243229.000000
20
546303.000000
30
0.000000
0
VERTEX
8
tyPoly
10
246126.000000
20
537965.000000
30
0.000000
0
VERTEX
8
tyPoly
10
254785.000000
20
540541.000000
30
0.000000
0
VERTEX
8
tyPoly
10
258317.000000
20
537657.000000
30
0.000000
0
VERTEX
8
tyPoly
10
261533.000000
20
529961.000000
30
0.000000
0
VERTEX
8
tyPoly
10
273401.000000
20
532219.000000
30
0.000000
0
VERTEX
8
tyPoly
10
275959.000000
20
539922.000000
30
0.000000
0
VERTEX
8
tyPoly
10
284296.000000
20
544101.000000
30
0.000000
0
VERTEX
8
tyPoly
10
295207.000000
20
540905.000000
30
0.000000
0
VERTEX
8
tyPoly
10
294235.000000
20
550208.000000
30
0.000000
0
VERTEX
8
tyPoly
10
297757.000000
20
556628.000000
30
0.000000
0
VERTEX
8
tyPoly
10
305139.000000
20
553748.000000
30
0.000000
0
VERTEX
8
tyPoly
10
314442.000000
20
553758.000000
30
0.000000
0
VERTEX
8
tyPoly
10
328561.000000
20
550886.000000
30
0.000000
0
VERTEX
8
tyPoly
10
319256.000000
20
552480.000000
30
0.000000
0
VERTEX
8
tyPoly
10
314451.000000
20
545738.000000
30
0.000000
0
VERTEX
8
tyPoly
10
309641.000000
20
543487.000000
30
0.000000
0
VERTEX
8
tyPoly
10
304838.000000
20
534820.000000
30
0.000000
0
VERTEX
8
tyPoly
10
303884.000000
20
526798.000000
30
0.000000
0
VERTEX
8
tyPoly
10
294593.000000
20
515560.000000
30
0.000000
0
VERTEX
8
tyPoly
10
291398.000000
20
503366.000000
30
0.000000
0
VERTEX
8
tyPoly
10
303928.000000
20
486697.000000
30
0.000000
0
VERTEX
8
tyPoly
10
306346.000000
20
475551.000000
30
0.000000
0
VERTEX
8
tyPoly
10
309722.000000
20
468817.000000
30
0.000000
0
VERTEX
8
tyPoly
10
311249.000000
20
465370.000000
30
0.000000
0
VERTEX
8
tyPoly
10
317900.000000
20
470671.000000
30
0.000000
0
VERTEX
8
tyPoly
10
317425.000000
20
465537.000000
30
0.000000
0
VERTEX
8
tyPoly
10
314064.000000
20
458315.000000
30
0.000000
0
VERTEX
8
tyPoly
10
318886.000000
20
449177.000000
30
0.000000
0
VERTEX
8
tyPoly
10
320967.000000
20
453430.000000
30
0.000000
0
VERTEX
8
tyPoly
10
326815.000000
20
459532.000000
30
0.000000
0
VERTEX
8
tyPoly
10
329698.000000
20
463947.000000
30
0.000000
0
VERTEX
8
tyPoly
10
330902.000000
20
462905.000000
30
0.000000
0
VERTEX
8
tyPoly
10
332990.000000
20
460020.000000
30
0.000000
0
VERTEX
8
tyPoly
10
335635.000000
20
461547.000000
30
0.000000
0
VERTEX
8
tyPoly
10
337557.000000
20
464356.000000
30
0.000000
0
VERTEX
8
tyPoly
10
342608.000000
20
465805.000000
30
0.000000
0
VERTEX
8
tyPoly
10
342290.000000
20
463880.000000
30
0.000000
0
VERTEX
8
tyPoly
10
340206.000000
20
462113.000000
30
0.000000
0
VERTEX
8
tyPoly
10
342776.000000
20
459229.000000
30
0.000000
0
VERTEX
8
tyPoly
10
342620.000000
20
454657.000000
30
0.000000
0
VERTEX
8
tyPoly
10
339095.000000
20
451686.000000
30
0.000000
0
VERTEX
8
tyPoly
10
337574.000000
20
448476.000000
30
0.000000
0
VERTEX
8
tyPoly
10
338940.000000
20
446713.000000
30
0.000000
0
VERTEX
8
tyPoly
10
340149.000000
20
440779.000000
30
0.000000
0
VERTEX
8
tyPoly
10
336703.000000
20
438610.000000
30
0.000000
0
VERTEX
8
tyPoly
10
329486.000000
20
436837.000000
30
0.000000
0
VERTEX
8
tyPoly
10
328046.000000
20
433868.000000
30
0.000000
0
VERTEX
8
tyPoly
10
327339.000000
20
419511.000000
30
0.000000
0
VERTEX
8
tyPoly
10
327823.000000
20
416945.000000
30
0.000000
0
VERTEX
8
tyPoly
10
331354.000000
20
415104.000000
30
0.000000
0
VERTEX
8
tyPoly
10
337610.000000
20
415031.000000
30
0.000000
0
VERTEX
8
tyPoly
10
336168.000000
20
413586.000000
30
0.000000
0
VERTEX
8
tyPoly
10
332963.000000
20
410855.000000
30
0.000000
0
VERTEX
8
tyPoly
10
329439.000000
20
405879.000000
30
0.000000
0
VERTEX
8
tyPoly
10
325435.000000
20
400340.000000
30
0.000000
0
VERTEX
8
tyPoly
10
324961.000000
20
394164.000000
30
0.000000
0
VERTEX
8
tyPoly
10
327374.000000
20
387670.000000
30
0.000000
0
VERTEX
8
tyPoly
10
329223.000000
20
383341.000000
30
0.000000
0
VERTEX
8
tyPoly
10
325776.000000
20
381413.000000
30
0.000000
0
VERTEX
8
tyPoly
10
316958.000000
20
377313.000000
30
0.000000
0
VERTEX
8
tyPoly
10
317523.000000
20
374506.000000
30
0.000000
0
VERTEX
8
tyPoly
10
322340.000000
20
369459.000000
30
0.000000
0
VERTEX
8
tyPoly
10
322504.000000
20
366652.000000
30
0.000000
0
VERTEX
8
tyPoly
10
324194.000000
20
361280.000000
30
0.000000
0
VERTEX
8
tyPoly
10
321385.000000
20
362881.000000
30
0.000000
0
VERTEX
8
tyPoly
10
313117.000000
20
369770.000000
30
0.000000
0
VERTEX
8
tyPoly
10
307899.000000
20
373533.000000
30
0.000000
0
VERTEX
8
tyPoly
10
296834.000000
20
371035.000000
30
0.000000
0
VERTEX
8
tyPoly
10
286890.000000
20
369741.000000
30
0.000000
0
VERTEX
8
tyPoly
10
275659.000000
20
372296.000000
30
0.000000
0
VERTEX
8
tyPoly
10
269250.000000
20
365552.000000
30
0.000000
0
VERTEX
8
tyPoly
10
262196.000000
20
361694.000000
30
0.000000
0
VERTEX
8
tyPoly
10
253853.000000
20
362968.000000
30
0.000000
0
VERTEX
8
tyPoly
10
259623.000000
20
367466.000000
30
0.000000
0
VERTEX
8
tyPoly
10
260260.000000
20
371958.000000
30
0.000000
0
VERTEX
8
tyPoly
10
250957.000000
20
371627.000000
30
0.000000
0
VERTEX
8
tyPoly
10
248707.000000
20
375154.000000
30
0.000000
0
VERTEX
8
tyPoly
10
244854.000000
20
378679.000000
30
0.000000
0
VERTEX
8
tyPoly
10
242602.000000
20
383809.000000
30
0.000000
0
VERTEX
8
tyPoly
10
230413.000000
20
382192.000000
30
0.000000
0
VERTEX
8
tyPoly
10
227533.000000
20
376093.000000
30
0.000000
0
VERTEX
8
tyPoly
10
225290.000000
20
373204.000000
30
0.000000
0
VERTEX
8
tyPoly
10
219193.000000
20
374160.000000
30
0.000000
0
VERTEX
8
tyPoly
10
218880.000000
20
367422.000000
30
0.000000
0
VERTEX
8
tyPoly
10
226581.000000
20
365506.000000
30
0.000000
0
VERTEX
8
tyPoly
10
229475.000000
20
360055.000000
30
0.000000
0
VERTEX
8
tyPoly
10
236541.000000
20
352684.000000
30
0.000000
0
VERTEX
8
tyPoly
10
243921.000000
20
350767.000000
30
0.000000
0
VERTEX
8
tyPoly
10
238795.000000
20
344345.000000
30
0.000000
0
VERTEX
8
tyPoly
10
233350.000000
20
335998.000000
30
0.000000
0
VERTEX
8
tyPoly
10
223089.000000
20
332137.000000
30
0.000000
0
VERTEX
8
tyPoly
10
211870.000000
20
323142.000000
30
0.000000
0
VERTEX
8
tyPoly
10
211558.000000
20
314801.000000
30
0.000000
0
VERTEX
8
tyPoly
10
215728.000000
20
315447.000000
30
0.000000
0
VERTEX
8
tyPoly
10
221499.000000
20
318661.000000
30
0.000000
0
VERTEX
8
tyPoly
10
224712.000000
20
314173.000000
30
0.000000
0
VERTEX
8
tyPoly
10
227921.000000
20
313535.000000
30
0.000000
0
VERTEX
8
tyPoly
10
232090.000000
20
314823.000000
30
0.000000
0
VERTEX
8
tyPoly
10
232086.000000
20
318673.000000
30
0.000000
0
VERTEX
8
tyPoly
10
233044.000000
20
322844.000000
30
0.000000
0
VERTEX
8
tyPoly
10
239456.000000
20
326380.000000
30
0.000000
0
VERTEX
8
tyPoly
10
250685.000000
20
326392.000000
30
0.000000
0
VERTEX
8
tyPoly
10
257102.000000
20
325116.000000
30
0.000000
0
VERTEX
8
tyPoly
10
253260.000000
20
318054.000000
30
0.000000
0
VERTEX
8
tyPoly
10
255514.000000
20
310357.000000
30
0.000000
0
VERTEX
8
tyPoly
10
255842.000000
20
304261.000000
30
0.000000
0
VERTEX
8
tyPoly
10
253605.000000
20
295597.000000
30
0.000000
0
VERTEX
8
tyPoly
10
255857.000000
20
290466.000000
30
0.000000
0
VERTEX
8
tyPoly
10
257153.000000
20
277956.000000
30
0.000000
0
VERTEX
8
tyPoly
10
251392.000000
20
265438.000000
30
0.000000
0
VERTEX
8
tyPoly
10
244023.000000
20
256126.000000
30
0.000000
0
VERTEX
8
tyPoly
10
234084.000000
20
250341.000000
30
0.000000
0
VERTEX
8
tyPoly
10
233764.000000
20
249699.000000
30
0.000000
0
VERTEX
8
tyPoly
10
213559.000000
20
243903.000000
30
0.000000
0
VERTEX
8
tyPoly
10
206507.000000
20
238762.000000
30
0.000000
0
VERTEX
8
tyPoly
10
189191.000000
20
231044.000000
30
0.000000
0
VERTEX
8
tyPoly
10
176045.000000
20
224293.000000
30
0.000000
0
VERTEX
8
tyPoly
10
168353.000000
20
217226.000000
30
0.000000
0
VERTEX
8
tyPoly
10
177336.000000
20
216915.000000
30
0.000000
0
VERTEX
8
tyPoly
10
182471.000000
20
215317.000000
30
0.000000
0
VERTEX
8
tyPoly
10
182478.000000
20
208580.000000
30
0.000000
0
VERTEX
8
tyPoly
10
175744.000000
20
205685.000000
30
0.000000
0
VERTEX
8
tyPoly
10
177357.000000
20
197666.000000
30
0.000000
0
VERTEX
8
tyPoly
10
184092.000000
20
199919.000000
30
0.000000
0
VERTEX
8
tyPoly
10
190508.000000
20
199605.000000
30
0.000000
0
VERTEX
8
tyPoly
10
186662.000000
20
196393.000000
30
0.000000
0
VERTEX
8
tyPoly
10
188913.000000
20
191262.000000
30
0.000000
0
VERTEX
8
tyPoly
10
191483.000000
20
188378.000000
30
0.000000
0
VERTEX
8
tyPoly
10
202387.000000
20
191277.000000
30
0.000000
0
VERTEX
8
tyPoly
10
207837.000000
20
195453.000000
30
0.000000
0
VERTEX
8
tyPoly
10
220666.000000
20
198675.000000
30
0.000000
0
VERTEX
8
tyPoly
10
229012.000000
20
194514.000000
30
0.000000
0
VERTEX
8
tyPoly
10
246658.000000
20
192608.000000
30
0.000000
0
VERTEX
8
tyPoly
10
251474.000000
20
189726.000000
30
0.000000
0
VERTEX
8
tyPoly
10
239607.000000
20
186505.000000
30
0.000000
0
VERTEX
8
tyPoly
10
237046.000000
20
181369.000000
30
0.000000
0
VERTEX
8
tyPoly
10
245390.000000
20
178812.000000
30
0.000000
0
VERTEX
8
tyPoly
10
255332.000000
20
181710.000000
30
0.000000
0
VERTEX
8
tyPoly
10
264630.000000
20
186853.000000
30
0.000000
0
VERTEX
8
tyPoly
10
269128.000000
20
180762.000000
30
0.000000
0
VERTEX
8
tyPoly
10
274271.000000
20
171464.000000
30
0.000000
0
VERTEX
8
tyPoly
10
279728.000000
20
168583.000000
30
0.000000
0
VERTEX
8
tyPoly
10
285509.000000
20
162814.000000
30
0.000000
0
VERTEX
8
tyPoly
10
290647.000000
20
158007.000000
30
0.000000
0
VERTEX
8
tyPoly
10
302517.000000
20
158983.000000
30
0.000000
0
VERTEX
8
tyPoly
10
315989.000000
20
160601.000000
30
0.000000
0
VERTEX
8
tyPoly
10
315983.000000
20
166376.000000
30
0.000000
0
VERTEX
8
tyPoly
10
322393.000000
20
172158.000000
30
0.000000
0
VERTEX
8
tyPoly
10
329449.000000
20
173448.000000
30
0.000000
0
VERTEX
8
tyPoly
10
340353.000000
20
177631.000000
30
0.000000
0
VERTEX
8
tyPoly
10
350614.000000
20
182133.000000
30
0.000000
0
VERTEX
8
tyPoly
10
350289.000000
20
186303.000000
30
0.000000
0
VERTEX
8
tyPoly
10
359586.000000
20
191767.000000
30
0.000000
0
VERTEX
8
tyPoly
10
369205.000000
20
197232.000000
30
0.000000
0
VERTEX
8
tyPoly
10
360555.000000
20
186315.000000
30
0.000000
0
VERTEX
8
tyPoly
10
351899.000000
20
180531.000000
30
0.000000
0
VERTEX
8
tyPoly
10
344851.000000
20
171540.000000
30
0.000000
0
VERTEX
8
tyPoly
10
337157.000000
20
166078.000000
30
0.000000
0
VERTEX
8
tyPoly
10
331073.000000
20
155805.000000
30
0.000000
0
VERTEX
8
tyPoly
10
327234.000000
20
145214.000000
30
0.000000
0
VERTEX
8
tyPoly
10
325961.000000
20
136230.000000
30
0.000000
0
VERTEX
8
tyPoly
10
320821.000000
20
141999.000000
30
0.000000
0
VERTEX
8
tyPoly
10
311521.000000
20
138781.000000
30
0.000000
0
VERTEX
8
tyPoly
10
299652.000000
20
137485.000000
30
0.000000
0
VERTEX
8
tyPoly
10
290024.000000
20
141324.000000
30
0.000000
0
VERTEX
8
tyPoly
10
282162.000000
20
142920.000000
30
0.000000
0
VERTEX
8
tyPoly
10
269167.000000
20
144991.000000
30
0.000000
0
VERTEX
8
tyPoly
10
250882.000000
20
143367.000000
30
0.000000
0
VERTEX
8
tyPoly
10
241741.000000
20
141433.000000
30
0.000000
0
VERTEX
8
tyPoly
10
241745.000000
20
137423.000000
30
0.000000
0
VERTEX
8
tyPoly
10
239663.000000
20
135014.000000
30
0.000000
0
VERTEX
8
tyPoly
10
239666.000000
20
132127.000000
30
0.000000
0
VERTEX
8
tyPoly
10
243039.000000
20
127479.000000
30
0.000000
0
VERTEX
8
tyPoly
10
239675.000000
20
123304.000000
30
0.000000
0
VERTEX
8
tyPoly
10
233103.000000
20
119448.000000
30
0.000000
0
VERTEX
8
tyPoly
10
225399.000000
20
123770.000000
30
0.000000
0
VERTEX
8
tyPoly
10
219947.000000
20
122000.000000
30
0.000000
0
VERTEX
8
tyPoly
10
219631.000000
20
117508.000000
30
0.000000
0
VERTEX
8
tyPoly
10
218192.000000
20
113176.000000
30
0.000000
0
VERTEX
8
tyPoly
10
218204.000000
20
101466.000000
30
0.000000
0
VERTEX
8
tyPoly
10
216123.000000
20
97774.000000
30
0.000000
0
VERTEX
8
tyPoly
10
212439.000000
20
92477.000000
30
0.000000
0
VERTEX
8
tyPoly
10
204745.000000
20
87336.000000
30
0.000000
0
VERTEX
8
tyPoly
10
201381.000000
20
83161.000000
30
0.000000
0
VERTEX
8
tyPoly
10
199140.000000
20
78828.000000
30
0.000000
0
VERTEX
8
tyPoly
10
193686.000000
20
79383.000000
30
0.000000
0
VERTEX
8
tyPoly
10
190962.000000
20
76654.000000
30
0.000000
0
VERTEX
8
tyPoly
10
187515.000000
20
75206.000000
30
0.000000
0
VERTEX
8
tyPoly
10
184309.000000
20
72877.000000
30
0.000000
0
VERTEX
8
tyPoly
10
182071.000000
20
65255.000000
30
0.000000
0
VERTEX
8
tyPoly
10
180712.000000
20
61083.000000
30
0.000000
0
VERTEX
8
tyPoly
10
175905.000000
20
56747.000000
30
0.000000
0
VERTEX
8
tyPoly
10
170138.000000
20
49843.000000
30
0.000000
0
VERTEX
8
tyPoly
10
167415.000000
20
45670.000000
30
0.000000
0
VERTEX
8
tyPoly
10
160359.000000
20
43737.000000
30
0.000000
0
VERTEX
8
tyPoly
10
156353.000000
20
40685.000000
30
0.000000
0
VERTEX
8
tyPoly
10
153630.000000
20
36351.000000
30
0.000000
0
VERTEX
8
tyPoly
10
150580.000000
20
39075.000000
30
0.000000
0
VERTEX
8
tyPoly
10
146568.000000
20
40594.000000
30
0.000000
0
VERTEX
8
tyPoly
10
137349.000000
20
36093.000000
30
0.000000
0
VERTEX
8
tyPoly
10
134786.000000
20
33042.000000
30
0.000000
0
VERTEX
8
tyPoly
10
134390.000000
20
28470.000000
30
0.000000
0
VERTEX
8
tyPoly
10
134954.000000
20
26145.000000
30
0.000000
0
VERTEX
8
tyPoly
10
133674.000000
20
23256.000000
30
0.000000
0
VERTEX
8
tyPoly
10
133757.000000
20
20369.000000
30
0.000000
0
VERTEX
8
tyPoly
10
139209.000000
20
21899.000000
30
0.000000
0
VERTEX
8
tyPoly
10
144020.000000
20
23668.000000
30
0.000000
0
VERTEX
8
tyPoly
10
144980.000000
20
25835.000000
30
0.000000
0
VERTEX
8
tyPoly
10
147140.000000
20
30409.000000
30
0.000000
0
VERTEX
8
tyPoly
10
150350.000000
20
29209.000000
30
0.000000
0
VERTEX
8
tyPoly
10
155324.000000
20
27210.000000
30
0.000000
0
VERTEX
8
tyPoly
10
158534.000000
20
25609.000000
30
0.000000
0
VERTEX
8
tyPoly
10
162390.000000
20
20240.000000
30
0.000000
0
VERTEX
8
tyPoly
10
165685.000000
20
14388.000000
30
0.000000
0
VERTEX
8
tyPoly
10
167133.000000
20
10139.000000
30
0.000000
0
VERTEX
8
tyPoly
10
168655.000000
20
11825.000000
30
0.000000
0
VERTEX
8
tyPoly
10
170738.000000
20
14233.000000
30
0.000000
0
VERTEX
8
tyPoly
10
176670.000000
20
16646.000000
30
0.000000
0
VERTEX
8
tyPoly
10
178268.000000
20
22422.000000
30
0.000000
0
VERTEX
8
tyPoly
10
174736.000000
20
25306.000000
30
0.000000
0
VERTEX
8
tyPoly
10
177459.000000
20
28517.000000
30
0.000000
0
VERTEX
8
tyPoly
10
181144.000000
20
33173.000000
30
0.000000
0
VERTEX
8
tyPoly
10
185954.000000
20
34621.000000
30
0.000000
0
VERTEX
8
tyPoly
10
190762.000000
20
38316.000000
30
0.000000
0
VERTEX
8
tyPoly
10
194452.000000
20
38320.000000
30
0.000000
0
VERTEX
8
tyPoly
10
199102.000000
20
39929.000000
30
0.000000
0
VERTEX
8
tyPoly
10
200060.000000
20
44261.000000
30
0.000000
0
VERTEX
8
tyPoly
10
201821.000000
20
47632.000000
30
0.000000
0
VERTEX
8
tyPoly
10
209277.000000
20
49645.000000
30
0.000000
0
VERTEX
8
tyPoly
10
211525.000000
20
47562.000000
30
0.000000
0
VERTEX
8
tyPoly
10
219063.000000
20
48613.000000
30
0.000000
0
VERTEX
8
tyPoly
10
232374.000000
20
51594.000000
30
0.000000
0
VERTEX
8
tyPoly
10
238955.000000
20
47752.000000
30
0.000000
0
VERTEX
8
tyPoly
10
243927.000000
20
47918.000000
30
0.000000
0
VERTEX
8
tyPoly
10
247616.000000
20
48082.000000
30
0.000000
0
VERTEX
8
tyPoly
10
246979.000000
20
43911.000000
30
0.000000
0
VERTEX
8
tyPoly
10
253556.000000
20
44239.000000
30
0.000000
0
VERTEX
8
tyPoly
10
257890.000000
20
41516.000000
30
0.000000
0
VERTEX
8
tyPoly
10
266402.000000
20
31901.000000
30
0.000000
0
VERTEX
8
tyPoly
10
278913.000000
20
31915.000000
30
0.000000
0
VERTEX
8
tyPoly
10
279708.000000
20
38492.000000
30
0.000000
0
VERTEX
8
tyPoly
10
281789.000000
20
42986.000000
30
0.000000
0
VERTEX
8
tyPoly
10
286756.000000
20
47803.000000
30
0.000000
0
VERTEX
8
tyPoly
10
290440.000000
20
52459.000000
30
0.000000
0
VERTEX
8
tyPoly
10
299582.000000
20
53752.000000
30
0.000000
0
VERTEX
8
tyPoly
10
298617.000000
20
56157.000000
30
0.000000
0
VERTEX
8
tyPoly
10
293646.000000
20
55190.000000
30
0.000000
0
VERTEX
8
tyPoly
10
290115.000000
20
56469.000000
30
0.000000
0
VERTEX
8
tyPoly
10
289947.000000
20
63366.000000
30
0.000000
0
VERTEX
8
tyPoly
10
293953.000000
20
68022.000000
30
0.000000
0
VERTEX
8
tyPoly
10
310464.000000
20
78306.000000
30
0.000000
0
VERTEX
8
tyPoly
10
329065.000000
20
83459.000000
30
0.000000
0
VERTEX
8
tyPoly
10
343823.000000
20
83475.000000
30
0.000000
0
VERTEX
8
tyPoly
10
364051.000000
20
67617.000000
30
0.000000
0
VERTEX
8
tyPoly
10
366611.000000
20
73715.000000
30
0.000000
0
VERTEX
8
tyPoly
10
371583.000000
20
74202.000000
30
0.000000
0
VERTEX
8
tyPoly
10
386826.000000
20
70529.000000
30
0.000000
0
VERTEX
8
tyPoly
10
398699.000000
20
68135.000000
30
0.000000
0
VERTEX
8
tyPoly
10
402864.000000
20
72631.000000
30
0.000000
0
VERTEX
8
tyPoly
10
404621.000000
20
80172.000000
30
0.000000
0
VERTEX
8
tyPoly
10
402052.000000
20
82415.000000
30
0.000000
0
VERTEX
8
tyPoly
10
399649.000000
20
79044.000000
30
0.000000
0
VERTEX
8
tyPoly
10
393552.000000
20
81123.000000
30
0.000000
0
VERTEX
8
tyPoly
10
394027.000000
20
86898.000000
30
0.000000
0
VERTEX
8
tyPoly
10
398678.000000
20
87384.000000
30
0.000000
0
VERTEX
8
tyPoly
10
408626.000000
20
84508.000000
30
0.000000
0
VERTEX
8
tyPoly
10
412960.000000
20
82106.000000
30
0.000000
0
VERTEX
8
tyPoly
10
414722.000000
20
84354.000000
30
0.000000
0
VERTEX
8
tyPoly
10
412472.000000
20
87880.000000
30
0.000000
0
VERTEX
8
tyPoly
10
417447.000000
20
85800.000000
30
0.000000
0
VERTEX
8
tyPoly
10
425472.000000
20
81639.000000
30
0.000000
0
VERTEX
8
tyPoly
10
428838.000000
20
84529.000000
30
0.000000
0
VERTEX
8
tyPoly
10
430759.000000
20
87419.000000
30
0.000000
0
VERTEX
8
tyPoly
10
437816.000000
20
88229.000000
30
0.000000
0
VERTEX
8
tyPoly
10
442949.000000
20
88555.000000
30
0.000000
0
VERTEX
8
tyPoly
10
443987.000000
20
92486.000000
30
0.000000
0
VERTEX
8
tyPoly
10
440774.000000
20
97375.000000
30
0.000000
0
VERTEX
8
tyPoly
10
438603.000000
20
102746.000000
30
0.000000
0
VERTEX
8
tyPoly
10
434029.000000
20
104345.000000
30
0.000000
0
VERTEX
8
tyPoly
10
434829.000000
20
106432.000000
30
0.000000
0
VERTEX
8
tyPoly
10
439721.000000
20
107078.000000
30
0.000000
0
VERTEX
8
tyPoly
10
442531.000000
20
104756.000000
30
0.000000
0
VERTEX
8
tyPoly
10
443898.000000
20
100747.000000
30
0.000000
0
VERTEX
8
tyPoly
10
444783.000000
20
98262.000000
30
0.000000
0
VERTEX
8
tyPoly
10
446473.000000
20
93050.000000
30
0.000000
0
VERTEX
8
tyPoly
10
453374.000000
20
90411.000000
30
0.000000
0
VERTEX
8
tyPoly
10
458106.000000
20
89694.000000
30
0.000000
0
VERTEX
8
tyPoly
10
459065.000000
20
93064.000000
30
0.000000
0
VERTEX
8
tyPoly
10
458981.000000
20
96272.000000
30
0.000000
0
VERTEX
8
tyPoly
10
461227.000000
20
96354.000000
30
0.000000
0
VERTEX
8
tyPoly
10
464837.000000
20
95957.000000
30
0.000000
0
VERTEX
8
tyPoly
10
464999.000000
20
94033.000000
30
0.000000
0
VERTEX
8
tyPoly
10
463077.000000
20
91544.000000
30
0.000000
0
VERTEX
8
tyPoly
10
465646.000000
20
89301.000000
30
0.000000
0
VERTEX
8
tyPoly
10
466847.000000
20
91067.000000
30
0.000000
0
VERTEX
8
tyPoly
10
468288.000000
20
93154.000000
30
0.000000
0
VERTEX
8
tyPoly
10
474468.000000
20
89471.000000
30
0.000000
0
VERTEX
8
tyPoly
10
478723.000000
20
85466.000000
30
0.000000
0
VERTEX
8
tyPoly
10
483936.000000
20
85632.000000
30
0.000000
0
VERTEX
8
tyPoly
10
489146.000000
20
88926.000000
30
0.000000
0
VERTEX
8
tyPoly
10
496685.000000
20
89174.000000
30
0.000000
0
VERTEX
8
tyPoly
10
505988.000000
20
90067.000000
30
0.000000
0
VERTEX
8
tyPoly
10
522266.000000
20
92570.000000
30
0.000000
0
VERTEX
8
tyPoly
10
521703.000000
20
94415.000000
30
0.000000
0
VERTEX
8
tyPoly
10
520096.000000
20
97059.000000
30
0.000000
0
VERTEX
8
tyPoly
10
525387.000000
20
98990.000000
30
0.000000
0
VERTEX
8
tyPoly
10
529879.000000
20
98594.000000
30
0.000000
0
VERTEX
8
tyPoly
10
531243.000000
20
98355.000000
30
0.000000
0
VERTEX
8
tyPoly
10
532689.000000
20
95950.000000
30
0.000000
0
VERTEX
8
tyPoly
10
533735.000000
20
92743.000000
30
0.000000
0
VERTEX
8
tyPoly
10
539273.000000
20
89140.000000
30
0.000000
0
VERTEX
8
tyPoly
10
546978.000000
20
84256.000000
30
0.000000
0
VERTEX
8
tyPoly
10
552753.000000
20
83701.000000
30
0.000000
0
VERTEX
8
tyPoly
10
555403.000000
20
81217.000000
30
0.000000
0
VERTEX
8
tyPoly
10
559166.000000
20
86755.000000
30
0.000000
0
VERTEX
8
tyPoly
10
566461.000000
20
90292.000000
30
0.000000
0
VERTEX
8
tyPoly
10
572472.000000
20
93747.000000
30
0.000000
0
VERTEX
8
tyPoly
10
579129.000000
20
93915.000000
30
0.000000
0
VERTEX
8
tyPoly
10
586824.000000
20
98335.000000
30
0.000000
0
VERTEX
8
tyPoly
10
594439.000000
20
102754.000000
30
0.000000
0
VERTEX
8
tyPoly
10
598447.000000
20
104683.000000
30
0.000000
0
VERTEX
8
tyPoly
10
602782.000000
20
100357.000000
30
0.000000
0
VERTEX
8
tyPoly
10
608798.000000
20
100283.000000
30
0.000000
0
VERTEX
8
tyPoly
10
609036.000000
20
102288.000000
30
0.000000
0
VERTEX
8
tyPoly
10
608871.000000
20
106298.000000
30
0.000000
0
VERTEX
8
tyPoly
10
608466.000000
20
110549.000000
30
0.000000
0
VERTEX
8
tyPoly
10
610626.000000
20
115444.000000
30
0.000000
0
VERTEX
8
tyPoly
10
615434.000000
20
119138.000000
30
0.000000
0
VERTEX
8
tyPoly
10
631791.000000
20
123407.000000
30
0.000000
0
VERTEX
8
tyPoly
10
637642.000000
20
127664.000000
30
0.000000
0
VERTEX
8
tyPoly
10
638999.000000
20
133039.000000
30
0.000000
0
VERTEX
8
tyPoly
10
635053.000000
20
147712.000000
30
0.000000
0
VERTEX
8
tyPoly
10
639223.000000
20
149000.000000
30
0.000000
0
VERTEX
8
tyPoly
10
640824.000000
20
151728.000000
30
0.000000
0
VERTEX
8
tyPoly
10
639377.000000
20
154774.000000
30
0.000000
0
VERTEX
8
tyPoly
10
608744.000000
20
150090.000000
30
0.000000
0
VERTEX
8
tyPoly
10
606175.000000
20
152332.000000
30
0.000000
0
VERTEX
8
tyPoly
10
601195.000000
20
159545.000000
30
0.000000
0
VERTEX
8
tyPoly
10
588839.000000
20
163061.000000
30
0.000000
0
VERTEX
8
tyPoly
10
580652.000000
20
169148.000000
30
0.000000
0
VERTEX
8
tyPoly
10
580808.000000
20
173158.000000
30
0.000000
0
VERTEX
8
tyPoly
10
589311.000000
20
171724.000000
30
0.000000
0
VERTEX
8
tyPoly
10
595724.000000
20
175420.000000
30
0.000000
0
VERTEX
8
tyPoly
10
600853.000000
20
178954.000000
30
0.000000
0
VERTEX
8
tyPoly
10
603173.000000
20
184250.000000
30
0.000000
0
VERTEX
8
tyPoly
10
603407.000000
20
190426.000000
30
0.000000
0
VERTEX
8
tyPoly
10
599070.000000
20
196276.000000
30
0.000000
0
VERTEX
8
tyPoly
10
607647.000000
20
200617.000000
30
0.000000
0
VERTEX
8
tyPoly
10
611821.000000
20
197654.000000
30
0.000000
0
VERTEX
8
tyPoly
10
615269.000000
20
197818.000000
30
0.000000
0
VERTEX
8
tyPoly
10
622001.000000
20
202316.000000
30
0.000000
0
VERTEX
8
tyPoly
10
626485.000000
20
209620.000000
30
0.000000
0
VERTEX
8
tyPoly
10
623756.000000
20
211141.000000
30
0.000000
0
VERTEX
8
tyPoly
10
625756.000000
20
216597.000000
30
0.000000
0
VERTEX
8
tyPoly
10
630486.000000
20
217725.000000
30
0.000000
0
VERTEX
8
tyPoly
10
632646.000000
20
223502.000000
30
0.000000
0
VERTEX
8
tyPoly
10
640339.000000
20
229605.000000
30
0.000000
0
VERTEX
8
tyPoly
10
648354.000000
20
234426.000000
30
0.000000
0
VERTEX
8
tyPoly
10
648661.000000
20
246938.000000
30
0.000000
0
VERTEX
8
tyPoly
10
650254.000000
20
257206.000000
30
0.000000
0
VERTEX
8
tyPoly
10
656013.000000
20
271569.000000
30
0.000000
0
VERTEX
8
tyPoly
10
657203.000000
20
284082.000000
30
0.000000
0
VERTEX
8
tyPoly
10
653974.000000
20
303007.000000
30
0.000000
0
VERTEX
8
tyPoly
10
636954.000000
20
319029.000000
30
0.000000
0
VERTEX
8
tyPoly
10
621222.000000
20
330561.000000
30
0.000000
0
VERTEX
8
tyPoly
10
580477.000000
20
331480.000000
30
0.000000
0
VERTEX
8
tyPoly
10
570213.000000
20
329865.000000
30
0.000000
0
VERTEX
8
tyPoly
10
565088.000000
20
322160.000000
30
0.000000
0
VERTEX
8
tyPoly
10
563489.000000
20
317025.000000
30
0.000000
0
VERTEX
8
tyPoly
10
560765.000000
20
314856.000000
30
0.000000
0
VERTEX
8
tyPoly
10
560370.000000
20
309322.000000
30
0.000000
0
VERTEX
8
tyPoly
10
559567.000000
20
310284.000000
30
0.000000
0
VERTEX
8
tyPoly
10
556196.000000
20
312766.000000
30
0.000000
0
VERTEX
8
tyPoly
10
553227.000000
20
313485.000000
30
0.000000
0
VERTEX
8
tyPoly
10
549698.000000
20
313401.000000
30
0.000000
0
VERTEX
8
tyPoly
10
547850.000000
20
316527.000000
30
0.000000
0
VERTEX
8
tyPoly
10
545361.000000
20
319091.000000
30
0.000000
0
VERTEX
8
tyPoly
10
541108.000000
20
321412.000000
30
0.000000
0
VERTEX
8
tyPoly
10
537498.000000
20
322531.000000
30
0.000000
0
VERTEX
8
tyPoly
10
538777.000000
20
325660.000000
30
0.000000
0
VERTEX
8
tyPoly
10
540618.000000
20
329432.000000
30
0.000000
0
VERTEX
8
tyPoly
10
548309.000000
20
337059.000000
30
0.000000
0
VERTEX
8
tyPoly
10
556162.000000
20
343965.000000
30
0.000000
0
VERTEX
8
tyPoly
10
557757.000000
20
351827.000000
30
0.000000
0
VERTEX
8
tyPoly
10
556305.000000
20
359846.000000
30
0.000000
0
VERTEX
8
tyPoly
10
544406.000000
20
386942.000000
30
0.000000
0
VERTEX
8
tyPoly
10
539430.000000
20
390145.000000
30
0.000000
0
VERTEX
8
tyPoly
10
527232.000000
20
396387.000000
30
0.000000
0
VERTEX
8
tyPoly
10
516795.000000
20
405840.000000
30
0.000000
0
VERTEX
8
tyPoly
10
512298.000000
20
411289.000000
30
0.000000
0
VERTEX
8
tyPoly
10
505401.000000
20
410640.000000
30
0.000000
0
VERTEX
8
tyPoly
10
500590.000000
20
409512.000000
30
0.000000
0
VERTEX
8
tyPoly
10
496582.000000
20
407743.000000
30
0.000000
0
VERTEX
8
tyPoly
10
492248.000000
20
410626.000000
30
0.000000
0
VERTEX
8
tyPoly
10
488238.000000
20
410622.000000
30
0.000000
0
VERTEX
8
tyPoly
10
484549.000000
20
410297.000000
30
0.000000
0
VERTEX
8
tyPoly
10
486791.000000
20
413347.000000
30
0.000000
0
VERTEX
8
tyPoly
10
489678.000000
20
413992.000000
30
0.000000
0
VERTEX
8
tyPoly
10
492405.000000
20
413193.000000
30
0.000000
0
VERTEX
8
tyPoly
10
496417.000000
20
412074.000000
30
0.000000
0
VERTEX
8
tyPoly
10
499946.000000
20
412238.000000
30
0.000000
0
VERTEX
8
tyPoly
10
504436.000000
20
413366.000000
30
0.000000
0
VERTEX
8
tyPoly
10
509245.000000
20
415777.000000
30
0.000000
0
VERTEX
8
tyPoly
10
513738.000000
20
414339.000000
30
0.000000
0
VERTEX
8
tyPoly
10
521284.000000
20
408572.000000
30
0.000000
0
VERTEX
8
tyPoly
10
526262.000000
20
403765.000000
30
0.000000
0
VERTEX
8
tyPoly
10
528828.000000
20
404249.000000
30
0.000000
0
VERTEX
8
tyPoly
10
533799.000000
20
405217.000000
30
0.000000
0
VERTEX
8
tyPoly
10
536367.000000
20
403776.000000
30
0.000000
0
VERTEX
8
tyPoly
10
542145.000000
20
400735.000000
30
0.000000
0
VERTEX
8
tyPoly
10
541019.000000
20
403781.000000
30
0.000000
0
VERTEX
8
tyPoly
10
539890.000000
20
409234.000000
30
0.000000
0
VERTEX
8
tyPoly
10
527363.000000
20
423176.000000
30
0.000000
0
VERTEX
8
tyPoly
10
520289.000000
20
438246.000000
30
0.000000
0
VERTEX
8
tyPoly
10
516590.000000
20
447386.000000
30
0.000000
0
VERTEX
8
tyPoly
10
518348.000000
20
453483.000000
30
0.000000
0
VERTEX
8
tyPoly
10
525079.000000
20
459104.000000
30
0.000000
0
VERTEX
8
tyPoly
10
512722.000000
20
464545.000000
30
0.000000
0
VERTEX
8
tyPoly
10
511434.000000
20
469035.000000
30
0.000000
0
VERTEX
8
tyPoly
10
505656.000000
20
471595.000000
30
0.000000
0
VERTEX
8
tyPoly
10
499705.000000
20
486988.000000
30
0.000000
0
VERTEX
8
tyPoly
10
491513.000000
20
497406.000000
30
0.000000
0
VERTEX
8
tyPoly
10
474660.000000
20
506852.000000
30
0.000000
0
VERTEX
8
tyPoly
10
455082.000000
20
514049.000000
30
0.000000
0
VERTEX
8
tyPoly
10
455079.000000
20
516776.000000
30
0.000000
0
VERTEX
8
tyPoly
10
452026.000000
20
521585.000000
30
0.000000
0
VERTEX
8
tyPoly
10
445445.000000
20
525748.000000
30
0.000000
0
VERTEX
8
tyPoly
10
441747.000000
20
533444.000000
30
0.000000
0
VERTEX
8
tyPoly
10
434177.000000
20
562790.000000
30
0.000000
0
VERTEX
8
tyPoly
10
429351.000000
20
575297.000000
30
0.000000
0
VERTEX
8
tyPoly
10
423235.000000
20
594218.000000
30
0.000000
0
VERTEX
8
tyPoly
10
423867.000000
20
603522.000000
30
0.000000
0
VERTEX
8
tyPoly
10
421283.000000
20
619560.000000
30
0.000000
0
VERTEX
8
tyPoly
10
409961.000000
20
631178.000000
30
0.000000
0
SEQEND
0
POLYLINE
8
EireNI
70
1
66
1
62
3
0
VERTEX
8
tyMapData
10
146506.893623
20
528824.387063
30
0.000000
0
VERTEX
8
tyMapData
10
152446.061984
20
539842.677503
30
0.000000
0
VERTEX
8
tyMapData
10
161310.209118
20
546444.192928
30
0.000000
0
VERTEX
8
tyMapData
10
156936.250927
20
557267.504388
30
0.000000
0
VERTEX
8
tyMapData
10
147450.410688
20
570817.732776
30
0.000000
0
VERTEX
8
tyMapData
10
142085.404377
20
581660.849635
30
0.000000
0
VERTEX
8
tyMapData
10
137552.155051
20
600135.927259
30
0.000000
0
VERTEX
8
tyMapData
10
125465.145603
20
602958.788788
30
0.000000
0
VERTEX
8
tyMapData
10
112118.277056
20
602400.290437
30
0.000000
0
VERTEX
8
tyMapData
10
102486.578136
20
599881.952186
30
0.000000
0
VERTEX
8
tyMapData
10
93721.717777
20
594868.636262
30
0.000000
0
VERTEX
8
tyMapData
10
85953.443998
20
599260.148697
30
0.000000
0
VERTEX
8
tyMapData
10
85582.805754
20
594030.187621
30
0.000000
0
VERTEX
8
tyMapData
10
75250.102463
20
582471.620924
30
0.000000
0
VERTEX
8
tyMapData
10
69744.279259
20
584278.184550
30
0.000000
0
VERTEX
8
tyMapData
10
65477.353465
20
588459.680084
30
0.000000
0
VERTEX
8
tyMapData
10
79292.547786
20
599381.526449
30
0.000000
0
VERTEX
8
tyMapData
10
72809.403751
20
611398.237102
30
0.000000
0
VERTEX
8
tyMapData
10
68877.518623
20
618498.716258
30
0.000000
0
VERTEX
8
tyMapData
10
61359.971932
20
623076.227581
30
0.000000
0
VERTEX
8
tyMapData
10
59889.207534
20
619873.850556
30
0.000000
0
VERTEX
8
tyMapData
10
61749.545501
20
614493.966932
30
0.000000
0
VERTEX
8
tyMapData
10
67658.530471
20
611603.834322
30
0.000000
0
VERTEX
8
tyMapData
10
62581.275350
20
611634.786446
30
0.000000
0
VERTEX
8
tyMapData
10
60196.409371
20
614786.629741
30
0.000000
0
VERTEX
8
tyMapData
10
56955.448809
20
613636.577026
30
0.000000
0
VERTEX
8
tyMapData
10
55146.535013
20
612901.912942
30
0.000000
0
VERTEX
8
tyMapData
10
50522.846825
20
612037.090414
30
0.000000
0
VERTEX
8
tyMapData
10
48770.041820
20
607625.406151
30
0.000000
0
VERTEX
8
tyMapData
10
49213.963078
20
602159.526535
30
0.000000
0
VERTEX
8
tyMapData
10
50694.782379
20
596432.128396
30
0.000000
0
VERTEX
8
tyMapData
10
51140.590668
20
588668.741166
30
0.000000
0
VERTEX
8
tyMapData
10
47481.647771
20
584732.190883
30
0.000000
0
VERTEX
8
tyMapData
10
41451.523730
20
579924.207891
30
0.000000
0
VERTEX
8
tyMapData
10
35930.943917
20
577192.222919
30
0.000000
0
VERTEX
8
tyMapData
10
39779.518143
20
587628.050308
30
0.000000
0
VERTEX
8
tyMapData
10
45613.455715
20
592263.723445
30
0.000000
0
VERTEX
8
tyMapData
10
45876.831130
20
599966.952631
30
0.000000
0
VERTEX
8
tyMapData
10
42884.498263
20
608615.834653
30
0.000000
0
VERTEX
8
tyMapData
10
41522.786122
20
613449.609971
30
0.000000
0
VERTEX
8
tyMapData
10
36432.480348
20
611236.089542
30
0.000000
0
VERTEX
8
tyMapData
10
32876.524216
20
608549.597874
30
0.000000
0
VERTEX
8
tyMapData
10
34026.332568
20
605476.774226
30
0.000000
0
VERTEX
8
tyMapData
10
38131.548433
20
601987.836796
30
0.000000
0
VERTEX
8
tyMapData
10
36309.067351
20
594763.025305
30
0.000000
0
VERTEX
8
tyMapData
10
33606.799348
20
602530.422126
30
0.000000
0
VERTEX
8
tyMapData
10
30479.076822
20
602962.267961
30
0.000000
0
VERTEX
8
tyMapData
10
26424.205144
20
606981.345487
30
0.000000
0
VERTEX
8
tyMapData
10
28369.737540
20
602960.962941
30
0.000000
0
VERTEX
8
tyMapData
10
25921.885211
20
598952.071616
30
0.000000
0
VERTEX
8
tyMapData
10
20282.747979
20
603988.896217
30
0.000000
0
VERTEX
8
tyMapData
10
9473.126604
20
601053.599013
30
0.000000
0
VERTEX
8
tyMapData
10
-2752.136190
20
598264.929305
30
0.000000
0
VERTEX
8
tyMapData
10
-7207.630108
20
588100.021448
30
0.000000
0
VERTEX
8
tyMapData
10
-12696.599154
20
582245.808525
30
0.000000
0
VERTEX
8
tyMapData
10
-9511.280348
20
574535.412856
30
0.000000
0
VERTEX
8
tyMapData
10
-7817.843938
20
565887.077263
30
0.000000
0
VERTEX
8
tyMapData
10
-13744.174583
20
563231.222153
30
0.000000
0
VERTEX
8
tyMapData
10
-28056.583099
20
558517.098777
30
0.000000
0
VERTEX
8
tyMapData
10
-37630.033337
20
551599.284418
30
0.000000
0
VERTEX
8
tyMapData
10
-26267.365574
20
547324.536721
30
0.000000
0
VERTEX
8
tyMapData
10
-2307.745917
20
544092.639726
30
0.000000
0
VERTEX
8
tyMapData
10
450.870454
20
534946.416474
30
0.000000
0
VERTEX
8
tyMapData
10
-8536.882458
20
530383.038194
30
0.000000
0
VERTEX
8
tyMapData
10
-18418.215636
20
524120.607982
30
0.000000
0
VERTEX
8
tyMapData
10
-29295.764295
20
519030.952657
30
0.000000
0
VERTEX
8
tyMapData
10
-29642.726094
20
511532.927540
30
0.000000
0
VERTEX
8
tyMapData
10
-25770.067914
20
502916.433488
30
0.000000
0
VERTEX
8
tyMapData
10
-30647.823854
20
500847.157004
30
0.000000
0
VERTEX
8
tyMapData
10
-38813.558921
20
505924.280200
30
0.000000
0
VERTEX
8
tyMapData
10
-50095.995745
20
508439.411876
30
0.000000
0
VERTEX
8
tyMapData
10
-59301.439904
20
510057.727216
30
0.000000
0
VERTEX
8
tyMapData
10
-67090.474288
20
504354.645604
30
0.000000
0
VERTEX
8
tyMapData
10
-81716.293655
20
516279.475738
30
0.000000
0
VERTEX
8
tyMapData
10
-101312.602741
20
518350.373708
30
0.000000
0
VERTEX
8
tyMapData
10
-111922.872866
20
516985.646902
30
0.000000
0
VERTEX
8
tyMapData
10
-114069.560757
20
510735.184130
30
0.000000
0
VERTEX
8
tyMapData
10
-122296.493116
20
505150.265873
30
0.000000
0
VERTEX
8
tyMapData
10
-119708.989872
20
486405.012872
30
0.000000
0
VERTEX
8
tyMapData
10
-113688.011992
20
475219.608938
30
0.000000
0
VERTEX
8
tyMapData
10
-106730.063447
20
472288.384154
30
0.000000
0
VERTEX
8
tyMapData
10
-96961.259010
20
468344.434434
30
0.000000
0
VERTEX
8
tyMapData
10
-100618.189857
20
461453.874092
30
0.000000
0
VERTEX
8
tyMapData
10
-110791.769554
20
458530.504457
30
0.000000
0
VERTEX
8
tyMapData
10
-116085.063024
20
456914.469415
30
0.000000
0
VERTEX
8
tyMapData
10
-121346.187880
20
449090.302737
30
0.000000
0
VERTEX
8
tyMapData
10
-120261.558208
20
442389.637994
30
0.000000
0
VERTEX
8
tyMapData
10
-127311.977187
20
438401.405064
30
0.000000
0
VERTEX
8
tyMapData
10
-134201.175621
20
439164.919853
30
0.000000
0
VERTEX
8
tyMapData
10
-138337.472805
20
431924.830411
30
0.000000
0
VERTEX
8
tyMapData
10
-136466.815858
20
422529.729591
30
0.000000
0
VERTEX
8
tyMapData
10
-128950.577680
20
417284.437061
30
0.000000
0
VERTEX
8
tyMapData
10
-118226.824987
20
417591.388324
30
0.000000
0
VERTEX
8
tyMapData
10
-122470.155609
20
409214.401294
30
0.000000
0
VERTEX
8
tyMapData
10
-123927.844191
20
406054.604703
30
0.000000
0
VERTEX
8
tyMapData
10
-118126.005001
20
405061.420406
30
0.000000
0
VERTEX
8
tyMapData
10
-105087.282926
20
409575.836193
30
0.000000
0
VERTEX
8
tyMapData
10
-110890.050271
20
400236.137542
30
0.000000
0
VERTEX
8
tyMapData
10
-105679.853324
20
397107.319396
30
0.000000
0
VERTEX
8
tyMapData
10
-92689.659015
20
397614.085186
30
0.000000
0
VERTEX
8
tyMapData
10
-65121.847614
20
396361.708765
30
0.000000
0
VERTEX
8
tyMapData
10
-62033.860738
20
390170.939448
30
0.000000
0
VERTEX
8
tyMapData
10
-70154.302663
20
386524.218304
30
0.000000
0
VERTEX
8
tyMapData
10
-75612.169972
20
383732.142430
30
0.000000
0
VERTEX
8
tyMapData
10
-84043.960491
20
384563.941740
30
0.000000
0
VERTEX
8
tyMapData
10
-90398.568087
20
380393.300204
30
0.000000
0
VERTEX
8
tyMapData
10
-102480.769951
20
364198.397060
30
0.000000
0
VERTEX
8
tyMapData
10
-93387.925465
20
362161.074179
30
0.000000
0
VERTEX
8
tyMapData
10
-101383.728295
20
353304.117962
30
0.000000
0
VERTEX
8
tyMapData
10
-105864.814912
20
342582.694375
30
0.000000
0
VERTEX
8
tyMapData
10
-119392.772140
20
335019.623444
30
0.000000
0
VERTEX
8
tyMapData
10
-134161.629735
20
326852.018646
30
0.000000
0
VERTEX
8
tyMapData
10
-121047.958061
20
326585.249790
30
0.000000
0
VERTEX
8
tyMapData
10
-94167.072263
20
325336.740166
30
0.000000
0
VERTEX
8
tyMapData
10
-74184.672737
20
334219.217338
30
0.000000
0
VERTEX
8
tyMapData
10
-65551.390715
20
342341.892324
30
0.000000
0
VERTEX
8
tyMapData
10
-63229.856433
20
335417.591819
30
0.000000
0
VERTEX
8
tyMapData
10
-55430.960253
20
330964.107820
30
0.000000
0
VERTEX
8
tyMapData
10
-50957.145600
20
326823.575307
30
0.000000
0
VERTEX
8
tyMapData
10
-67168.218582
20
329446.453988
30
0.000000
0
VERTEX
8
tyMapData
10
-76836.754785
20
326258.840499
30
0.000000
0
VERTEX
8
tyMapData
10
-86260.283785
20
321937.271261
30
0.000000
0
VERTEX
8
tyMapData
10
-96552.843526
20
320333.746546
30
0.000000
0
VERTEX
8
tyMapData
10
-104611.765122
20
322268.268753
30
0.000000
0
VERTEX
8
tyMapData
10
-114954.849940
20
320329.637145
30
0.000000
0
VERTEX
8
tyMapData
10
-122786.154727
20
317393.597426
30
0.000000
0
VERTEX
8
tyMapData
10
-136323.859150
20
307177.089592
30
0.000000
0
VERTEX
8
tyMapData
10
-137263.310557
20
298614.057288
30
0.000000
0
VERTEX
8
tyMapData
10
-132773.167431
20
294742.332425
30
0.000000
0
VERTEX
8
tyMapData
10
-127528.246098
20
290794.312322
30
0.000000
0
VERTEX
8
tyMapData
10
-138910.649546
20
290489.160346
30
0.000000
0
VERTEX
8
tyMapData
10
-151295.501546
20
291450.844945
30
0.000000
0
VERTEX
8
tyMapData
10
-152119.612094
20
297583.031305
30
0.000000
0
VERTEX
8
tyMapData
10
-163668.885573
20
295842.851759
30
0.000000
0
VERTEX
8
tyMapData
10
-176747.290929
20
290892.336648
30
0.000000
0
VERTEX
8
tyMapData
10
-177887.335660
20
281173.197819
30
0.000000
0
VERTEX
8
tyMapData
10
-167015.797616
20
284870.091024
30
0.000000
0
VERTEX
8
tyMapData
10
-143779.864952
20
275502.941778
30
0.000000
0
VERTEX
8
tyMapData
10
-146521.963550
20
264419.046693
30
0.000000
0
VERTEX
8
tyMapData
10
-171218.392245
20
254955.436989
30
0.000000
0
VERTEX
8
tyMapData
10
-173357.719454
20
242989.013261
30
0.000000
0
VERTEX
8
tyMapData
10
-155808.033060
20
242584.158798
30
0.000000
0
VERTEX
8
tyMapData
10
-127567.478642
20
249499.095207
30
0.000000
0
VERTEX
8
tyMapData
10
-143026.404388
20
233581.593583
30
0.000000
0
VERTEX
8
tyMapData
10
-161111.703535
20
222514.872830
30
0.000000
0
VERTEX
8
tyMapData
10
-147190.728351
20
216423.556819
30
0.000000
0
VERTEX
8
tyMapData
10
-127170.009706
20
224290.297784
30
0.000000
0
VERTEX
8
tyMapData
10
-117548.784810
20
221020.732289
30
0.000000
0
VERTEX
8
tyMapData
10
-134762.308180
20
210523.520766
30
0.000000
0
VERTEX
8
tyMapData
10
-122466.229416
20
203131.478241
30
0.000000
0
VERTEX
8
tyMapData
10
-70464.393947
20
208861.693142
30
0.000000
0
VERTEX
8
tyMapData
10
-37293.928033
20
220432.484310
30
0.000000
0
VERTEX
8
tyMapData
10
-8528.116994
20
236291.639611
30
0.000000
0
VERTEX
8
tyMapData
10
19984.933462
20
251482.238519
30
0.000000
0
VERTEX
8
tyMapData
10
68518.744964
20
264634.000514
30
0.000000
0
VERTEX
8
tyMapData
10
93510.646968
20
278802.615477
30
0.000000
0
VERTEX
8
tyMapData
10
117547.315863
20
305013.022217
30
0.000000
0
VERTEX
8
tyMapData
10
127522.768705
20
336364.276551
30
0.000000
0
VERTEX
8
tyMapData
10
124860.876279
20
367485.566912
30
0.000000
0
VERTEX
8
tyMapData
10
116064.699233
20
392926.222690
30
0.000000
0
VERTEX
8
tyMapData
10
128757.038700
20
409709.671370
30
0.000000
0
VERTEX
8
tyMapData
10
120798.148897
20
423267.569373
30
0.000000
0
VERTEX
8
tyMapData
10
116878.994964
20
454648.098473
30
0.000000
0
VERTEX
8
tyMapData
10
123247.717432
20
464364.103472
30
0.000000
0
VERTEX
8
tyMapData
10
128239.550073
20
475582.261340
30
0.000000
0
VERTEX
8
tyMapData
10
150953.465173
20
482924.470789
30
0.000000
0
VERTEX
8
tyMapData
10
164252.967778
20
490107.964714
30
0.000000
0
VERTEX
8
tyMapData
10
173005.501789
20
507521.784329
30
0.000000
0
VERTEX
8
tyMapData
10
160478.590082
20
527362.054313
30
0.000000
0
SEQEND
0
LINE
8
Equator
62
7
10
17953236.635163
20
-5527063.652264
30
0
11
-15579653.584485
21
-5527063.652264
31
0
0
LINE
8
Lattitudes
62
8
10
399999.699705
20
-15524202.096049
30
0
11
399999.706721
21
-15524202.008261
31
0
0
LINE
8
Lattitudes
62
8
10
399999.706721
20
-15524202.008261
30
0
11
399999.722284
21
-15524201.932049
31
0
0
LINE
8
Lattitudes
62
8
10
399999.722284
20
-15524201.932049
30
0
11
399999.746100
21
-15524201.867232
31
0
0
LINE
8
Lattitudes
62
8
10
399999.746100
20
-15524201.867232
30
0
11
399999.777546
21
-15524201.813574
31
0
0
LINE
8
Lattitudes
62
8
10
399999.777546
20
-15524201.813574
30
0
11
399999.815718
21
-15524201.770792
31
0
0
LINE
8
Lattitudes
62
8
10
399999.815718
20
-15524201.770792
30
0
11
399999.859478
21
-15524201.738562
31
0
0
LINE
8
Lattitudes
62
8
10
399999.859478
20
-15524201.738562
30
0
11
399999.907506
21
-15524201.716533
31
0
0
LINE
8
Lattitudes
62
8
10
399999.907506
20
-15524201.716533
30
0
11
399999.958343
21
-15524201.704328
31
0
0
LINE
8
Lattitudes
62
8
10
399999.958343
20
-15524201.704328
30
0
11
400000.010446
21
-15524201.701558
31
0
0
LINE
8
Lattitudes
62
8
10
400000.010446
20
-15524201.701558
30
0
11
400000.062232
21
-15524201.707827
31
0
0
LINE
8
Lattitudes
62
8
10
400000.062232
20
-15524201.707827
30
0
11
400000.112127
21
-15524201.722739
31
0
0
LINE
8
Lattitudes
62
8
10
400000.112127
20
-15524201.722739
30
0
11
400000.158616
21
-15524201.745909
31
0
0
LINE
8
Lattitudes
62
8
10
400000.158616
20
-15524201.745909
30
0
11
400000.200290
21
-15524201.776971
31
0
0
LINE
8
Lattitudes
62
8
10
400000.200290
20
-15524201.776971
30
0
11
400000.235896
21
-15524201.815581
31
0
0
LINE
8
Lattitudes
62
8
10
400000.235896
20
-15524201.815581
30
0
11
400000.264384
21
-15524201.861434
31
0
0
LINE
8
Lattitudes
62
8
10
400000.264384
20
-15524201.861434
30
0
11
400000.284956
21
-15524201.914263
31
0
0
LINE
8
Lattitudes
62
8
10
400000.284956
20
-15524201.914263
30
0
11
400000.297115
21
-15524201.973853
31
0
0
LINE
8
Lattitudes
62
8
10
400000.297115
20
-15524201.973853
30
0
11
400000.300713
21
-15524202.040046
31
0
0
LINE
8
Lattitudes
62
8
10
-708677.282304
20
-15842294.564464
30
0
11
-691199.408083
21
-15520584.432183
31
0
0
LINE
8
Lattitudes
62
8
10
-691199.408083
20
-15520584.432183
30
0
11
-636444.303631
21
-15243126.595074
31
0
0
LINE
8
Lattitudes
62
8
10
-636444.303631
20
-15243126.595074
30
0
11
-547945.848415
21
-15008177.107132
31
0
0
LINE
8
Lattitudes
62
8
10
-547945.848415
20
-15008177.107132
30
0
11
-429749.669552
21
-14814132.570508
31
0
0
LINE
8
Lattitudes
62
8
10
-429749.669552
20
-14814132.570508
30
0
11
-286337.884801
21
-14659509.466668
31
0
0
LINE
8
Lattitudes
62
8
10
-286337.884801
20
-14659509.466668
30
0
11
-122553.845556
21
-14542923.487539
31
0
0
LINE
8
Lattitudes
62
8
10
-122553.845556
20
-14542923.487539
30
0
11
56473.120163
21
-14463068.866665
31
0
0
LINE
8
Lattitudes
62
8
10
56473.120163
20
-14463068.866665
30
0
11
245402.964712
21
-14418697.710364
31
0
0
LINE
8
Lattitudes
62
8
10
245402.964712
20
-14418697.710364
30
0
11
438760.177838
21
-14408599.328875
31
0
0
LINE
8
Lattitudes
62
8
10
438760.177838
20
-14408599.328875
30
0
11
631009.043680
21
-14431579.567516
31
0
0
LINE
8
Lattitudes
62
8
10
631009.043680
20
-14431579.567516
30
0
11
816628.897778
21
-14486440.137834
31
0
0
LINE
8
Lattitudes
62
8
10
816628.897778
20
-14486440.137834
30
0
11
990189.384083
21
-14571957.948762
31
0
0
LINE
8
Lattitudes
62
8
10
990189.384083
20
-14571957.948762
30
0
11
1146425.711959
21
-14686864.437770
31
0
0
LINE
8
Lattitudes
62
8
10
1146425.711959
20
-14686864.437770
30
0
11
1280313.913195
21
-14829824.902017
31
0
0
LINE
8
Lattitudes
62
8
10
1280313.913195
20
-14829824.902017
30
0
11
1387146.099011
21
-14999417.829507
31
0
0
LINE
8
Lattitudes
62
8
10
1387146.099011
20
-14999417.829507
30
0
11
1462605.717064
21
-15194114.230241
31
0
0
LINE
8
Lattitudes
62
8
10
1462605.717064
20
-15194114.230241
30
0
11
1502842.808456
21
-15412256.967370
31
0
0
LINE
8
Lattitudes
62
8
10
1502842.808456
20
-15412256.967370
30
0
11
1504549.264742
21
-15652040.088349
31
0
0
LINE
8
Lattitudes
62
8
10
-1789084.859405
20
-15915095.105575
30
0
11
-1786174.447845
21
-15319179.215968
31
0
0
LINE
8
Lattitudes
62
8
10
-1786174.447845
20
-15319179.215968
30
0
11
-1685117.402905
21
-14811552.792500
31
0
0
LINE
8
Lattitudes
62
8
10
-1685117.402905
20
-14811552.792500
30
0
11
-1504448.847679
21
-14384905.133953
31
0
0
LINE
8
Lattitudes
62
8
10
-1504448.847679
20
-14384905.133953
30
0
11
-1260257.786883
21
-14033576.300773
31
0
0
LINE
8
Lattitudes
62
8
10
-1260257.786883
20
-14033576.300773
30
0
11
-966546.830152
21
-13753314.355995
31
0
0
LINE
8
Lattitudes
62
8
10
-966546.830152
20
-13753314.355995
30
0
11
-635591.915327
21
-13541032.606182
31
0
0
LINE
8
Lattitudes
62
8
10
-635591.915327
20
-13541032.606182
30
0
11
-278302.031746
21
-13394566.842353
31
0
0
LINE
8
Lattitudes
62
8
10
-278302.031746
20
-13394566.842353
30
0
11
95421.056466
21
-13312432.580915
31
0
0
LINE
8
Lattitudes
62
8
10
95421.056466
20
-13312432.580915
30
0
11
476323.087107
21
-13293582.304600
31
0
0
LINE
8
Lattitudes
62
8
10
476323.087107
20
-13293582.304600
30
0
11
855437.576607
21
-13337162.703391
31
0
0
LINE
8
Lattitudes
62
8
10
855437.576607
20
-13337162.703391
30
0
11
1223726.096737
21
-13442271.915460
31
0
0
LINE
8
Lattitudes
62
8
10
1223726.096737
20
-13442271.915460
30
0
11
1571718.551321
21
-13607716.768095
31
0
0
LINE
8
Lattitudes
62
8
10
1571718.551321
20
-13607716.768095
30
0
11
1889153.452943
21
-13831770.018638
31
0
0
LINE
8
Lattitudes
62
8
10
1889153.452943
20
-13831770.018638
30
0
11
2164618.199660
21
-14111927.595412
31
0
0
LINE
8
Lattitudes
62
8
10
2164618.199660
20
-14111927.595412
30
0
11
2385189.351707
21
-14444665.838658
31
0
0
LINE
8
Lattitudes
62
8
10
2385189.351707
20
-14444665.838658
30
0
11
2536072.908212
21
-14825198.741464
31
0
0
LINE
8
Lattitudes
62
8
10
2536072.908212
20
-14825198.741464
30
0
11
2600244.583902
21
-15247235.190697
31
0
0
LINE
8
Lattitudes
62
8
10
2600244.583902
20
-15247235.190697
30
0
11
2558090.085815
21
-15702736.207939
31
0
0
LINE
8
Lattitudes
62
8
10
-2971157.430779
20
-15445121.107395
30
0
11
-2965567.653785
21
-14712630.200766
31
0
0
LINE
8
Lattitudes
62
8
10
-2965567.653785
20
-14712630.200766
30
0
11
-2789912.533615
21
-14088702.872620
31
0
0
LINE
8
Lattitudes
62
8
10
-2789912.533615
20
-14088702.872620
30
0
11
-2487547.177927
21
-13562194.389901
31
0
0
LINE
8
Lattitudes
62
8
10
-2487547.177927
20
-13562194.389901
30
0
11
-2092969.766218
21
-13125261.655027
31
0
0
LINE
8
Lattitudes
62
8
10
-2092969.766218
20
-13125261.655027
30
0
11
-1633124.039254
21
-12772877.671258
31
0
0
LINE
8
Lattitudes
62
8
10
-1633124.039254
20
-12772877.671258
30
0
11
-1128701.788508
21
-12502346.008069
31
0
0
LINE
8
Lattitudes
62
8
10
-1128701.788508
20
-12502346.008069
30
0
11
-595445.345595
21
-12312815.266524
31
0
0
LINE
8
Lattitudes
62
8
10
-595445.345595
20
-12312815.266524
30
0
11
-45450.071713
21
-12204793.544646
31
0
0
LINE
8
Lattitudes
62
8
10
-45450.071713
20
-12204793.544646
30
0
11
511533.152930
21
-12179662.902787
31
0
0
LINE
8
Lattitudes
62
8
10
511533.152930
20
-12179662.902787
30
0
11
1066795.439672
21
-12239193.829002
31
0
0
LINE
8
Lattitudes
62
8
10
1066795.439672
20
-12239193.829002
30
0
11
1611367.401963
21
-12385059.704423
31
0
0
LINE
8
Lattitudes
62
8
10
1611367.401963
20
-12385059.704423
30
0
11
2134716.665933
21
-12618351.268625
31
0
0
LINE
8
Lattitudes
62
8
10
2134716.665933
20
-12618351.268625
30
0
11
2623445.380949
21
-12939091.085003
31
0
0
LINE
8
Lattitudes
62
8
10
2623445.380949
20
-12939091.085003
30
0
11
3059987.730185
21
-13345748.006140
31
0
0
LINE
8
Lattitudes
62
8
10
3059987.730185
20
-13345748.006140
30
0
11
3421307.441183
21
-13834751.639180
31
0
0
LINE
8
Lattitudes
62
8
10
3421307.441183
20
-13834751.639180
30
0
11
3677595.296417
21
-14400006.811204
31
0
0
LINE
8
Lattitudes
62
8
10
3677595.296417
20
-14400006.811204
30
0
11
3790966.643858
21
-15032408.034593
31
0
0
LINE
8
Lattitudes
62
8
10
3790966.643858
20
-15032408.034593
30
0
11
3714158.907538
21
-15719353.972407
31
0
0
LINE
8
Lattitudes
62
8
10
-4543006.165694
20
-14191256.315246
30
0
11
-4379919.665372
21
-13554876.969912
31
0
0
LINE
8
Lattitudes
62
8
10
-4379919.665372
20
-13554876.969912
30
0
11
-4017850.029834
21
-12988115.282373
31
0
0
LINE
8
Lattitudes
62
8
10
-4017850.029834
20
-12988115.282373
30
0
11
-3517502.834414
21
-12489686.722013
31
0
0
LINE
8
Lattitudes
62
8
10
-3517502.834414
20
-12489686.722013
30
0
11
-2925119.989934
21
-12060214.628163
31
0
0
LINE
8
Lattitudes
62
8
10
-2925119.989934
20
-12060214.628163
30
0
11
-2274606.752197
21
-11701949.640985
31
0
0
LINE
8
Lattitudes
62
8
10
-2274606.752197
20
-11701949.640985
30
0
11
-1589658.731468
21
-11418489.132368
31
0
0
LINE
8
Lattitudes
62
8
10
-1589658.731468
20
-11418489.132368
30
0
11
-885888.901964
21
-11214496.636816
31
0
0
LINE
8
Lattitudes
62
8
10
-885888.901964
20
-11214496.636816
30
0
11
-172954.611339
21
-11095421.282338
31
0
0
LINE
8
Lattitudes
62
8
10
-172954.611339
20
-11095421.282338
30
0
11
543315.409829
21
-11067217.221341
31
0
0
LINE
8
Lattitudes
62
8
10
543315.409829
20
-11067217.221341
30
0
11
1258794.038551
21
-11136063.061521
31
0
0
LINE
8
Lattitudes
62
8
10
1258794.038551
20
-11136063.061521
30
0
11
1968928.749941
21
-11308081.296748
31
0
0
LINE
8
Lattitudes
62
8
10
1968928.749941
20
-11308081.296748
30
0
11
2666614.607728
21
-11589057.737966
31
0
0
LINE
8
Lattitudes
62
8
10
2666614.607728
20
-11589057.737966
30
0
11
3340067.254772
21
-11984160.944073
31
0
0
LINE
8
Lattitudes
62
8
10
3340067.254772
20
-11984160.944073
30
0
11
3970695.903576
21
-12497661.652822
31
0
0
LINE
8
Lattitudes
62
8
10
3970695.903576
20
-12497661.652822
30
0
11
4530976.326796
21
-13132652.211703
31
0
0
LINE
8
Lattitudes
62
8
10
4530976.326796
20
-13132652.211703
30
0
11
4982323.847763
21
-13890766.008839
31
0
0
LINE
8
Lattitudes
62
8
10
4982323.847763
20
-13890766.008839
30
0
11
5272966.330986
21
-14771896.903875
31
0
0
LINE
8
Lattitudes
62
8
10
5272966.330986
20
-14771896.903875
30
0
11
5335817.172672
21
-15773918.658868
31
0
0
LINE
8
Lattitudes
62
8
10
-6756955.981986
20
-12190493.299259
30
0
11
-6141329.707172
21
-11882195.690226
31
0
0
LINE
8
Lattitudes
62
8
10
-6141329.707172
20
-11882195.690226
30
0
11
-5402981.978776
21
-11538686.228213
31
0
0
LINE
8
Lattitudes
62
8
10
-5402981.978776
20
-11538686.228213
30
0
11
-4590515.912694
21
-11186743.117591
31
0
0
LINE
8
Lattitudes
62
8
10
-4590515.912694
20
-11186743.117591
30
0
11
-3739026.571586
21
-10849040.025791
31
0
0
LINE
8
Lattitudes
62
8
10
-3739026.571586
20
-10849040.025791
30
0
11
-2872087.443296
21
-10544749.691673
31
0
0
LINE
8
Lattitudes
62
8
10
-2872087.443296
20
-10544749.691673
30
0
11
-2003736.919265
21
-10290147.533903
31
0
0
LINE
8
Lattitudes
62
8
10
-2003736.919265
20
-10290147.533903
30
0
11
-1140464.772948
21
-10099215.259325
31
0
0
LINE
8
Lattitudes
62
8
10
-1140464.772948
20
-10099215.259325
30
0
11
-283198.638234
21
-9984244.471335
31
0
0
LINE
8
Lattitudes
62
8
10
-283198.638234
20
-9984244.471335
30
0
11
570709.512137
21
-9956440.278258
31
0
0
LINE
8
Lattitudes
62
8
10
570709.512137
20
-9956440.278258
30
0
11
1425496.888163
21
-10026524.901719
31
0
0
LINE
8
Lattitudes
62
8
10
1425496.888163
20
-10026524.901719
30
0
11
2285003.404154
21
-10205341.285015
31
0
0
LINE
8
Lattitudes
62
8
10
2285003.404154
20
-10205341.285015
30
0
11
3150685.200323
21
-10504456.701497
31
0
0
LINE
8
Lattitudes
62
8
10
3150685.200323
20
-10504456.701497
30
0
11
4019628.164363
21
-10936766.362934
31
0
0
LINE
8
Lattitudes
62
8
10
4019628.164363
20
-10936766.362934
30
0
11
4882561.453035
21
-11517097.027894
31
0
0
LINE
8
Lattitudes
62
8
10
4882561.453035
20
-11517097.027894
30
0
11
5721871.013747
21
-12262810.610116
31
0
0
LINE
8
Lattitudes
62
8
10
5721871.013747
20
-12262810.610116
30
0
11
6509613.106139
21
-13194407.786884
31
0
0
LINE
8
Lattitudes
62
8
10
6509613.106139
20
-13194407.786884
30
0
11
7205527.823666
21
-14336131.607399
31
0
0
LINE
8
Lattitudes
62
8
10
7205527.823666
20
-14336131.607399
30
0
11
7755052.615180
21
-15716571.101156
31
0
0
LINE
8
Lattitudes
62
8
10
-9564801.144648
20
-9859621.303572
30
0
11
-8181842.126354
21
-9957698.528222
31
0
0
LINE
8
Lattitudes
62
8
10
-8181842.126354
20
-9957698.528222
30
0
11
-6877561.103824
21
-9898967.286152
31
0
0
LINE
8
Lattitudes
62
8
10
-6877561.103824
20
-9898967.286152
30
0
11
-5649498.463046
21
-9743318.179367
31
0
0
LINE
8
Lattitudes
62
8
10
-5649498.463046
20
-9743318.179367
30
0
11
-4492060.079654
21
-9538725.083565
31
0
0
LINE
8
Lattitudes
62
8
10
-4492060.079654
20
-9538725.083565
30
0
11
-3396978.276340
21
-9322997.607884
31
0
0
LINE
8
Lattitudes
62
8
10
-3396978.276340
20
-9322997.607884
30
0
11
-2353772.780249
21
-9125533.554661
31
0
0
LINE
8
Lattitudes
62
8
10
-2353772.780249
20
-9125533.554661
30
0
11
-1350211.680392
21
-8969071.379174
31
0
0
LINE
8
Lattitudes
62
8
10
-1350211.680392
20
-8969071.379174
30
0
11
-372772.385046
21
-8871442.649401
31
0
0
LINE
8
Lattitudes
62
8
10
-372772.385046
20
-8871442.649401
30
0
11
592897.420838
21
-8847324.505766
31
0
0
LINE
8
Lattitudes
62
8
10
592897.420838
20
-8847324.505766
30
0
11
1561518.818236
21
-8909992.120894
31
0
0
LINE
8
Lattitudes
62
8
10
1561518.818236
20
-8909992.120894
30
0
11
2547720.696640
21
-9073071.159359
31
0
0
LINE
8
Lattitudes
62
8
10
2547720.696640
20
-9073071.159359
30
0
11
3565578.796659
21
-9352290.237436
31
0
0
LINE
8
Lattitudes
62
8
10
3565578.796659
20
-9352290.237436
30
0
11
4628154.752611
21
-9767233.382854
31
0
0
LINE
8
Lattitudes
62
8
10
4628154.752611
20
-9767233.382854
30
0
11
5747035.135118
21
-10343092.494544
31
0
0
LINE
8
Lattitudes
62
8
10
5747035.135118
20
-10343092.494544
30
0
11
6931870.493706
21
-11112419.802392
31
0
0
LINE
8
Lattitudes
62
8
10
6931870.493706
20
-11112419.802392
30
0
11
8189914.399395
21
-12116880.326993
31
0
0
LINE
8
Lattitudes
62
8
10
8189914.399395
20
-12116880.326993
30
0
11
9525562.487298
21
-13409004.339394
31
0
0
LINE
8
Lattitudes
62
8
10
9525562.487298
20
-13409004.339394
30
0
11
10939891.499213
21
-15053939.820855
31
0
0
LINE
8
Lattitudes
62
8
10
-12484312.124099
20
-7799606.892310
30
0
11
-10188338.975979
21
-8147892.536675
31
0
0
LINE
8
Lattitudes
62
8
10
-10188338.975979
20
-8147892.536675
30
0
11
-8245199.547223
21
-8282811.971198
31
0
0
LINE
8
Lattitudes
62
8
10
-8245199.547223
20
-8282811.971198
30
0
11
-6576218.866120
21
-8277794.560363
31
0
0
LINE
8
Lattitudes
62
8
10
-6576218.866120
20
-8277794.560363
30
0
11
-5116464.377185
21
-8190624.481538
31
0
0
LINE
8
Lattitudes
62
8
10
-5116464.377185
20
-8190624.481538
30
0
11
-3812724.997597
21
-8065741.487782
31
0
0
LINE
8
Lattitudes
62
8
10
-3812724.997597
20
-8065741.487782
30
0
11
-2621490.173636
21
-7936541.670662
31
0
0
LINE
8
Lattitudes
62
8
10
-2621490.173636
20
-7936541.670662
30
0
11
-1506928.937122
21
-7827678.223060
31
0
0
LINE
8
Lattitudes
62
8
10
-1506928.937122
20
-7827678.223060
30
0
11
-438868.961851
21
-7757362.201988
31
0
0
LINE
8
Lattitudes
62
8
10
-438868.961851
20
-7757362.201988
30
0
11
609224.379970
21
-7739663.291395
31
0
0
LINE
8
Lattitudes
62
8
10
609224.379970
20
-7739663.291395
30
0
11
1662268.961283
21
-7786810.564982
31
0
0
LINE
8
Lattitudes
62
8
10
1662268.961283
20
-7786810.564982
30
0
11
2745586.843741
21
-7911493.249013
31
0
0
LINE
8
Lattitudes
62
8
10
2745586.843741
20
-7911493.249013
30
0
11
3886925.221274
21
-8129161.485126
31
0
0
LINE
8
Lattitudes
62
8
10
3886925.221274
20
-8129161.485126
30
0
11
5118477.363650
21
-8460327.093141
31
0
0
LINE
8
Lattitudes
62
8
10
5118477.363650
20
-8460327.093141
30
0
11
6478903.560037
21
-8932864.333879
31
0
0
LINE
8
Lattitudes
62
8
10
6478903.560037
20
-8932864.333879
30
0
11
8015352.062567
21
-9584310.671964
31
0
0
LINE
8
Lattitudes
62
8
10
8015352.062567
20
-9584310.671964
30
0
11
9785480.029900
21
-10464167.538644
31
0
0
LINE
8
Lattitudes
62
8
10
9785480.029900
20
-10464167.538644
30
0
11
11859474.470784
21
-11636201.094594
31
0
0
LINE
8
Lattitudes
62
8
10
11859474.470784
20
-11636201.094594
30
0
11
14322073.187618
21
-13180742.992733
31
0
0
LINE
8
Lattitudes
62
8
10
-14731866.554267
20
-6395189.883253
30
0
11
-11685701.086585
21
-6689599.576885
31
0
0
LINE
8
Lattitudes
62
8
10
-11685701.086585
20
-6689599.576885
30
0
11
-9230655.604999
21
-6831435.397706
31
0
0
LINE
8
Lattitudes
62
8
10
-9230655.604999
20
-6831435.397706
30
0
11
-7219398.511637
21
-6871630.729978
31
0
0
LINE
8
Lattitudes
62
8
10
-7219398.511637
20
-6871630.729978
30
0
11
-5534001.078876
21
-6849975.964391
31
0
0
LINE
8
Lattitudes
62
8
10
-5534001.078876
20
-6849975.964391
30
0
11
-4081613.497832
21
-6796757.173592
31
0
0
LINE
8
Lattitudes
62
8
10
-4081613.497832
20
-6796757.173592
30
0
11
-2790140.926856
21
-6734394.787706
31
0
0
LINE
8
Lattitudes
62
8
10
-2790140.926856
20
-6734394.787706
30
0
11
-1603919.540025
21
-6679082.269864
31
0
0
LINE
8
Lattitudes
62
8
10
-1603919.540025
20
-6679082.269864
30
0
11
-479392.575636
21
-6642424.791726
31
0
0
LINE
8
Lattitudes
62
8
10
-479392.575636
20
-6642424.791726
30
0
11
619213.615301
21
-6633077.909006
31
0
0
LINE
8
Lattitudes
62
8
10
619213.615301
20
-6633077.909006
30
0
11
1724213.520571
21
-6658386.237000
31
0
0
LINE
8
Lattitudes
62
8
10
1724213.520571
20
-6658386.237000
30
0
11
2868786.418260
21
-6726022.126108
31
0
0
LINE
8
Lattitudes
62
8
10
2868786.418260
20
-6726022.126108
30
0
11
4091300.328262
21
-6845624.337360
31
0
0
LINE
8
Lattitudes
62
8
10
4091300.328262
20
-6845624.337360
30
0
11
5439635.963788
21
-7030436.717940
31
0
0
LINE
8
Lattitudes
62
8
10
5439635.963788
20
-7030436.717940
30
0
11
6975510.682870
21
-7298946.876716
31
0
0
LINE
8
Lattitudes
62
8
10
6975510.682870
20
-7298946.876716
30
0
11
8778802.439870
21
-7676524.859756
31
0
0
LINE
8
Lattitudes
62
8
10
8778802.439870
20
-7676524.859756
30
0
11
10951873.736986
21
-8197061.825863
31
0
0
LINE
8
Lattitudes
62
8
10
10951873.736986
20
-8197061.825863
30
0
11
13623895.575761
21
-8904608.722092
31
0
0
LINE
8
Lattitudes
62
8
10
13623895.575761
20
-8904608.722092
30
0
11
16955171.408587
21
-9855014.959281
31
0
0
LINE
8
Equator
62
7
10
-15579653.584485
20
-5527063.652264
30
0
11
-12242744.760033
21
-5527063.652264
31
0
0
LINE
8
Equator
62
7
10
-12242744.760033
20
-5527063.652264
30
0
11
-9591366.552402
21
-5527063.652264
31
0
0
LINE
8
Equator
62
7
10
-9591366.552402
20
-5527063.652264
30
0
11
-7450606.415507
21
-5527063.652264
31
0
0
LINE
8
Equator
62
7
10
-7450606.415507
20
-5527063.652264
30
0
11
-5681315.093180
21
-5527063.652264
31
0
0
LINE
8
Equator
62
7
10
-5681315.093180
20
-5527063.652264
30
0
11
-4174847.311833
21
-5527063.652264
31
0
0
LINE
8
Equator
62
7
10
-4174847.311833
20
-5527063.652264
30
0
11
-2847802.473110
21
-5527063.652264
31
0
0
LINE
8
Equator
62
7
10
-2847802.473110
20
-5527063.652264
30
0
11
-1636765.346553
21
-5527063.652264
31
0
0
LINE
8
Equator
62
7
10
-1636765.346553
20
-5527063.652264
30
0
11
-493046.762259
21
-5527063.652264
31
0
0
LINE
8
Equator
62
7
10
-493046.762259
20
-5527063.652264
30
0
11
622575.696464
21
-5527063.652264
31
0
0
LINE
8
Equator
62
7
10
622575.696464
20
-5527063.652264
30
0
11
1745117.000433
21
-5527063.652264
31
0
0
LINE
8
Equator
62
7
10
1745117.000433
20
-5527063.652264
30
0
11
2910643.981934
21
-5527063.652264
31
0
0
LINE
8
Equator
62
7
10
2910643.981934
20
-5527063.652264
30
0
11
4161534.642062
21
-5527063.652264
31
0
0
LINE
8
Equator
62
7
10
4161534.642062
20
-5527063.652264
30
0
11
5551737.458062
21
-5527063.652264
31
0
0
LINE
8
Equator
62
7
10
5551737.458062
20
-5527063.652264
30
0
11
7152030.690670
21
-5527063.652264
31
0
0
LINE
8
Equator
62
7
10
7152030.690670
20
-5527063.652264
30
0
11
9055281.691453
21
-5527063.652264
31
0
0
LINE
8
Equator
62
7
10
9055281.691453
20
-5527063.652264
30
0
11
11381706.210152
21
-5527063.652264
31
0
0
LINE
8
Equator
62
7
10
11381706.210152
20
-5527063.652264
30
0
11
14284127.702019
21
-5527063.652264
31
0
0
LINE
8
Equator
62
7
10
14284127.702019
20
-5527063.652264
30
0
11
17953236.635163
21
-5527063.652264
31
0
0
LINE
8
Lattitudes
62
8
10
-14731866.554267
20
-4658937.421274
30
0
11
-11685701.086585
21
-4364527.727642
31
0
0
LINE
8
Lattitudes
62
8
10
-11685701.086585
20
-4364527.727642
30
0
11
-9230655.604999
21
-4222691.906822
31
0
0
LINE
8
Lattitudes
62
8
10
-9230655.604999
20
-4222691.906822
30
0
11
-7219398.511637
21
-4182496.574550
31
0
0
LINE
8
Lattitudes
62
8
10
-7219398.511637
20
-4182496.574550
30
0
11
-5534001.078876
21
-4204151.340137
31
0
0
LINE
8
Lattitudes
62
8
10
-5534001.078876
20
-4204151.340137
30
0
11
-4081613.497832
21
-4257370.130936
31
0
0
LINE
8
Lattitudes
62
8
10
-4081613.497832
20
-4257370.130936
30
0
11
-2790140.926856
21
-4319732.516822
31
0
0
LINE
8
Lattitudes
62
8
10
-2790140.926856
20
-4319732.516822
30
0
11
-1603919.540025
21
-4375045.034664
31
0
0
LINE
8
Lattitudes
62
8
10
-1603919.540025
20
-4375045.034664
30
0
11
-479392.575636
21
-4411702.512802
31
0
0
LINE
8
Lattitudes
62
8
10
-479392.575636
20
-4411702.512802
30
0
11
619213.615301
21
-4421049.395522
31
0
0
LINE
8
Lattitudes
62
8
10
619213.615301
20
-4421049.395522
30
0
11
1724213.520571
21
-4395741.067528
31
0
0
LINE
8
Lattitudes
62
8
10
1724213.520571
20
-4395741.067528
30
0
11
2868786.418260
21
-4328105.178420
31
0
0
LINE
8
Lattitudes
62
8
10
2868786.418260
20
-4328105.178420
30
0
11
4091300.328262
21
-4208502.967168
31
0
0
LINE
8
Lattitudes
62
8
10
4091300.328262
20
-4208502.967168
30
0
11
5439635.963788
21
-4023690.586588
31
0
0
LINE
8
Lattitudes
62
8
10
5439635.963788
20
-4023690.586588
30
0
11
6975510.682870
21
-3755180.427812
31
0
0
LINE
8
Lattitudes
62
8
10
6975510.682870
20
-3755180.427812
30
0
11
8778802.439870
21
-3377602.444772
31
0
0
LINE
8
Lattitudes
62
8
10
8778802.439870
20
-3377602.444772
30
0
11
10951873.736986
21
-2857065.478665
31
0
0
LINE
8
Lattitudes
62
8
10
10951873.736986
20
-2857065.478665
30
0
11
13623895.575761
21
-2149518.582436
31
0
0
LINE
8
Lattitudes
62
8
10
13623895.575761
20
-2149518.582436
30
0
11
16955171.408587
21
-1199112.345247
31
0
0
LINE
8
Lattitudes
62
8
10
-12484312.124099
20
-3254520.412218
30
0
11
-10188338.975979
21
-2906234.767853
31
0
0
LINE
8
Lattitudes
62
8
10
-10188338.975979
20
-2906234.767853
30
0
11
-8245199.547223
21
-2771315.333330
31
0
0
LINE
8
Lattitudes
62
8
10
-8245199.547223
20
-2771315.333330
30
0
11
-6576218.866120
21
-2776332.744165
31
0
0
LINE
8
Lattitudes
62
8
10
-6576218.866120
20
-2776332.744165
30
0
11
-5116464.377185
21
-2863502.822990
31
0
0
LINE
8
Lattitudes
62
8
10
-5116464.377185
20
-2863502.822990
30
0
11
-3812724.997597
21
-2988385.816746
31
0
0
LINE
8
Lattitudes
62
8
10
-3812724.997597
20
-2988385.816746
30
0
11
-2621490.173636
21
-3117585.633866
31
0
0
LINE
8
Lattitudes
62
8
10
-2621490.173636
20
-3117585.633866
30
0
11
-1506928.937122
21
-3226449.081468
31
0
0
LINE
8
Lattitudes
62
8
10
-1506928.937122
20
-3226449.081468
30
0
11
-438868.961851
21
-3296765.102540
31
0
0
LINE
8
Lattitudes
62
8
10
-438868.961851
20
-3296765.102540
30
0
11
609224.379970
21
-3314464.013133
31
0
0
LINE
8
Lattitudes
62
8
10
609224.379970
20
-3314464.013133
30
0
11
1662268.961283
21
-3267316.739546
31
0
0
LINE
8
Lattitudes
62
8
10
1662268.961283
20
-3267316.739546
30
0
11
2745586.843741
21
-3142634.055515
31
0
0
LINE
8
Lattitudes
62
8
10
2745586.843741
20
-3142634.055515
30
0
11
3886925.221274
21
-2924965.819402
31
0
0
LINE
8
Lattitudes
62
8
10
3886925.221274
20
-2924965.819402
30
0
11
5118477.363650
21
-2593800.211387
31
0
0
LINE
8
Lattitudes
62
8
10
5118477.363650
20
-2593800.211387
30
0
11
6478903.560037
21
-2121262.970649
31
0
0
LINE
8
Lattitudes
62
8
10
6478903.560037
20
-2121262.970649
30
0
11
8015352.062567
21
-1469816.632563
31
0
0
LINE
8
Lattitudes
62
8
10
8015352.062567
20
-1469816.632563
30
0
11
9785480.029900
21
-589959.765884
31
0
0
LINE
8
Lattitudes
62
8
10
9785480.029900
20
-589959.765884
30
0
11
11859474.470784
21
582073.790066
31
0
0
LINE
8
Lattitudes
62
8
10
11859474.470784
20
582073.790066
30
0
11
14322073.187618
21
2126615.688205
31
0
0
LINE
8
Lattitudes
62
8
10
-9564801.144648
20
-1194506.000956
30
0
11
-8181842.126354
21
-1096428.776306
31
0
0
LINE
8
Lattitudes
62
8
10
-8181842.126354
20
-1096428.776306
30
0
11
-6877561.103824
21
-1155160.018376
31
0
0
LINE
8
Lattitudes
62
8
10
-6877561.103824
20
-1155160.018376
30
0
11
-5649498.463046
21
-1310809.125160
31
0
0
LINE
8
Lattitudes
62
8
10
-5649498.463046
20
-1310809.125160
30
0
11
-4492060.079654
21
-1515402.220963
31
0
0
LINE
8
Lattitudes
62
8
10
-4492060.079654
20
-1515402.220963
30
0
11
-3396978.276340
21
-1731129.696644
31
0
0
LINE
8
Lattitudes
62
8
10
-3396978.276340
20
-1731129.696644
30
0
11
-2353772.780249
21
-1928593.749867
31
0
0
LINE
8
Lattitudes
62
8
10
-2353772.780249
20
-1928593.749867
30
0
11
-1350211.680392
21
-2085055.925354
31
0
0
LINE
8
Lattitudes
62
8
10
-1350211.680392
20
-2085055.925354
30
0
11
-372772.385046
21
-2182684.655127
31
0
0
LINE
8
Lattitudes
62
8
10
-372772.385046
20
-2182684.655127
30
0
11
592897.420838
21
-2206802.798762
31
0
0
LINE
8
Lattitudes
62
8
10
592897.420838
20
-2206802.798762
30
0
11
1561518.818236
21
-2144135.183634
31
0
0
LINE
8
Lattitudes
62
8
10
1561518.818236
20
-2144135.183634
30
0
11
2547720.696640
21
-1981056.145169
31
0
0
LINE
8
Lattitudes
62
8
10
2547720.696640
20
-1981056.145169
30
0
11
3565578.796659
21
-1701837.067091
31
0
0
LINE
8
Lattitudes
62
8
10
3565578.796659
20
-1701837.067091
30
0
11
4628154.752611
21
-1286893.921674
31
0
0
LINE
8
Lattitudes
62
8
10
4628154.752611
20
-1286893.921674
30
0
11
5747035.135118
21
-711034.809984
31
0
0
LINE
8
Lattitudes
62
8
10
5747035.135118
20
-711034.809984
30
0
11
6931870.493706
21
58292.497865
31
0
0
LINE
8
Lattitudes
62
8
10
6931870.493706
20
58292.497865
30
0
11
8189914.399395
21
1062753.022465
31
0
0
LINE
8
Lattitudes
62
8
10
8189914.399395
20
1062753.022465
30
0
11
9525562.487298
21
2354877.034866
31
0
0
LINE
8
Lattitudes
62
8
10
9525562.487298
20
2354877.034866
30
0
11
10939891.499213
21
3999812.516327
31
0
0
LINE
8
Lattitudes
62
8
10
-6756955.981986
20
1136365.994731
30
0
11
-6141329.707172
21
828068.385699
31
0
0
LINE
8
Lattitudes
62
8
10
-6141329.707172
20
828068.385699
30
0
11
-5402981.978776
21
484558.923685
31
0
0
LINE
8
Lattitudes
62
8
10
-5402981.978776
20
484558.923685
30
0
11
-4590515.912694
21
132615.813063
31
0
0
LINE
8
Lattitudes
62
8
10
-4590515.912694
20
132615.813063
30
0
11
-3739026.571586
21
-205087.278737
31
0
0
LINE
8
Lattitudes
62
8
10
-3739026.571586
20
-205087.278737
30
0
11
-2872087.443296
21
-509377.612855
31
0
0
LINE
8
Lattitudes
62
8
10
-2872087.443296
20
-509377.612855
30
0
11
-2003736.919265
21
-763979.770625
31
0
0
LINE
8
Lattitudes
62
8
10
-2003736.919265
20
-763979.770625
30
0
11
-1140464.772948
21
-954912.045203
31
0
0
LINE
8
Lattitudes
62
8
10
-1140464.772948
20
-954912.045203
30
0
11
-283198.638234
21
-1069882.833193
31
0
0
LINE
8
Lattitudes
62
8
10
-283198.638234
20
-1069882.833193
30
0
11
570709.512137
21
-1097687.026269
31
0
0
LINE
8
Lattitudes
62
8
10
570709.512137
20
-1097687.026269
30
0
11
1425496.888163
21
-1027602.402809
31
0
0
LINE
8
Lattitudes
62
8
10
1425496.888163
20
-1027602.402809
30
0
11
2285003.404154
21
-848786.019512
31
0
0
LINE
8
Lattitudes
62
8
10
2285003.404154
20
-848786.019512
30
0
11
3150685.200323
21
-549670.603031
31
0
0
LINE
8
Lattitudes
62
8
10
3150685.200323
20
-549670.603031
30
0
11
4019628.164363
21
-117360.941594
31
0
0
LINE
8
Lattitudes
62
8
10
4019628.164363
20
-117360.941594
30
0
11
4882561.453035
21
462969.723366
31
0
0
LINE
8
Lattitudes
62
8
10
4882561.453035
20
462969.723366
30
0
11
5721871.013747
21
1208683.305588
31
0
0
LINE
8
Lattitudes
62
8
10
5721871.013747
20
1208683.305588
30
0
11
6509613.106139
21
2140280.482356
31
0
0
LINE
8
Lattitudes
62
8
10
6509613.106139
20
2140280.482356
30
0
11
7205527.823666
21
3282004.302871
31
0
0
LINE
8
Lattitudes
62
8
10
7205527.823666
20
3282004.302871
30
0
11
7755052.615180
21
4662443.796628
31
0
0
LINE
8
Lattitudes
62
8
10
-4543006.165694
20
3137129.010718
30
0
11
-4379919.665372
21
2500749.665384
31
0
0
LINE
8
Lattitudes
62
8
10
-4379919.665372
20
2500749.665384
30
0
11
-4017850.029834
21
1933987.977845
31
0
0
LINE
8
Lattitudes
62
8
10
-4017850.029834
20
1933987.977845
30
0
11
-3517502.834414
21
1435559.417485
31
0
0
LINE
8
Lattitudes
62
8
10
-3517502.834414
20
1435559.417485
30
0
11
-2925119.989934
21
1006087.323635
31
0
0
LINE
8
Lattitudes
62
8
10
-2925119.989934
20
1006087.323635
30
0
11
-2274606.752197
21
647822.336458
31
0
0
LINE
8
Lattitudes
62
8
10
-2274606.752197
20
647822.336458
30
0
11
-1589658.731468
21
364361.827840
31
0
0
LINE
8
Lattitudes
62
8
10
-1589658.731468
20
364361.827840
30
0
11
-885888.901964
21
160369.332288
31
0
0
LINE
8
Lattitudes
62
8
10
-885888.901964
20
160369.332288
30
0
11
-172954.611339
21
41293.977810
31
0
0
LINE
8
Lattitudes
62
8
10
-172954.611339
20
41293.977810
30
0
11
543315.409829
21
13089.916813
31
0
0
LINE
8
Lattitudes
62
8
10
543315.409829
20
13089.916813
30
0
11
1258794.038551
21
81935.756993
31
0
0
LINE
8
Lattitudes
62
8
10
1258794.038551
20
81935.756993
30
0
11
1968928.749941
21
253953.992220
31
0
0
LINE
8
Lattitudes
62
8
10
1968928.749941
20
253953.992220
30
0
11
2666614.607728
21
534930.433438
31
0
0
LINE
8
Lattitudes
62
8
10
2666614.607728
20
534930.433438
30
0
11
3340067.254772
21
930033.639545
31
0
0
LINE
8
Lattitudes
62
8
10
3340067.254772
20
930033.639545
30
0
11
3970695.903576
21
1443534.348294
31
0
0
LINE
8
Lattitudes
62
8
10
3970695.903576
20
1443534.348294
30
0
11
4530976.326796
21
2078524.907175
31
0
0
LINE
8
Lattitudes
62
8
10
4530976.326796
20
2078524.907175
30
0
11
4982323.847763
21
2836638.704311
31
0
0
LINE
8
Lattitudes
62
8
10
4982323.847763
20
2836638.704311
30
0
11
5272966.330986
21
3717769.599347
31
0
0
LINE
8
Lattitudes
62
8
10
5272966.330986
20
3717769.599347
30
0
11
5335817.172672
21
4719791.354341
31
0
0
LINE
8
Lattitudes
62
8
10
-2971157.430779
20
4390993.802867
30
0
11
-2965567.653785
21
3658502.896238
31
0
0
LINE
8
Lattitudes
62
8
10
-2965567.653785
20
3658502.896238
30
0
11
-2789912.533615
21
3034575.568092
31
0
0
LINE
8
Lattitudes
62
8
10
-2789912.533615
20
3034575.568092
30
0
11
-2487547.177927
21
2508067.085374
31
0
0
LINE
8
Lattitudes
62
8
10
-2487547.177927
20
2508067.085374
30
0
11
-2092969.766218
21
2071134.350499
31
0
0
LINE
8
Lattitudes
62
8
10
-2092969.766218
20
2071134.350499
30
0
11
-1633124.039254
21
1718750.366730
31
0
0
LINE
8
Lattitudes
62
8
10
-1633124.039254
20
1718750.366730
30
0
11
-1128701.788508
21
1448218.703541
31
0
0
LINE
8
Lattitudes
62
8
10
-1128701.788508
20
1448218.703541
30
0
11
-595445.345595
21
1258687.961996
31
0
0
LINE
8
Lattitudes
62
8
10
-595445.345595
20
1258687.961996
30
0
11
-45450.071713
21
1150666.240118
31
0
0
LINE
8
Lattitudes
62
8
10
-45450.071713
20
1150666.240118
30
0
11
511533.152930
21
1125535.598259
31
0
0
LINE
8
Lattitudes
62
8
10
511533.152930
20
1125535.598259
30
0
11
1066795.439672
21
1185066.524474
31
0
0
LINE
8
Lattitudes
62
8
10
1066795.439672
20
1185066.524474
30
0
11
1611367.401963
21
1330932.399895
31
0
0
LINE
8
Lattitudes
62
8
10
1611367.401963
20
1330932.399895
30
0
11
2134716.665933
21
1564223.964098
31
0
0
LINE
8
Lattitudes
62
8
10
2134716.665933
20
1564223.964098
30
0
11
2623445.380949
21
1884963.780475
31
0
0
LINE
8
Lattitudes
62
8
10
2623445.380949
20
1884963.780475
30
0
11
3059987.730185
21
2291620.701612
31
0
0
LINE
8
Lattitudes
62
8
10
3059987.730185
20
2291620.701612
30
0
11
3421307.441183
21
2780624.334652
31
0
0
LINE
8
Lattitudes
62
8
10
3421307.441183
20
2780624.334652
30
0
11
3677595.296417
21
3345879.506676
31
0
0
LINE
8
Lattitudes
62
8
10
3677595.296417
20
3345879.506676
30
0
11
3790966.643858
21
3978280.730065
31
0
0
LINE
8
Lattitudes
62
8
10
3790966.643858
20
3978280.730065
30
0
11
3714158.907538
21
4665226.667879
31
0
0
LINE
8
Lattitudes
62
8
10
-1789084.859405
20
4860967.801047
30
0
11
-1786174.447845
21
4265051.911441
31
0
0
LINE
8
Lattitudes
62
8
10
-1786174.447845
20
4265051.911441
30
0
11
-1685117.402905
21
3757425.487972
31
0
0
LINE
8
Lattitudes
62
8
10
-1685117.402905
20
3757425.487972
30
0
11
-1504448.847679
21
3330777.829425
31
0
0
LINE
8
Lattitudes
62
8
10
-1504448.847679
20
3330777.829425
30
0
11
-1260257.786883
21
2979448.996245
31
0
0
LINE
8
Lattitudes
62
8
10
-1260257.786883
20
2979448.996245
30
0
11
-966546.830152
21
2699187.051467
31
0
0
LINE
8
Lattitudes
62
8
10
-966546.830152
20
2699187.051467
30
0
11
-635591.915327
21
2486905.301654
31
0
0
LINE
8
Lattitudes
62
8
10
-635591.915327
20
2486905.301654
30
0
11
-278302.031746
21
2340439.537825
31
0
0
LINE
8
Lattitudes
62
8
10
-278302.031746
20
2340439.537825
30
0
11
95421.056466
21
2258305.276387
31
0
0
LINE
8
Lattitudes
62
8
10
95421.056466
20
2258305.276387
30
0
11
476323.087107
21
2239455.000072
31
0
0
LINE
8
Lattitudes
62
8
10
476323.087107
20
2239455.000072
30
0
11
855437.576607
21
2283035.398863
31
0
0
LINE
8
Lattitudes
62
8
10
855437.576607
20
2283035.398863
30
0
11
1223726.096737
21
2388144.610932
31
0
0
LINE
8
Lattitudes
62
8
10
1223726.096737
20
2388144.610932
30
0
11
1571718.551321
21
2553589.463567
31
0
0
LINE
8
Lattitudes
62
8
10
1571718.551321
20
2553589.463567
30
0
11
1889153.452943
21
2777642.714110
31
0
0
LINE
8
Lattitudes
62
8
10
1889153.452943
20
2777642.714110
30
0
11
2164618.199660
21
3057800.290884
31
0
0
LINE
8
Lattitudes
62
8
10
2164618.199660
20
3057800.290884
30
0
11
2385189.351707
21
3390538.534130
31
0
0
LINE
8
Lattitudes
62
8
10
2385189.351707
20
3390538.534130
30
0
11
2536072.908212
21
3771071.436936
31
0
0
LINE
8
Lattitudes
62
8
10
2536072.908212
20
3771071.436936
30
0
11
2600244.583902
21
4193107.886169
31
0
0
LINE
8
Lattitudes
62
8
10
2600244.583902
20
4193107.886169
30
0
11
2558090.085815
21
4648608.903411
31
0
0
LINE
8
Lattitudes
62
8
10
-708677.282304
20
4788167.259936
30
0
11
-691199.408083
21
4466457.127655
31
0
0
LINE
8
Lattitudes
62
8
10
-691199.408083
20
4466457.127655
30
0
11
-636444.303631
21
4188999.290546
31
0
0
LINE
8
Lattitudes
62
8
10
-636444.303631
20
4188999.290546
30
0
11
-547945.848415
21
3954049.802604
31
0
0
LINE
8
Lattitudes
62
8
10
-547945.848415
20
3954049.802604
30
0
11
-429749.669552
21
3760005.265980
31
0
0
LINE
8
Lattitudes
62
8
10
-429749.669552
20
3760005.265980
30
0
11
-286337.884801
21
3605382.162140
31
0
0
LINE
8
Lattitudes
62
8
10
-286337.884801
20
3605382.162140
30
0
11
-122553.845556
21
3488796.183011
31
0
0
LINE
8
Lattitudes
62
8
10
-122553.845556
20
3488796.183011
30
0
11
56473.120163
21
3408941.562137
31
0
0
LINE
8
Lattitudes
62
8
10
56473.120163
20
3408941.562137
30
0
11
245402.964712
21
3364570.405836
31
0
0
LINE
8
Lattitudes
62
8
10
245402.964712
20
3364570.405836
30
0
11
438760.177838
21
3354472.024347
31
0
0
LINE
8
Lattitudes
62
8
10
438760.177838
20
3354472.024347
30
0
11
631009.043680
21
3377452.262988
31
0
0
LINE
8
Lattitudes
62
8
10
631009.043680
20
3377452.262988
30
0
11
816628.897778
21
3432312.833306
31
0
0
LINE
8
Lattitudes
62
8
10
816628.897778
20
3432312.833306
30
0
11
990189.384083
21
3517830.644235
31
0
0
LINE
8
Lattitudes
62
8
10
990189.384083
20
3517830.644235
30
0
11
1146425.711959
21
3632737.133242
31
0
0
LINE
8
Lattitudes
62
8
10
1146425.711959
20
3632737.133242
30
0
11
1280313.913195
21
3775697.597489
31
0
0
LINE
8
Lattitudes
62
8
10
1280313.913195
20
3775697.597489
30
0
11
1387146.099011
21
3945290.524979
31
0
0
LINE
8
Lattitudes
62
8
10
1387146.099011
20
3945290.524979
30
0
11
1462605.717064
21
4139986.925713
31
0
0
LINE
8
Lattitudes
62
8
10
1462605.717064
20
4139986.925713
30
0
11
1502842.808456
21
4358129.662842
31
0
0
LINE
8
Lattitudes
62
8
10
1502842.808456
20
4358129.662842
30
0
11
1504549.264742
21
4597912.783821
31
0
0
LINE
8
Lattitudes
62
8
10
399999.699705
20
4470074.791521
30
0
11
399999.706721
21
4470074.703733
31
0
0
LINE
8
Lattitudes
62
8
10
399999.706721
20
4470074.703733
30
0
11
399999.722284
21
4470074.627521
31
0
0
LINE
8
Lattitudes
62
8
10
399999.722284
20
4470074.627521
30
0
11
399999.746100
21
4470074.562705
31
0
0
LINE
8
Lattitudes
62
8
10
399999.746100
20
4470074.562705
30
0
11
399999.777546
21
4470074.509047
31
0
0
LINE
8
Lattitudes
62
8
10
399999.777546
20
4470074.509047
30
0
11
399999.815718
21
4470074.466264
31
0
0
LINE
8
Lattitudes
62
8
10
399999.815718
20
4470074.466264
30
0
11
399999.859478
21
4470074.434034
31
0
0
LINE
8
Lattitudes
62
8
10
399999.859478
20
4470074.434034
30
0
11
399999.907506
21
4470074.412005
31
0
0
LINE
8
Lattitudes
62
8
10
399999.907506
20
4470074.412005
30
0
11
399999.958343
21
4470074.399800
31
0
0
LINE
8
Lattitudes
62
8
10
399999.958343
20
4470074.399800
30
0
11
400000.010446
21
4470074.397030
31
0
0
LINE
8
Lattitudes
62
8
10
400000.010446
20
4470074.397030
30
0
11
400000.062232
21
4470074.403299
31
0
0
LINE
8
Lattitudes
62
8
10
400000.062232
20
4470074.403299
30
0
11
400000.112127
21
4470074.418211
31
0
0
LINE
8
Lattitudes
62
8
10
400000.112127
20
4470074.418211
30
0
11
400000.158616
21
4470074.441381
31
0
0
LINE
8
Lattitudes
62
8
10
400000.158616
20
4470074.441381
30
0
11
400000.200290
21
4470074.472443
31
0
0
LINE
8
Lattitudes
62
8
10
400000.200290
20
4470074.472443
30
0
11
400000.235896
21
4470074.511053
31
0
0
LINE
8
Lattitudes
62
8
10
400000.235896
20
4470074.511053
30
0
11
400000.264384
21
4470074.556906
31
0
0
LINE
8
Lattitudes
62
8
10
400000.264384
20
4470074.556906
30
0
11
400000.284956
21
4470074.609735
31
0
0
LINE
8
Lattitudes
62
8
10
400000.284956
20
4470074.609735
30
0
11
400000.297115
21
4470074.669325
31
0
0
LINE
8
Lattitudes
62
8
10
400000.297115
20
4470074.669325
30
0
11
400000.300713
21
4470074.735518
31
0
0
LINE
8
Merdians
62
8
10
399999.699705
20
-15524202.096049
30
0
11
-708677.282304
21
-15842294.564464
31
0
0
LINE
8
Merdians
62
8
10
-708677.282304
20
-15842294.564464
30
0
11
-1789084.859405
21
-15915095.105575
31
0
0
LINE
8
Merdians
62
8
10
-1789084.859405
20
-15915095.105575
30
0
11
-2971157.430779
21
-15445121.107395
31
0
0
LINE
8
Merdians
62
8
10
-2971157.430779
20
-15445121.107395
30
0
11
-4543006.165694
21
-14191256.315246
31
0
0
LINE
8
Merdians
62
8
10
-4543006.165694
20
-14191256.315246
30
0
11
-6756955.981986
21
-12190493.299259
31
0
0
LINE
8
Merdians
62
8
10
-6756955.981986
20
-12190493.299259
30
0
11
-9564801.144648
21
-9859621.303572
31
0
0
LINE
8
Merdians
62
8
10
-9564801.144648
20
-9859621.303572
30
0
11
-12484312.124099
21
-7799606.892310
31
0
0
LINE
8
Merdians
62
8
10
-12484312.124099
20
-7799606.892310
30
0
11
-14731866.554267
21
-6395189.883253
31
0
0
LINE
8
Merdians
62
8
10
-14731866.554267
20
-6395189.883253
30
0
11
-15579653.584485
21
-5527063.652264
31
0
0
LINE
8
Merdians
62
8
10
-15579653.584485
20
-5527063.652264
30
0
11
-14731866.554267
21
-4658937.421274
31
0
0
LINE
8
Merdians
62
8
10
-14731866.554267
20
-4658937.421274
30
0
11
-12484312.124099
21
-3254520.412218
31
0
0
LINE
8
Merdians
62
8
10
-12484312.124099
20
-3254520.412218
30
0
11
-9564801.144648
21
-1194506.000956
31
0
0
LINE
8
Merdians
62
8
10
-9564801.144648
20
-1194506.000956
30
0
11
-6756955.981986
21
1136365.994731
31
0
0
LINE
8
Merdians
62
8
10
-6756955.981986
20
1136365.994731
30
0
11
-4543006.165694
21
3137129.010718
31
0
0
LINE
8
Merdians
62
8
10
-4543006.165694
20
3137129.010718
30
0
11
-2971157.430779
21
4390993.802867
31
0
0
LINE
8
Merdians
62
8
10
-2971157.430779
20
4390993.802867
30
0
11
-1789084.859405
21
4860967.801047
31
0
0
LINE
8
Merdians
62
8
10
-1789084.859405
20
4860967.801047
30
0
11
-708677.282304
21
4788167.259936
31
0
0
LINE
8
Merdians
62
8
10
-708677.282304
20
4788167.259936
30
0
11
399999.699705
21
4470074.791521
31
0
0
LINE
8
Merdians
62
8
10
399999.706721
20
-15524202.008261
30
0
11
-691199.408083
21
-15520584.432183
31
0
0
LINE
8
Merdians
62
8
10
-691199.408083
20
-15520584.432183
30
0
11
-1786174.447845
21
-15319179.215968
31
0
0
LINE
8
Merdians
62
8
10
-1786174.447845
20
-15319179.215968
30
0
11
-2965567.653785
21
-14712630.200766
31
0
0
LINE
8
Merdians
62
8
10
-2965567.653785
20
-14712630.200766
30
0
11
-4379919.665372
21
-13554876.969912
31
0
0
LINE
8
Merdians
62
8
10
-4379919.665372
20
-13554876.969912
30
0
11
-6141329.707172
21
-11882195.690226
31
0
0
LINE
8
Merdians
62
8
10
-6141329.707172
20
-11882195.690226
30
0
11
-8181842.126354
21
-9957698.528222
31
0
0
LINE
8
Merdians
62
8
10
-8181842.126354
20
-9957698.528222
30
0
11
-10188338.975979
21
-8147892.536675
31
0
0
LINE
8
Merdians
62
8
10
-10188338.975979
20
-8147892.536675
30
0
11
-11685701.086585
21
-6689599.576885
31
0
0
LINE
8
Merdians
62
8
10
-11685701.086585
20
-6689599.576885
30
0
11
-12242744.760033
21
-5527063.652264
31
0
0
LINE
8
Merdians
62
8
10
-12242744.760033
20
-5527063.652264
30
0
11
-11685701.086585
21
-4364527.727642
31
0
0
LINE
8
Merdians
62
8
10
-11685701.086585
20
-4364527.727642
30
0
11
-10188338.975979
21
-2906234.767853
31
0
0
LINE
8
Merdians
62
8
10
-10188338.975979
20
-2906234.767853
30
0
11
-8181842.126354
21
-1096428.776306
31
0
0
LINE
8
Merdians
62
8
10
-8181842.126354
20
-1096428.776306
30
0
11
-6141329.707172
21
828068.385699
31
0
0
LINE
8
Merdians
62
8
10
-6141329.707172
20
828068.385699
30
0
11
-4379919.665372
21
2500749.665384
31
0
0
LINE
8
Merdians
62
8
10
-4379919.665372
20
2500749.665384
30
0
11
-2965567.653785
21
3658502.896238
31
0
0
LINE
8
Merdians
62
8
10
-2965567.653785
20
3658502.896238
30
0
11
-1786174.447845
21
4265051.911441
31
0
0
LINE
8
Merdians
62
8
10
-1786174.447845
20
4265051.911441
30
0
11
-691199.408083
21
4466457.127655
31
0
0
LINE
8
Merdians
62
8
10
-691199.408083
20
4466457.127655
30
0
11
399999.706721
21
4470074.703733
31
0
0
LINE
8
Merdians
62
8
10
399999.722284
20
-15524201.932049
30
0
11
-636444.303631
21
-15243126.595074
31
0
0
LINE
8
Merdians
62
8
10
-636444.303631
20
-15243126.595074
30
0
11
-1685117.402905
21
-14811552.792500
31
0
0
LINE
8
Merdians
62
8
10
-1685117.402905
20
-14811552.792500
30
0
11
-2789912.533615
21
-14088702.872620
31
0
0
LINE
8
Merdians
62
8
10
-2789912.533615
20
-14088702.872620
30
0
11
-4017850.029834
21
-12988115.282373
31
0
0
LINE
8
Merdians
62
8
10
-4017850.029834
20
-12988115.282373
30
0
11
-5402981.978776
21
-11538686.228213
31
0
0
LINE
8
Merdians
62
8
10
-5402981.978776
20
-11538686.228213
30
0
11
-6877561.103824
21
-9898967.286152
31
0
0
LINE
8
Merdians
62
8
10
-6877561.103824
20
-9898967.286152
30
0
11
-8245199.547223
21
-8282811.971198
31
0
0
LINE
8
Merdians
62
8
10
-8245199.547223
20
-8282811.971198
30
0
11
-9230655.604999
21
-6831435.397706
31
0
0
LINE
8
Merdians
62
8
10
-9230655.604999
20
-6831435.397706
30
0
11
-9591366.552402
21
-5527063.652264
31
0
0
LINE
8
Merdians
62
8
10
-9591366.552402
20
-5527063.652264
30
0
11
-9230655.604999
21
-4222691.906822
31
0
0
LINE
8
Merdians
62
8
10
-9230655.604999
20
-4222691.906822
30
0
11
-8245199.547223
21
-2771315.333330
31
0
0
LINE
8
Merdians
62
8
10
-8245199.547223
20
-2771315.333330
30
0
11
-6877561.103824
21
-1155160.018376
31
0
0
LINE
8
Merdians
62
8
10
-6877561.103824
20
-1155160.018376
30
0
11
-5402981.978776
21
484558.923685
31
0
0
LINE
8
Merdians
62
8
10
-5402981.978776
20
484558.923685
30
0
11
-4017850.029834
21
1933987.977845
31
0
0
LINE
8
Merdians
62
8
10
-4017850.029834
20
1933987.977845
30
0
11
-2789912.533615
21
3034575.568092
31
0
0
LINE
8
Merdians
62
8
10
-2789912.533615
20
3034575.568092
30
0
11
-1685117.402905
21
3757425.487972
31
0
0
LINE
8
Merdians
62
8
10
-1685117.402905
20
3757425.487972
30
0
11
-636444.303631
21
4188999.290546
31
0
0
LINE
8
Merdians
62
8
10
-636444.303631
20
4188999.290546
30
0
11
399999.722284
21
4470074.627521
31
0
0
LINE
8
Merdians
62
8
10
399999.746100
20
-15524201.867232
30
0
11
-547945.848415
21
-15008177.107132
31
0
0
LINE
8
Merdians
62
8
10
-547945.848415
20
-15008177.107132
30
0
11
-1504448.847679
21
-14384905.133953
31
0
0
LINE
8
Merdians
62
8
10
-1504448.847679
20
-14384905.133953
30
0
11
-2487547.177927
21
-13562194.389901
31
0
0
LINE
8
Merdians
62
8
10
-2487547.177927
20
-13562194.389901
30
0
11
-3517502.834414
21
-12489686.722013
31
0
0
LINE
8
Merdians
62
8
10
-3517502.834414
20
-12489686.722013
30
0
11
-4590515.912694
21
-11186743.117591
31
0
0
LINE
8
Merdians
62
8
10
-4590515.912694
20
-11186743.117591
30
0
11
-5649498.463046
21
-9743318.179367
31
0
0
LINE
8
Merdians
62
8
10
-5649498.463046
20
-9743318.179367
30
0
11
-6576218.866120
21
-8277794.560363
31
0
0
LINE
8
Merdians
62
8
10
-6576218.866120
20
-8277794.560363
30
0
11
-7219398.511637
21
-6871630.729978
31
0
0
LINE
8
Merdians
62
8
10
-7219398.511637
20
-6871630.729978
30
0
11
-7450606.415507
21
-5527063.652264
31
0
0
LINE
8
Merdians
62
8
10
-7450606.415507
20
-5527063.652264
30
0
11
-7219398.511637
21
-4182496.574550
31
0
0
LINE
8
Merdians
62
8
10
-7219398.511637
20
-4182496.574550
30
0
11
-6576218.866120
21
-2776332.744165
31
0
0
LINE
8
Merdians
62
8
10
-6576218.866120
20
-2776332.744165
30
0
11
-5649498.463046
21
-1310809.125160
31
0
0
LINE
8
Merdians
62
8
10
-5649498.463046
20
-1310809.125160
30
0
11
-4590515.912694
21
132615.813063
31
0
0
LINE
8
Merdians
62
8
10
-4590515.912694
20
132615.813063
30
0
11
-3517502.834414
21
1435559.417485
31
0
0
LINE
8
Merdians
62
8
10
-3517502.834414
20
1435559.417485
30
0
11
-2487547.177927
21
2508067.085374
31
0
0
LINE
8
Merdians
62
8
10
-2487547.177927
20
2508067.085374
30
0
11
-1504448.847679
21
3330777.829425
31
0
0
LINE
8
Merdians
62
8
10
-1504448.847679
20
3330777.829425
30
0
11
-547945.848415
21
3954049.802604
31
0
0
LINE
8
Merdians
62
8
10
-547945.848415
20
3954049.802604
30
0
11
399999.746100
21
4470074.562705
31
0
0
LINE
8
Merdians
62
8
10
399999.777546
20
-15524201.813574
30
0
11
-429749.669552
21
-14814132.570508
31
0
0
LINE
8
Merdians
62
8
10
-429749.669552
20
-14814132.570508
30
0
11
-1260257.786883
21
-14033576.300773
31
0
0
LINE
8
Merdians
62
8
10
-1260257.786883
20
-14033576.300773
30
0
11
-2092969.766218
21
-13125261.655027
31
0
0
LINE
8
Merdians
62
8
10
-2092969.766218
20
-13125261.655027
30
0
11
-2925119.989934
21
-12060214.628163
31
0
0
LINE
8
Merdians
62
8
10
-2925119.989934
20
-12060214.628163
30
0
11
-3739026.571586
21
-10849040.025791
31
0
0
LINE
8
Merdians
62
8
10
-3739026.571586
20
-10849040.025791
30
0
11
-4492060.079654
21
-9538725.083565
31
0
0
LINE
8
Merdians
62
8
10
-4492060.079654
20
-9538725.083565
30
0
11
-5116464.377185
21
-8190624.481538
31
0
0
LINE
8
Merdians
62
8
10
-5116464.377185
20
-8190624.481538
30
0
11
-5534001.078876
21
-6849975.964391
31
0
0
LINE
8
Merdians
62
8
10
-5534001.078876
20
-6849975.964391
30
0
11
-5681315.093180
21
-5527063.652264
31
0
0
LINE
8
Merdians
62
8
10
-5681315.093180
20
-5527063.652264
30
0
11
-5534001.078876
21
-4204151.340137
31
0
0
LINE
8
Merdians
62
8
10
-5534001.078876
20
-4204151.340137
30
0
11
-5116464.377185
21
-2863502.822990
31
0
0
LINE
8
Merdians
62
8
10
-5116464.377185
20
-2863502.822990
30
0
11
-4492060.079654
21
-1515402.220963
31
0
0
LINE
8
Merdians
62
8
10
-4492060.079654
20
-1515402.220963
30
0
11
-3739026.571586
21
-205087.278737
31
0
0
LINE
8
Merdians
62
8
10
-3739026.571586
20
-205087.278737
30
0
11
-2925119.989934
21
1006087.323635
31
0
0
LINE
8
Merdians
62
8
10
-2925119.989934
20
1006087.323635
30
0
11
-2092969.766218
21
2071134.350499
31
0
0
LINE
8
Merdians
62
8
10
-2092969.766218
20
2071134.350499
30
0
11
-1260257.786883
21
2979448.996245
31
0
0
LINE
8
Merdians
62
8
10
-1260257.786883
20
2979448.996245
30
0
11
-429749.669552
21
3760005.265980
31
0
0
LINE
8
Merdians
62
8
10
-429749.669552
20
3760005.265980
30
0
11
399999.777546
21
4470074.509047
31
0
0
LINE
8
Merdians
62
8
10
399999.815718
20
-15524201.770792
30
0
11
-286337.884801
21
-14659509.466668
31
0
0
LINE
8
Merdians
62
8
10
-286337.884801
20
-14659509.466668
30
0
11
-966546.830152
21
-13753314.355995
31
0
0
LINE
8
Merdians
62
8
10
-966546.830152
20
-13753314.355995
30
0
11
-1633124.039254
21
-12772877.671258
31
0
0
LINE
8
Merdians
62
8
10
-1633124.039254
20
-12772877.671258
30
0
11
-2274606.752197
21
-11701949.640985
31
0
0
LINE
8
Merdians
62
8
10
-2274606.752197
20
-11701949.640985
30
0
11
-2872087.443296
21
-10544749.691673
31
0
0
LINE
8
Merdians
62
8
10
-2872087.443296
20
-10544749.691673
30
0
11
-3396978.276340
21
-9322997.607884
31
0
0
LINE
8
Merdians
62
8
10
-3396978.276340
20
-9322997.607884
30
0
11
-3812724.997597
21
-8065741.487782
31
0
0
LINE
8
Merdians
62
8
10
-3812724.997597
20
-8065741.487782
30
0
11
-4081613.497832
21
-6796757.173592
31
0
0
LINE
8
Merdians
62
8
10
-4081613.497832
20
-6796757.173592
30
0
11
-4174847.311833
21
-5527063.652264
31
0
0
LINE
8
Merdians
62
8
10
-4174847.311833
20
-5527063.652264
30
0
11
-4081613.497832
21
-4257370.130936
31
0
0
LINE
8
Merdians
62
8
10
-4081613.497832
20
-4257370.130936
30
0
11
-3812724.997597
21
-2988385.816746
31
0
0
LINE
8
Merdians
62
8
10
-3812724.997597
20
-2988385.816746
30
0
11
-3396978.276340
21
-1731129.696644
31
0
0
LINE
8
Merdians
62
8
10
-3396978.276340
20
-1731129.696644
30
0
11
-2872087.443296
21
-509377.612855
31
0
0
LINE
8
Merdians
62
8
10
-2872087.443296
20
-509377.612855
30
0
11
-2274606.752197
21
647822.336458
31
0
0
LINE
8
Merdians
62
8
10
-2274606.752197
20
647822.336458
30
0
11
-1633124.039254
21
1718750.366730
31
0
0
LINE
8
Merdians
62
8
10
-1633124.039254
20
1718750.366730
30
0
11
-966546.830152
21
2699187.051467
31
0
0
LINE
8
Merdians
62
8
10
-966546.830152
20
2699187.051467
30
0
11
-286337.884801
21
3605382.162140
31
0
0
LINE
8
Merdians
62
8
10
-286337.884801
20
3605382.162140
30
0
11
399999.815718
21
4470074.466264
31
0
0
LINE
8
Merdians
62
8
10
399999.859478
20
-15524201.738562
30
0
11
-122553.845556
21
-14542923.487539
31
0
0
LINE
8
Merdians
62
8
10
-122553.845556
20
-14542923.487539
30
0
11
-635591.915327
21
-13541032.606182
31
0
0
LINE
8
Merdians
62
8
10
-635591.915327
20
-13541032.606182
30
0
11
-1128701.788508
21
-12502346.008069
31
0
0
LINE
8
Merdians
62
8
10
-1128701.788508
20
-12502346.008069
30
0
11
-1589658.731468
21
-11418489.132368
31
0
0
LINE
8
Merdians
62
8
10
-1589658.731468
20
-11418489.132368
30
0
11
-2003736.919265
21
-10290147.533903
31
0
0
LINE
8
Merdians
62
8
10
-2003736.919265
20
-10290147.533903
30
0
11
-2353772.780249
21
-9125533.554661
31
0
0
LINE
8
Merdians
62
8
10
-2353772.780249
20
-9125533.554661
30
0
11
-2621490.173636
21
-7936541.670662
31
0
0
LINE
8
Merdians
62
8
10
-2621490.173636
20
-7936541.670662
30
0
11
-2790140.926856
21
-6734394.787706
31
0
0
LINE
8
Merdians
62
8
10
-2790140.926856
20
-6734394.787706
30
0
11
-2847802.473110
21
-5527063.652264
31
0
0
LINE
8
Merdians
62
8
10
-2847802.473110
20
-5527063.652264
30
0
11
-2790140.926856
21
-4319732.516822
31
0
0
LINE
8
Merdians
62
8
10
-2790140.926856
20
-4319732.516822
30
0
11
-2621490.173636
21
-3117585.633866
31
0
0
LINE
8
Merdians
62
8
10
-2621490.173636
20
-3117585.633866
30
0
11
-2353772.780249
21
-1928593.749867
31
0
0
LINE
8
Merdians
62
8
10
-2353772.780249
20
-1928593.749867
30
0
11
-2003736.919265
21
-763979.770625
31
0
0
LINE
8
Merdians
62
8
10
-2003736.919265
20
-763979.770625
30
0
11
-1589658.731468
21
364361.827840
31
0
0
LINE
8
Merdians
62
8
10
-1589658.731468
20
364361.827840
30
0
11
-1128701.788508
21
1448218.703541
31
0
0
LINE
8
Merdians
62
8
10
-1128701.788508
20
1448218.703541
30
0
11
-635591.915327
21
2486905.301654
31
0
0
LINE
8
Merdians
62
8
10
-635591.915327
20
2486905.301654
30
0
11
-122553.845556
21
3488796.183011
31
0
0
LINE
8
Merdians
62
8
10
-122553.845556
20
3488796.183011
30
0
11
399999.859478
21
4470074.434034
31
0
0
LINE
8
Merdians
62
8
10
399999.907506
20
-15524201.716533
30
0
11
56473.120163
21
-14463068.866665
31
0
0
LINE
8
Merdians
62
8
10
56473.120163
20
-14463068.866665
30
0
11
-278302.031746
21
-13394566.842353
31
0
0
LINE
8
Merdians
62
8
10
-278302.031746
20
-13394566.842353
30
0
11
-595445.345595
21
-12312815.266524
31
0
0
LINE
8
Merdians
62
8
10
-595445.345595
20
-12312815.266524
30
0
11
-885888.901964
21
-11214496.636816
31
0
0
LINE
8
Merdians
62
8
10
-885888.901964
20
-11214496.636816
30
0
11
-1140464.772948
21
-10099215.259325
31
0
0
LINE
8
Merdians
62
8
10
-1140464.772948
20
-10099215.259325
30
0
11
-1350211.680392
21
-8969071.379174
31
0
0
LINE
8
Merdians
62
8
10
-1350211.680392
20
-8969071.379174
30
0
11
-1506928.937122
21
-7827678.223060
31
0
0
LINE
8
Merdians
62
8
10
-1506928.937122
20
-7827678.223060
30
0
11
-1603919.540025
21
-6679082.269864
31
0
0
LINE
8
Merdians
62
8
10
-1603919.540025
20
-6679082.269864
30
0
11
-1636765.346553
21
-5527063.652264
31
0
0
LINE
8
Merdians
62
8
10
-1636765.346553
20
-5527063.652264
30
0
11
-1603919.540025
21
-4375045.034664
31
0
0
LINE
8
Merdians
62
8
10
-1603919.540025
20
-4375045.034664
30
0
11
-1506928.937122
21
-3226449.081468
31
0
0
LINE
8
Merdians
62
8
10
-1506928.937122
20
-3226449.081468
30
0
11
-1350211.680392
21
-2085055.925354
31
0
0
LINE
8
Merdians
62
8
10
-1350211.680392
20
-2085055.925354
30
0
11
-1140464.772948
21
-954912.045203
31
0
0
LINE
8
Merdians
62
8
10
-1140464.772948
20
-954912.045203
30
0
11
-885888.901964
21
160369.332288
31
0
0
LINE
8
Merdians
62
8
10
-885888.901964
20
160369.332288
30
0
11
-595445.345595
21
1258687.961996
31
0
0
LINE
8
Merdians
62
8
10
-595445.345595
20
1258687.961996
30
0
11
-278302.031746
21
2340439.537825
31
0
0
LINE
8
Merdians
62
8
10
-278302.031746
20
2340439.537825
30
0
11
56473.120163
21
3408941.562137
31
0
0
LINE
8
Merdians
62
8
10
56473.120163
20
3408941.562137
30
0
11
399999.907506
21
4470074.412005
31
0
0
LINE
8
Merdians
62
8
10
399999.958343
20
-15524201.704328
30
0
11
245402.964712
21
-14418697.710364
31
0
0
LINE
8
Merdians
62
8
10
245402.964712
20
-14418697.710364
30
0
11
95421.056466
21
-13312432.580915
31
0
0
LINE
8
Merdians
62
8
10
95421.056466
20
-13312432.580915
30
0
11
-45450.071713
21
-12204793.544646
31
0
0
LINE
8
Merdians
62
8
10
-45450.071713
20
-12204793.544646
30
0
11
-172954.611339
21
-11095421.282338
31
0
0
LINE
8
Merdians
62
8
10
-172954.611339
20
-11095421.282338
30
0
11
-283198.638234
21
-9984244.471335
31
0
0
LINE
8
Merdians
62
8
10
-283198.638234
20
-9984244.471335
30
0
11
-372772.385046
21
-8871442.649401
31
0
0
LINE
8
Merdians
62
8
10
-372772.385046
20
-8871442.649401
30
0
11
-438868.961851
21
-7757362.201988
31
0
0
LINE
8
Merdians
62
8
10
-438868.961851
20
-7757362.201988
30
0
11
-479392.575636
21
-6642424.791726
31
0
0
LINE
8
Merdians
62
8
10
-479392.575636
20
-6642424.791726
30
0
11
-493046.762259
21
-5527063.652264
31
0
0
LINE
8
Merdians
62
8
10
-493046.762259
20
-5527063.652264
30
0
11
-479392.575636
21
-4411702.512802
31
0
0
LINE
8
Merdians
62
8
10
-479392.575636
20
-4411702.512802
30
0
11
-438868.961851
21
-3296765.102540
31
0
0
LINE
8
Merdians
62
8
10
-438868.961851
20
-3296765.102540
30
0
11
-372772.385046
21
-2182684.655127
31
0
0
LINE
8
Merdians
62
8
10
-372772.385046
20
-2182684.655127
30
0
11
-283198.638234
21
-1069882.833193
31
0
0
LINE
8
Merdians
62
8
10
-283198.638234
20
-1069882.833193
30
0
11
-172954.611339
21
41293.977810
31
0
0
LINE
8
Merdians
62
8
10
-172954.611339
20
41293.977810
30
0
11
-45450.071713
21
1150666.240118
31
0
0
LINE
8
Merdians
62
8
10
-45450.071713
20
1150666.240118
30
0
11
95421.056466
21
2258305.276387
31
0
0
LINE
8
Merdians
62
8
10
95421.056466
20
2258305.276387
30
0
11
245402.964712
21
3364570.405836
31
0
0
LINE
8
Merdians
62
8
10
245402.964712
20
3364570.405836
30
0
11
399999.958343
21
4470074.399800
31
0
0
LINE
8
GreenwhichMerdian
62
7
10
400000.010446
20
-15524201.701558
30
0
11
438760.177838
21
-14408599.328875
31
0
0
LINE
8
GreenwhichMerdian
62
7
10
438760.177838
20
-14408599.328875
30
0
11
476323.087107
21
-13293582.304600
31
0
0
LINE
8
GreenwhichMerdian
62
7
10
476323.087107
20
-13293582.304600
30
0
11
511533.152930
21
-12179662.902787
31
0
0
LINE
8
GreenwhichMerdian
62
7
10
511533.152930
20
-12179662.902787
30
0
11
543315.409829
21
-11067217.221341
31
0
0
LINE
8
GreenwhichMerdian
62
7
10
543315.409829
20
-11067217.221341
30
0
11
570709.512137
21
-9956440.278258
31
0
0
LINE
8
GreenwhichMerdian
62
7
10
570709.512137
20
-9956440.278258
30
0
11
592897.420838
21
-8847324.505766
31
0
0
LINE
8
GreenwhichMerdian
62
7
10
592897.420838
20
-8847324.505766
30
0
11
609224.379970
21
-7739663.291395
31
0
0
LINE
8
GreenwhichMerdian
62
7
10
609224.379970
20
-7739663.291395
30
0
11
619213.615301
21
-6633077.909006
31
0
0
LINE
8
GreenwhichMerdian
62
7
10
619213.615301
20
-6633077.909006
30
0
11
622575.696464
21
-5527063.652264
31
0
0
LINE
8
GreenwhichMerdian
62
7
10
622575.696464
20
-5527063.652264
30
0
11
619213.615301
21
-4421049.395522
31
0
0
LINE
8
GreenwhichMerdian
62
7
10
619213.615301
20
-4421049.395522
30
0
11
609224.379970
21
-3314464.013133
31
0
0
LINE
8
GreenwhichMerdian
62
7
10
609224.379970
20
-3314464.013133
30
0
11
592897.420838
21
-2206802.798762
31
0
0
LINE
8
GreenwhichMerdian
62
7
10
592897.420838
20
-2206802.798762
30
0
11
570709.512137
21
-1097687.026269
31
0
0
LINE
8
GreenwhichMerdian
62
7
10
570709.512137
20
-1097687.026269
30
0
11
543315.409829
21
13089.916813
31
0
0
LINE
8
GreenwhichMerdian
62
7
10
543315.409829
20
13089.916813
30
0
11
511533.152930
21
1125535.598259
31
0
0
LINE
8
GreenwhichMerdian
62
7
10
511533.152930
20
1125535.598259
30
0
11
476323.087107
21
2239455.000072
31
0
0
LINE
8
GreenwhichMerdian
62
7
10
476323.087107
20
2239455.000072
30
0
11
438760.177838
21
3354472.024347
31
0
0
LINE
8
GreenwhichMerdian
62
7
10
438760.177838
20
3354472.024347
30
0
11
400000.010446
21
4470074.397030
31
0
0
LINE
8
Merdians
62
8
10
400000.062232
20
-15524201.707827
30
0
11
631009.043680
21
-14431579.567516
31
0
0
LINE
8
Merdians
62
8
10
631009.043680
20
-14431579.567516
30
0
11
855437.576607
21
-13337162.703391
31
0
0
LINE
8
Merdians
62
8
10
855437.576607
20
-13337162.703391
30
0
11
1066795.439672
21
-12239193.829002
31
0
0
LINE
8
Merdians
62
8
10
1066795.439672
20
-12239193.829002
30
0
11
1258794.038551
21
-11136063.061521
31
0
0
LINE
8
Merdians
62
8
10
1258794.038551
20
-11136063.061521
30
0
11
1425496.888163
21
-10026524.901719
31
0
0
LINE
8
Merdians
62
8
10
1425496.888163
20
-10026524.901719
30
0
11
1561518.818236
21
-8909992.120894
31
0
0
LINE
8
Merdians
62
8
10
1561518.818236
20
-8909992.120894
30
0
11
1662268.961283
21
-7786810.564982
31
0
0
LINE
8
Merdians
62
8
10
1662268.961283
20
-7786810.564982
30
0
11
1724213.520571
21
-6658386.237000
31
0
0
LINE
8
Merdians
62
8
10
1724213.520571
20
-6658386.237000
30
0
11
1745117.000433
21
-5527063.652264
31
0
0
LINE
8
Merdians
62
8
10
1745117.000433
20
-5527063.652264
30
0
11
1724213.520571
21
-4395741.067528
31
0
0
LINE
8
Merdians
62
8
10
1724213.520571
20
-4395741.067528
30
0
11
1662268.961283
21
-3267316.739546
31
0
0
LINE
8
Merdians
62
8
10
1662268.961283
20
-3267316.739546
30
0
11
1561518.818236
21
-2144135.183634
31
0
0
LINE
8
Merdians
62
8
10
1561518.818236
20
-2144135.183634
30
0
11
1425496.888163
21
-1027602.402809
31
0
0
LINE
8
Merdians
62
8
10
1425496.888163
20
-1027602.402809
30
0
11
1258794.038551
21
81935.756993
31
0
0
LINE
8
Merdians
62
8
10
1258794.038551
20
81935.756993
30
0
11
1066795.439672
21
1185066.524474
31
0
0
LINE
8
Merdians
62
8
10
1066795.439672
20
1185066.524474
30
0
11
855437.576607
21
2283035.398863
31
0
0
LINE
8
Merdians
62
8
10
855437.576607
20
2283035.398863
30
0
11
631009.043680
21
3377452.262988
31
0
0
LINE
8
Merdians
62
8
10
631009.043680
20
3377452.262988
30
0
11
400000.062232
21
4470074.403299
31
0
0
LINE
8
Merdians
62
8
10
400000.112127
20
-15524201.722739
30
0
11
816628.897778
21
-14486440.137834
31
0
0
LINE
8
Merdians
62
8
10
816628.897778
20
-14486440.137834
30
0
11
1223726.096737
21
-13442271.915460
31
0
0
LINE
8
Merdians
62
8
10
1223726.096737
20
-13442271.915460
30
0
11
1611367.401963
21
-12385059.704423
31
0
0
LINE
8
Merdians
62
8
10
1611367.401963
20
-12385059.704423
30
0
11
1968928.749941
21
-11308081.296748
31
0
0
LINE
8
Merdians
62
8
10
1968928.749941
20
-11308081.296748
30
0
11
2285003.404154
21
-10205341.285015
31
0
0
LINE
8
Merdians
62
8
10
2285003.404154
20
-10205341.285015
30
0
11
2547720.696640
21
-9073071.159359
31
0
0
LINE
8
Merdians
62
8
10
2547720.696640
20
-9073071.159359
30
0
11
2745586.843741
21
-7911493.249013
31
0
0
LINE
8
Merdians
62
8
10
2745586.843741
20
-7911493.249013
30
0
11
2868786.418260
21
-6726022.126108
31
0
0
LINE
8
Merdians
62
8
10
2868786.418260
20
-6726022.126108
30
0
11
2910643.981934
21
-5527063.652264
31
0
0
LINE
8
Merdians
62
8
10
2910643.981934
20
-5527063.652264
30
0
11
2868786.418260
21
-4328105.178420
31
0
0
LINE
8
Merdians
62
8
10
2868786.418260
20
-4328105.178420
30
0
11
2745586.843741
21
-3142634.055515
31
0
0
LINE
8
Merdians
62
8
10
2745586.843741
20
-3142634.055515
30
0
11
2547720.696640
21
-1981056.145169
31
0
0
LINE
8
Merdians
62
8
10
2547720.696640
20
-1981056.145169
30
0
11
2285003.404154
21
-848786.019512
31
0
0
LINE
8
Merdians
62
8
10
2285003.404154
20
-848786.019512
30
0
11
1968928.749941
21
253953.992220
31
0
0
LINE
8
Merdians
62
8
10
1968928.749941
20
253953.992220
30
0
11
1611367.401963
21
1330932.399895
31
0
0
LINE
8
Merdians
62
8
10
1611367.401963
20
1330932.399895
30
0
11
1223726.096737
21
2388144.610932
31
0
0
LINE
8
Merdians
62
8
10
1223726.096737
20
2388144.610932
30
0
11
816628.897778
21
3432312.833306
31
0
0
LINE
8
Merdians
62
8
10
816628.897778
20
3432312.833306
30
0
11
400000.112127
21
4470074.418211
31
0
0
LINE
8
Merdians
62
8
10
400000.158616
20
-15524201.745909
30
0
11
990189.384083
21
-14571957.948762
31
0
0
LINE
8
Merdians
62
8
10
990189.384083
20
-14571957.948762
30
0
11
1571718.551321
21
-13607716.768095
31
0
0
LINE
8
Merdians
62
8
10
1571718.551321
20
-13607716.768095
30
0
11
2134716.665933
21
-12618351.268625
31
0
0
LINE
8
Merdians
62
8
10
2134716.665933
20
-12618351.268625
30
0
11
2666614.607728
21
-11589057.737966
31
0
0
LINE
8
Merdians
62
8
10
2666614.607728
20
-11589057.737966
30
0
11
3150685.200323
21
-10504456.701497
31
0
0
LINE
8
Merdians
62
8
10
3150685.200323
20
-10504456.701497
30
0
11
3565578.796659
21
-9352290.237436
31
0
0
LINE
8
Merdians
62
8
10
3565578.796659
20
-9352290.237436
30
0
11
3886925.221274
21
-8129161.485126
31
0
0
LINE
8
Merdians
62
8
10
3886925.221274
20
-8129161.485126
30
0
11
4091300.328262
21
-6845624.337360
31
0
0
LINE
8
Merdians
62
8
10
4091300.328262
20
-6845624.337360
30
0
11
4161534.642062
21
-5527063.652264
31
0
0
LINE
8
Merdians
62
8
10
4161534.642062
20
-5527063.652264
30
0
11
4091300.328262
21
-4208502.967168
31
0
0
LINE
8
Merdians
62
8
10
4091300.328262
20
-4208502.967168
30
0
11
3886925.221274
21
-2924965.819402
31
0
0
LINE
8
Merdians
62
8
10
3886925.221274
20
-2924965.819402
30
0
11
3565578.796659
21
-1701837.067091
31
0
0
LINE
8
Merdians
62
8
10
3565578.796659
20
-1701837.067091
30
0
11
3150685.200323
21
-549670.603031
31
0
0
LINE
8
Merdians
62
8
10
3150685.200323
20
-549670.603031
30
0
11
2666614.607728
21
534930.433438
31
0
0
LINE
8
Merdians
62
8
10
2666614.607728
20
534930.433438
30
0
11
2134716.665933
21
1564223.964098
31
0
0
LINE
8
Merdians
62
8
10
2134716.665933
20
1564223.964098
30
0
11
1571718.551321
21
2553589.463567
31
0
0
LINE
8
Merdians
62
8
10
1571718.551321
20
2553589.463567
30
0
11
990189.384083
21
3517830.644235
31
0
0
LINE
8
Merdians
62
8
10
990189.384083
20
3517830.644235
30
0
11
400000.158616
21
4470074.441381
31
0
0
LINE
8
Merdians
62
8
10
400000.200290
20
-15524201.776971
30
0
11
1146425.711959
21
-14686864.437770
31
0
0
LINE
8
Merdians
62
8
10
1146425.711959
20
-14686864.437770
30
0
11
1889153.452943
21
-13831770.018638
31
0
0
LINE
8
Merdians
62
8
10
1889153.452943
20
-13831770.018638
30
0
11
2623445.380949
21
-12939091.085003
31
0
0
LINE
8
Merdians
62
8
10
2623445.380949
20
-12939091.085003
30
0
11
3340067.254772
21
-11984160.944073
31
0
0
LINE
8
Merdians
62
8
10
3340067.254772
20
-11984160.944073
30
0
11
4019628.164363
21
-10936766.362934
31
0
0
LINE
8
Merdians
62
8
10
4019628.164363
20
-10936766.362934
30
0
11
4628154.752611
21
-9767233.382854
31
0
0
LINE
8
Merdians
62
8
10
4628154.752611
20
-9767233.382854
30
0
11
5118477.363650
21
-8460327.093141
31
0
0
LINE
8
Merdians
62
8
10
5118477.363650
20
-8460327.093141
30
0
11
5439635.963788
21
-7030436.717940
31
0
0
LINE
8
Merdians
62
8
10
5439635.963788
20
-7030436.717940
30
0
11
5551737.458062
21
-5527063.652264
31
0
0
LINE
8
Merdians
62
8
10
5551737.458062
20
-5527063.652264
30
0
11
5439635.963788
21
-4023690.586588
31
0
0
LINE
8
Merdians
62
8
10
5439635.963788
20
-4023690.586588
30
0
11
5118477.363650
21
-2593800.211387
31
0
0
LINE
8
Merdians
62
8
10
5118477.363650
20
-2593800.211387
30
0
11
4628154.752611
21
-1286893.921674
31
0
0
LINE
8
Merdians
62
8
10
4628154.752611
20
-1286893.921674
30
0
11
4019628.164363
21
-117360.941594
31
0
0
LINE
8
Merdians
62
8
10
4019628.164363
20
-117360.941594
30
0
11
3340067.254772
21
930033.639545
31
0
0
LINE
8
Merdians
62
8
10
3340067.254772
20
930033.639545
30
0
11
2623445.380949
21
1884963.780475
31
0
0
LINE
8
Merdians
62
8
10
2623445.380949
20
1884963.780475
30
0
11
1889153.452943
21
2777642.714110
31
0
0
LINE
8
Merdians
62
8
10
1889153.452943
20
2777642.714110
30
0
11
1146425.711959
21
3632737.133242
31
0
0
LINE
8
Merdians
62
8
10
1146425.711959
20
3632737.133242
30
0
11
400000.200290
21
4470074.472443
31
0
0
LINE
8
Merdians
62
8
10
400000.235896
20
-15524201.815581
30
0
11
1280313.913195
21
-14829824.902017
31
0
0
LINE
8
Merdians
62
8
10
1280313.913195
20
-14829824.902017
30
0
11
2164618.199660
21
-14111927.595412
31
0
0
LINE
8
Merdians
62
8
10
2164618.199660
20
-14111927.595412
30
0
11
3059987.730185
21
-13345748.006140
31
0
0
LINE
8
Merdians
62
8
10
3059987.730185
20
-13345748.006140
30
0
11
3970695.903576
21
-12497661.652822
31
0
0
LINE
8
Merdians
62
8
10
3970695.903576
20
-12497661.652822
30
0
11
4882561.453035
21
-11517097.027894
31
0
0
LINE
8
Merdians
62
8
10
4882561.453035
20
-11517097.027894
30
0
11
5747035.135118
21
-10343092.494544
31
0
0
LINE
8
Merdians
62
8
10
5747035.135118
20
-10343092.494544
30
0
11
6478903.560037
21
-8932864.333879
31
0
0
LINE
8
Merdians
62
8
10
6478903.560037
20
-8932864.333879
30
0
11
6975510.682870
21
-7298946.876716
31
0
0
LINE
8
Merdians
62
8
10
6975510.682870
20
-7298946.876716
30
0
11
7152030.690670
21
-5527063.652264
31
0
0
LINE
8
Merdians
62
8
10
7152030.690670
20
-5527063.652264
30
0
11
6975510.682870
21
-3755180.427812
31
0
0
LINE
8
Merdians
62
8
10
6975510.682870
20
-3755180.427812
30
0
11
6478903.560037
21
-2121262.970649
31
0
0
LINE
8
Merdians
62
8
10
6478903.560037
20
-2121262.970649
30
0
11
5747035.135118
21
-711034.809984
31
0
0
LINE
8
Merdians
62
8
10
5747035.135118
20
-711034.809984
30
0
11
4882561.453035
21
462969.723366
31
0
0
LINE
8
Merdians
62
8
10
4882561.453035
20
462969.723366
30
0
11
3970695.903576
21
1443534.348294
31
0
0
LINE
8
Merdians
62
8
10
3970695.903576
20
1443534.348294
30
0
11
3059987.730185
21
2291620.701612
31
0
0
LINE
8
Merdians
62
8
10
3059987.730185
20
2291620.701612
30
0
11
2164618.199660
21
3057800.290884
31
0
0
LINE
8
Merdians
62
8
10
2164618.199660
20
3057800.290884
30
0
11
1280313.913195
21
3775697.597489
31
0
0
LINE
8
Merdians
62
8
10
1280313.913195
20
3775697.597489
30
0
11
400000.235896
21
4470074.511053
31
0
0
LINE
8
Merdians
62
8
10
400000.264384
20
-15524201.861434
30
0
11
1387146.099011
21
-14999417.829507
31
0
0
LINE
8
Merdians
62
8
10
1387146.099011
20
-14999417.829507
30
0
11
2385189.351707
21
-14444665.838658
31
0
0
LINE
8
Merdians
62
8
10
2385189.351707
20
-14444665.838658
30
0
11
3421307.441183
21
-13834751.639180
31
0
0
LINE
8
Merdians
62
8
10
3421307.441183
20
-13834751.639180
30
0
11
4530976.326796
21
-13132652.211703
31
0
0
LINE
8
Merdians
62
8
10
4530976.326796
20
-13132652.211703
30
0
11
5721871.013747
21
-12262810.610116
31
0
0
LINE
8
Merdians
62
8
10
5721871.013747
20
-12262810.610116
30
0
11
6931870.493706
21
-11112419.802392
31
0
0
LINE
8
Merdians
62
8
10
6931870.493706
20
-11112419.802392
30
0
11
8015352.062567
21
-9584310.671964
31
0
0
LINE
8
Merdians
62
8
10
8015352.062567
20
-9584310.671964
30
0
11
8778802.439870
21
-7676524.859756
31
0
0
LINE
8
Merdians
62
8
10
8778802.439870
20
-7676524.859756
30
0
11
9055281.691453
21
-5527063.652264
31
0
0
LINE
8
Merdians
62
8
10
9055281.691453
20
-5527063.652264
30
0
11
8778802.439870
21
-3377602.444772
31
0
0
LINE
8
Merdians
62
8
10
8778802.439870
20
-3377602.444772
30
0
11
8015352.062567
21
-1469816.632563
31
0
0
LINE
8
Merdians
62
8
10
8015352.062567
20
-1469816.632563
30
0
11
6931870.493706
21
58292.497865
31
0
0
LINE
8
Merdians
62
8
10
6931870.493706
20
58292.497865
30
0
11
5721871.013747
21
1208683.305588
31
0
0
LINE
8
Merdians
62
8
10
5721871.013747
20
1208683.305588
30
0
11
4530976.326796
21
2078524.907175
31
0
0
LINE
8
Merdians
62
8
10
4530976.326796
20
2078524.907175
30
0
11
3421307.441183
21
2780624.334652
31
0
0
LINE
8
Merdians
62
8
10
3421307.441183
20
2780624.334652
30
0
11
2385189.351707
21
3390538.534130
31
0
0
LINE
8
Merdians
62
8
10
2385189.351707
20
3390538.534130
30
0
11
1387146.099011
21
3945290.524979
31
0
0
LINE
8
Merdians
62
8
10
1387146.099011
20
3945290.524979
30
0
11
400000.264384
21
4470074.556906
31
0
0
LINE
8
Merdians
62
8
10
400000.284956
20
-15524201.914263
30
0
11
1462605.717064
21
-15194114.230241
31
0
0
LINE
8
Merdians
62
8
10
1462605.717064
20
-15194114.230241
30
0
11
2536072.908212
21
-14825198.741464
31
0
0
LINE
8
Merdians
62
8
10
2536072.908212
20
-14825198.741464
30
0
11
3677595.296417
21
-14400006.811204
31
0
0
LINE
8
Merdians
62
8
10
3677595.296417
20
-14400006.811204
30
0
11
4982323.847763
21
-13890766.008839
31
0
0
LINE
8
Merdians
62
8
10
4982323.847763
20
-13890766.008839
30
0
11
6509613.106139
21
-13194407.786884
31
0
0
LINE
8
Merdians
62
8
10
6509613.106139
20
-13194407.786884
30
0
11
8189914.399395
21
-12116880.326993
31
0
0
LINE
8
Merdians
62
8
10
8189914.399395
20
-12116880.326993
30
0
11
9785480.029900
21
-10464167.538644
31
0
0
LINE
8
Merdians
62
8
10
9785480.029900
20
-10464167.538644
30
0
11
10951873.736986
21
-8197061.825863
31
0
0
LINE
8
Merdians
62
8
10
10951873.736986
20
-8197061.825863
30
0
11
11381706.210152
21
-5527063.652264
31
0
0
LINE
8
Merdians
62
8
10
11381706.210152
20
-5527063.652264
30
0
11
10951873.736986
21
-2857065.478665
31
0
0
LINE
8
Merdians
62
8
10
10951873.736986
20
-2857065.478665
30
0
11
9785480.029900
21
-589959.765884
31
0
0
LINE
8
Merdians
62
8
10
9785480.029900
20
-589959.765884
30
0
11
8189914.399395
21
1062753.022465
31
0
0
LINE
8
Merdians
62
8
10
8189914.399395
20
1062753.022465
30
0
11
6509613.106139
21
2140280.482356
31
0
0
LINE
8
Merdians
62
8
10
6509613.106139
20
2140280.482356
30
0
11
4982323.847763
21
2836638.704311
31
0
0
LINE
8
Merdians
62
8
10
4982323.847763
20
2836638.704311
30
0
11
3677595.296417
21
3345879.506676
31
0
0
LINE
8
Merdians
62
8
10
3677595.296417
20
3345879.506676
30
0
11
2536072.908212
21
3771071.436936
31
0
0
LINE
8
Merdians
62
8
10
2536072.908212
20
3771071.436936
30
0
11
1462605.717064
21
4139986.925713
31
0
0
LINE
8
Merdians
62
8
10
1462605.717064
20
4139986.925713
30
0
11
400000.284956
21
4470074.609735
31
0
0
LINE
8
Merdians
62
8
10
400000.297115
20
-15524201.973853
30
0
11
1502842.808456
21
-15412256.967370
31
0
0
LINE
8
Merdians
62
8
10
1502842.808456
20
-15412256.967370
30
0
11
2600244.583902
21
-15247235.190697
31
0
0
LINE
8
Merdians
62
8
10
2600244.583902
20
-15247235.190697
30
0
11
3790966.643858
21
-15032408.034593
31
0
0
LINE
8
Merdians
62
8
10
3790966.643858
20
-15032408.034593
30
0
11
5272966.330986
21
-14771896.903875
31
0
0
LINE
8
Merdians
62
8
10
5272966.330986
20
-14771896.903875
30
0
11
7205527.823666
21
-14336131.607399
31
0
0
LINE
8
Merdians
62
8
10
7205527.823666
20
-14336131.607399
30
0
11
9525562.487298
21
-13409004.339394
31
0
0
LINE
8
Merdians
62
8
10
9525562.487298
20
-13409004.339394
30
0
11
11859474.470784
21
-11636201.094594
31
0
0
LINE
8
Merdians
62
8
10
11859474.470784
20
-11636201.094594
30
0
11
13623895.575761
21
-8904608.722092
31
0
0
LINE
8
Merdians
62
8
10
13623895.575761
20
-8904608.722092
30
0
11
14284127.702019
21
-5527063.652264
31
0
0
LINE
8
Merdians
62
8
10
14284127.702019
20
-5527063.652264
30
0
11
13623895.575761
21
-2149518.582436
31
0
0
LINE
8
Merdians
62
8
10
13623895.575761
20
-2149518.582436
30
0
11
11859474.470784
21
582073.790066
31
0
0
LINE
8
Merdians
62
8
10
11859474.470784
20
582073.790066
30
0
11
9525562.487298
21
2354877.034866
31
0
0
LINE
8
Merdians
62
8
10
9525562.487298
20
2354877.034866
30
0
11
7205527.823666
21
3282004.302871
31
0
0
LINE
8
Merdians
62
8
10
7205527.823666
20
3282004.302871
30
0
11
5272966.330986
21
3717769.599347
31
0
0
LINE
8
Merdians
62
8
10
5272966.330986
20
3717769.599347
30
0
11
3790966.643858
21
3978280.730065
31
0
0
LINE
8
Merdians
62
8
10
3790966.643858
20
3978280.730065
30
0
11
2600244.583902
21
4193107.886169
31
0
0
LINE
8
Merdians
62
8
10
2600244.583902
20
4193107.886169
30
0
11
1502842.808456
21
4358129.662842
31
0
0
LINE
8
Merdians
62
8
10
1502842.808456
20
4358129.662842
30
0
11
400000.297115
21
4470074.669325
31
0
0
LINE
8
Merdians
62
8
10
400000.300713
20
-15524202.040046
30
0
11
1504549.264742
21
-15652040.088349
31
0
0
LINE
8
Merdians
62
8
10
1504549.264742
20
-15652040.088349
30
0
11
2558090.085815
21
-15702736.207939
31
0
0
LINE
8
Merdians
62
8
10
2558090.085815
20
-15702736.207939
30
0
11
3714158.907538
21
-15719353.972407
31
0
0
LINE
8
Merdians
62
8
10
3714158.907538
20
-15719353.972407
30
0
11
5335817.172672
21
-15773918.658868
31
0
0
LINE
8
Merdians
62
8
10
5335817.172672
20
-15773918.658868
30
0
11
7755052.615180
21
-15716571.101156
31
0
0
LINE
8
Merdians
62
8
10
7755052.615180
20
-15716571.101156
30
0
11
10939891.499213
21
-15053939.820855
31
0
0
LINE
8
Merdians
62
8
10
10939891.499213
20
-15053939.820855
30
0
11
14322073.187618
21
-13180742.992733
31
0
0
LINE
8
Merdians
62
8
10
14322073.187618
20
-13180742.992733
30
0
11
16955171.408587
21
-9855014.959281
31
0
0
LINE
8
Merdians
62
8
10
16955171.408587
20
-9855014.959281
30
0
11
17953236.635163
21
-5527063.652264
31
0
0
LINE
8
Merdians
62
8
10
17953236.635163
20
-5527063.652264
30
0
11
16955171.408587
21
-1199112.345247
31
0
0
LINE
8
Merdians
62
8
10
16955171.408587
20
-1199112.345247
30
0
11
14322073.187618
21
2126615.688205
31
0
0
LINE
8
Merdians
62
8
10
14322073.187618
20
2126615.688205
30
0
11
10939891.499213
21
3999812.516327
31
0
0
LINE
8
Merdians
62
8
10
10939891.499213
20
3999812.516327
30
0
11
7755052.615180
21
4662443.796628
31
0
0
LINE
8
Merdians
62
8
10
7755052.615180
20
4662443.796628
30
0
11
5335817.172672
21
4719791.354341
31
0
0
LINE
8
Merdians
62
8
10
5335817.172672
20
4719791.354341
30
0
11
3714158.907538
21
4665226.667879
31
0
0
LINE
8
Merdians
62
8
10
3714158.907538
20
4665226.667879
30
0
11
2558090.085815
21
4648608.903411
31
0
0
LINE
8
Merdians
62
8
10
2558090.085815
20
4648608.903411
30
0
11
1504549.264742
21
4597912.783821
31
0
0
LINE
8
Merdians
62
8
10
1504549.264742
20
4597912.783821
30
0
11
400000.300713
21
4470074.735518
31
0
0
CIRCLE
8
OS_FO
62
3
10
-46.036774
20
-125.667600
30
0
40
10000.000000
0
CIRCLE
8
OS_TO
62
3
10
400000.000000
20
-100000.000000
30
0
40
10000.000000
0
ENDSEC
0
EOF
