999
Simple DXF by T Harness
0
SECTION
2
HEADER
9
$ACADVER
1
AC1009
9
$INSBASE
10
0.0
20
0.0
30
0.0
9
$EXTMIN
10
-1000.0
20
-1000.0
9
$EXTMAX
10
1000.0
20
1000.0
0
ENDSEC
0
SECTION
2
TABLES
0
ENDSEC
0
SECTION
2
BLOCKS
0
ENDSEC
0
SECTION
2
ENTITIES
0
POLYLINE
8
mems1e
70
1
66
1
62
3
0
VERTEX
8
mems1e
10
-100.000000
20
0.000000
30
0.000000
0
VERTEX
8
mems1e
10
0.000000
20
0.000000
30
0.000000
0
VERTEX
8
mems1e
10
100.000000
20
0.000000
30
0.000000
0
VERTEX
8
mems1e
10
100.000000
20
10.000000
30
0.000000
0
VERTEX
8
mems1e
10
0.000000
20
10.000000
30
0.000000
0
VERTEX
8
mems1e
10
0.000000
20
24.000000
30
0.000000
0
VERTEX
8
mems1e
10
100.000000
20
24.000000
30
0.000000
0
VERTEX
8
mems1e
10
100.000000
20
34.000000
30
0.000000
0
VERTEX
8
mems1e
10
0.000000
20
34.000000
30
0.000000
0
VERTEX
8
mems1e
10
0.000000
20
48.000000
30
0.000000
0
VERTEX
8
mems1e
10
100.000000
20
48.000000
30
0.000000
0
VERTEX
8
mems1e
10
100.000000
20
58.000000
30
0.000000
0
VERTEX
8
mems1e
10
0.000000
20
58.000000
30
0.000000
0
VERTEX
8
mems1e
10
0.000000
20
72.000000
30
0.000000
0
VERTEX
8
mems1e
10
100.000000
20
72.000000
30
0.000000
0
VERTEX
8
mems1e
10
100.000000
20
82.000000
30
0.000000
0
VERTEX
8
mems1e
10
0.000000
20
82.000000
30
0.000000
0
VERTEX
8
mems1e
10
0.000000
20
96.000000
30
0.000000
0
VERTEX
8
mems1e
10
100.000000
20
96.000000
30
0.000000
0
VERTEX
8
mems1e
10
100.000000
20
106.000000
30
0.000000
0
VERTEX
8
mems1e
10
0.000000
20
106.000000
30
0.000000
0
VERTEX
8
mems1e
10
0.000000
20
120.000000
30
0.000000
0
VERTEX
8
mems1e
10
100.000000
20
120.000000
30
0.000000
0
VERTEX
8
mems1e
10
100.000000
20
130.000000
30
0.000000
0
VERTEX
8
mems1e
10
0.000000
20
130.000000
30
0.000000
0
VERTEX
8
mems1e
10
0.000000
20
144.000000
30
0.000000
0
VERTEX
8
mems1e
10
100.000000
20
144.000000
30
0.000000
0
VERTEX
8
mems1e
10
100.000000
20
154.000000
30
0.000000
0
VERTEX
8
mems1e
10
0.000000
20
154.000000
30
0.000000
0
VERTEX
8
mems1e
10
0.000000
20
168.000000
30
0.000000
0
VERTEX
8
mems1e
10
100.000000
20
168.000000
30
0.000000
0
VERTEX
8
mems1e
10
100.000000
20
178.000000
30
0.000000
0
VERTEX
8
mems1e
10
0.000000
20
178.000000
30
0.000000
0
VERTEX
8
mems1e
10
0.000000
20
192.000000
30
0.000000
0
VERTEX
8
mems1e
10
100.000000
20
192.000000
30
0.000000
0
VERTEX
8
mems1e
10
100.000000
20
202.000000
30
0.000000
0
VERTEX
8
mems1e
10
0.000000
20
202.000000
30
0.000000
0
VERTEX
8
mems1e
10
0.000000
20
216.000000
30
0.000000
0
VERTEX
8
mems1e
10
100.000000
20
216.000000
30
0.000000
0
VERTEX
8
mems1e
10
100.000000
20
226.000000
30
0.000000
0
VERTEX
8
mems1e
10
0.000000
20
226.000000
30
0.000000
0
VERTEX
8
mems1e
10
0.000000
20
240.000000
30
0.000000
0
VERTEX
8
mems1e
10
100.000000
20
240.000000
30
0.000000
0
VERTEX
8
mems1e
10
100.000000
20
250.000000
30
0.000000
0
VERTEX
8
mems1e
10
0.000000
20
250.000000
30
0.000000
0
VERTEX
8
mems1e
10
0.000000
20
264.000000
30
0.000000
0
VERTEX
8
mems1e
10
100.000000
20
264.000000
30
0.000000
0
VERTEX
8
mems1e
10
100.000000
20
274.000000
30
0.000000
0
VERTEX
8
mems1e
10
0.000000
20
274.000000
30
0.000000
0
VERTEX
8
mems1e
10
0.000000
20
288.000000
30
0.000000
0
VERTEX
8
mems1e
10
100.000000
20
288.000000
30
0.000000
0
VERTEX
8
mems1e
10
100.000000
20
298.000000
30
0.000000
0
VERTEX
8
mems1e
10
0.000000
20
298.000000
30
0.000000
0
VERTEX
8
mems1e
10
0.000000
20
312.000000
30
0.000000
0
VERTEX
8
mems1e
10
100.000000
20
312.000000
30
0.000000
0
VERTEX
8
mems1e
10
100.000000
20
322.000000
30
0.000000
0
VERTEX
8
mems1e
10
0.000000
20
322.000000
30
0.000000
0
VERTEX
8
mems1e
10
0.000000
20
336.000000
30
0.000000
0
VERTEX
8
mems1e
10
100.000000
20
336.000000
30
0.000000
0
VERTEX
8
mems1e
10
100.000000
20
346.000000
30
0.000000
0
VERTEX
8
mems1e
10
0.000000
20
346.000000
30
0.000000
0
VERTEX
8
mems1e
10
0.000000
20
360.000000
30
0.000000
0
VERTEX
8
mems1e
10
100.000000
20
360.000000
30
0.000000
0
VERTEX
8
mems1e
10
100.000000
20
370.000000
30
0.000000
0
VERTEX
8
mems1e
10
0.000000
20
370.000000
30
0.000000
0
VERTEX
8
mems1e
10
0.000000
20
384.000000
30
0.000000
0
VERTEX
8
mems1e
10
100.000000
20
384.000000
30
0.000000
0
VERTEX
8
mems1e
10
100.000000
20
394.000000
30
0.000000
0
VERTEX
8
mems1e
10
0.000000
20
394.000000
30
0.000000
0
VERTEX
8
mems1e
10
0.000000
20
408.000000
30
0.000000
0
VERTEX
8
mems1e
10
100.000000
20
408.000000
30
0.000000
0
VERTEX
8
mems1e
10
100.000000
20
418.000000
30
0.000000
0
VERTEX
8
mems1e
10
0.000000
20
418.000000
30
0.000000
0
VERTEX
8
mems1e
10
0.000000
20
432.000000
30
0.000000
0
VERTEX
8
mems1e
10
100.000000
20
432.000000
30
0.000000
0
VERTEX
8
mems1e
10
100.000000
20
442.000000
30
0.000000
0
VERTEX
8
mems1e
10
0.000000
20
442.000000
30
0.000000
0
VERTEX
8
mems1e
10
0.000000
20
456.000000
30
0.000000
0
VERTEX
8
mems1e
10
100.000000
20
456.000000
30
0.000000
0
VERTEX
8
mems1e
10
100.000000
20
466.000000
30
0.000000
0
VERTEX
8
mems1e
10
0.000000
20
466.000000
30
0.000000
0
VERTEX
8
mems1e
10
0.000000
20
480.000000
30
0.000000
0
VERTEX
8
mems1e
10
100.000000
20
480.000000
30
0.000000
0
VERTEX
8
mems1e
10
100.000000
20
490.000000
30
0.000000
0
VERTEX
8
mems1e
10
0.000000
20
490.000000
30
0.000000
0
VERTEX
8
mems1e
10
0.000000
20
504.000000
30
0.000000
0
VERTEX
8
mems1e
10
100.000000
20
504.000000
30
0.000000
0
VERTEX
8
mems1e
10
100.000000
20
514.000000
30
0.000000
0
VERTEX
8
mems1e
10
0.000000
20
514.000000
30
0.000000
0
VERTEX
8
mems1e
10
0.000000
20
528.000000
30
0.000000
0
VERTEX
8
mems1e
10
100.000000
20
528.000000
30
0.000000
0
VERTEX
8
mems1e
10
100.000000
20
538.000000
30
0.000000
0
VERTEX
8
mems1e
10
0.000000
20
538.000000
30
0.000000
0
VERTEX
8
mems1e
10
0.000000
20
552.000000
30
0.000000
0
VERTEX
8
mems1e
10
100.000000
20
552.000000
30
0.000000
0
VERTEX
8
mems1e
10
100.000000
20
562.000000
30
0.000000
0
VERTEX
8
mems1e
10
0.000000
20
562.000000
30
0.000000
0
VERTEX
8
mems1e
10
0.000000
20
576.000000
30
0.000000
0
VERTEX
8
mems1e
10
100.000000
20
576.000000
30
0.000000
0
VERTEX
8
mems1e
10
100.000000
20
586.000000
30
0.000000
0
VERTEX
8
mems1e
10
0.000000
20
586.000000
30
0.000000
0
VERTEX
8
mems1e
10
0.000000
20
600.000000
30
0.000000
0
VERTEX
8
mems1e
10
100.000000
20
600.000000
30
0.000000
0
VERTEX
8
mems1e
10
100.000000
20
610.000000
30
0.000000
0
VERTEX
8
mems1e
10
0.000000
20
610.000000
30
0.000000
0
VERTEX
8
mems1e
10
0.000000
20
624.000000
30
0.000000
0
VERTEX
8
mems1e
10
100.000000
20
624.000000
30
0.000000
0
VERTEX
8
mems1e
10
100.000000
20
634.000000
30
0.000000
0
VERTEX
8
mems1e
10
0.000000
20
634.000000
30
0.000000
0
VERTEX
8
mems1e
10
0.000000
20
648.000000
30
0.000000
0
VERTEX
8
mems1e
10
100.000000
20
648.000000
30
0.000000
0
VERTEX
8
mems1e
10
100.000000
20
658.000000
30
0.000000
0
VERTEX
8
mems1e
10
0.000000
20
658.000000
30
0.000000
0
VERTEX
8
mems1e
10
0.000000
20
672.000000
30
0.000000
0
VERTEX
8
mems1e
10
100.000000
20
672.000000
30
0.000000
0
VERTEX
8
mems1e
10
100.000000
20
682.000000
30
0.000000
0
VERTEX
8
mems1e
10
0.000000
20
682.000000
30
0.000000
0
VERTEX
8
mems1e
10
0.000000
20
696.000000
30
0.000000
0
VERTEX
8
mems1e
10
100.000000
20
696.000000
30
0.000000
0
VERTEX
8
mems1e
10
100.000000
20
706.000000
30
0.000000
0
VERTEX
8
mems1e
10
0.000000
20
706.000000
30
0.000000
0
VERTEX
8
mems1e
10
0.000000
20
720.000000
30
0.000000
0
VERTEX
8
mems1e
10
100.000000
20
720.000000
30
0.000000
0
VERTEX
8
mems1e
10
100.000000
20
730.000000
30
0.000000
0
VERTEX
8
mems1e
10
0.000000
20
730.000000
30
0.000000
0
VERTEX
8
mems1e
10
0.000000
20
744.000000
30
0.000000
0
VERTEX
8
mems1e
10
100.000000
20
744.000000
30
0.000000
0
VERTEX
8
mems1e
10
100.000000
20
754.000000
30
0.000000
0
VERTEX
8
mems1e
10
0.000000
20
754.000000
30
0.000000
0
VERTEX
8
mems1e
10
0.000000
20
768.000000
30
0.000000
0
VERTEX
8
mems1e
10
100.000000
20
768.000000
30
0.000000
0
VERTEX
8
mems1e
10
100.000000
20
778.000000
30
0.000000
0
VERTEX
8
mems1e
10
0.000000
20
778.000000
30
0.000000
0
VERTEX
8
mems1e
10
0.000000
20
792.000000
30
0.000000
0
VERTEX
8
mems1e
10
100.000000
20
792.000000
30
0.000000
0
VERTEX
8
mems1e
10
100.000000
20
802.000000
30
0.000000
0
VERTEX
8
mems1e
10
0.000000
20
802.000000
30
0.000000
0
VERTEX
8
mems1e
10
0.000000
20
816.000000
30
0.000000
0
VERTEX
8
mems1e
10
100.000000
20
816.000000
30
0.000000
0
VERTEX
8
mems1e
10
100.000000
20
826.000000
30
0.000000
0
VERTEX
8
mems1e
10
0.000000
20
826.000000
30
0.000000
0
VERTEX
8
mems1e
10
0.000000
20
840.000000
30
0.000000
0
VERTEX
8
mems1e
10
100.000000
20
840.000000
30
0.000000
0
VERTEX
8
mems1e
10
100.000000
20
850.000000
30
0.000000
0
VERTEX
8
mems1e
10
0.000000
20
850.000000
30
0.000000
0
VERTEX
8
mems1e
10
0.000000
20
864.000000
30
0.000000
0
VERTEX
8
mems1e
10
100.000000
20
864.000000
30
0.000000
0
VERTEX
8
mems1e
10
100.000000
20
874.000000
30
0.000000
0
VERTEX
8
mems1e
10
0.000000
20
874.000000
30
0.000000
0
VERTEX
8
mems1e
10
0.000000
20
888.000000
30
0.000000
0
VERTEX
8
mems1e
10
100.000000
20
888.000000
30
0.000000
0
VERTEX
8
mems1e
10
100.000000
20
898.000000
30
0.000000
0
VERTEX
8
mems1e
10
0.000000
20
898.000000
30
0.000000
0
VERTEX
8
mems1e
10
0.000000
20
912.000000
30
0.000000
0
VERTEX
8
mems1e
10
100.000000
20
912.000000
30
0.000000
0
VERTEX
8
mems1e
10
100.000000
20
922.000000
30
0.000000
0
VERTEX
8
mems1e
10
0.000000
20
922.000000
30
0.000000
0
VERTEX
8
mems1e
10
0.000000
20
936.000000
30
0.000000
0
VERTEX
8
mems1e
10
100.000000
20
936.000000
30
0.000000
0
VERTEX
8
mems1e
10
100.000000
20
946.000000
30
0.000000
0
VERTEX
8
mems1e
10
0.000000
20
946.000000
30
0.000000
0
VERTEX
8
mems1e
10
-100.000000
20
946.000000
30
0.000000
0
VERTEX
8
mems1e
10
-100.000000
20
483.000000
30
0.000000
0
VERTEX
8
mems1e
10
-700.000000
20
483.000000
30
0.000000
0
VERTEX
8
mems1e
10
-700.000000
20
623.000000
30
0.000000
0
VERTEX
8
mems1e
10
-1000.000000
20
623.000000
30
0.000000
0
VERTEX
8
mems1e
10
-1000.000000
20
323.000000
30
0.000000
0
VERTEX
8
mems1e
10
-700.000000
20
323.000000
30
0.000000
0
VERTEX
8
mems1e
10
-700.000000
20
463.000000
30
0.000000
0
VERTEX
8
mems1e
10
-100.000000
20
463.000000
30
0.000000
0
SEQEND
0
ENDSEC
0
EOF
