0
SECTION
2
HEADER
9
$ACADVER
1
AC1009
9
$INSBASE
10
0.0
20
0.0
30
0.0
9
$EXTMIN
10
0
20
0
30
0
9
$EXTMAX
10
0.001
20
0
30
0
9
$LIMMIN
10
-0.00025
20
0
9
$LIMMAX
10
0.00125
20
0
9
$CLAYER
8
Z88NET
9
$PDMODE
70
3
9
$PDSIZE
40
-3.0
0
ENDSEC
0
SECTION
2
TABLES
0
TABLE
2
LTYPE
70
1
0
LTYPE
2
CONTINUOUS
70
64
3
Solid line
72
65
73
0
40
0.0
0
ENDTAB
0
TABLE
2
LAYER
70
6
0
LAYER
2
0
70
64
62
-7
6
CONTINUOUS
0
LAYER
2
Z88NET
70
64
62
5
6
CONTINUOUS
0
LAYER
2
Z88EIO
70
64
62
5
6
CONTINUOUS
0
LAYER
2
Z88KNR
70
64
62
1
6
CONTINUOUS
0
LAYER
2
Z88RBD
70
64
62
6
6
CONTINUOUS
0
LAYER
2
Z88FLA
70
64
62
6
6
CONTINUOUS
0
LAYER
2
Z88GEN
70
64
62
6
6
CONTINUOUS
0
LAYER
2
Z88PKT
70
64
62
1
6
CONTINUOUS
0
ENDTAB
0
ENDSEC
0
SECTION
2
ENTITIES
0
TEXT
8
Z88GEN
62
256
10
0.000056
20
0.000056
30
0.0
40
0.000011
50
0.000000
72
0
1
Z88I1.TXT 2 10 9 30 0
0
TEXT
8
Z88RBD
62
256
10
0.000056
20
-0.000111
30
0.0
40
0.000011
50
0.000000
72
0
1
Z88I2.TXT 4
0
TEXT
8
Z88RBD
62
256
10
0.000056
20
-0.000167
30
0.0
40
0.000011
50
0.000000
72
0
1
RBD 1 1 1 2   0.00000E+000
0
TEXT
8
Z88RBD
62
256
10
0.000056
20
-0.000222
30
0.0
40
0.000011
50
0.000000
72
0
1
RBD 2 1 2 2   0.00000E+000
0
TEXT
8
Z88RBD
62
256
10
0.000056
20
-0.000278
30
0.0
40
0.000011
50
0.000000
72
0
1
RBD 3 1 3 2   0.00000E+000
0
TEXT
8
Z88RBD
62
256
10
0.000056
20
-0.000333
30
0.0
40
0.000011
50
0.000000
72
0
1
RBD 4 10 3 1  -1.00000E-006
0
TEXT
8
Z88FLA
62
256
10
0.000056
20
-0.000444
30
0.0
40
0.000011
50
0.000000
72
0
1
Z88I5.TXT 0
0
999
----------Point and Test P 1  
POINT
8
Z88PKT
10
0.000000
20
0.000000
30
0.0
0
TEXT
8
Z88KNR
 10
0.000000
 20
0.000000
 30
0.0
 40
0.000011
 1
P 1
 0
999
----------Point and Test P 2  
POINT
8
Z88PKT
10
0.000111
20
0.000000
30
0.0
0
TEXT
8
Z88KNR
 10
0.000111
 20
0.000000
 30
0.0
 40
0.000011
 1
P 2
 0
999
----------Point and Test P 3  
POINT
8
Z88PKT
10
0.000222
20
0.000000
30
0.0
0
TEXT
8
Z88KNR
 10
0.000222
 20
0.000000
 30
0.0
 40
0.000011
 1
P 3
 0
999
----------Point and Test P 4  
POINT
8
Z88PKT
10
0.000333
20
0.000000
30
0.0
0
TEXT
8
Z88KNR
 10
0.000333
 20
0.000000
 30
0.0
 40
0.000011
 1
P 4
 0
999
----------Point and Test P 5  
POINT
8
Z88PKT
10
0.000444
20
0.000000
30
0.0
0
TEXT
8
Z88KNR
 10
0.000444
 20
0.000000
 30
0.0
 40
0.000011
 1
P 5
 0
999
----------Point and Test P 6  
POINT
8
Z88PKT
10
0.000556
20
0.000000
30
0.0
0
TEXT
8
Z88KNR
 10
0.000556
 20
0.000000
 30
0.0
 40
0.000011
 1
P 6
 0
999
----------Point and Test P 7  
POINT
8
Z88PKT
10
0.000667
20
0.000000
30
0.0
0
TEXT
8
Z88KNR
 10
0.000667
 20
0.000000
 30
0.0
 40
0.000011
 1
P 7
 0
999
----------Point and Test P 8  
POINT
8
Z88PKT
10
0.000778
20
0.000000
30
0.0
0
TEXT
8
Z88KNR
 10
0.000778
 20
0.000000
 30
0.0
 40
0.000011
 1
P 8
 0
999
----------Point and Test P 9  
POINT
8
Z88PKT
10
0.000889
20
0.000000
30
0.0
0
TEXT
8
Z88KNR
 10
0.000889
 20
0.000000
 30
0.0
 40
0.000011
 1
P 9
 0
999
----------Point and Test P 10  
POINT
8
Z88PKT
10
0.001000
20
0.000000
30
0.0
0
TEXT
8
Z88KNR
 10
0.001000
 20
0.000000
 30
0.0
 40
0.000011
 1
P 10
 0
TEXT
8
Z88EIO
62
256
10
0.000033
20
0.000006
30
0.0
40
0.000011
50
0.000000
72
0
1
FE 1 13
0
TEXT
8
Z88EIO
62
256
10
0.000144
20
0.000006
30
0.0
40
0.000011
50
0.000000
72
0
1
FE 2 13
0
TEXT
8
Z88EIO
62
256
10
0.000256
20
0.000006
30
0.0
40
0.000011
50
0.000000
72
0
1
FE 3 13
0
TEXT
8
Z88EIO
62
256
10
0.000367
20
0.000006
30
0.0
40
0.000011
50
0.000000
72
0
1
FE 4 13
0
TEXT
8
Z88EIO
62
256
10
0.000478
20
0.000006
30
0.0
40
0.000011
50
0.000000
72
0
1
FE 5 13
0
TEXT
8
Z88EIO
62
256
10
0.000589
20
0.000006
30
0.0
40
0.000011
50
0.000000
72
0
1
FE 6 13
0
TEXT
8
Z88EIO
62
256
10
0.000700
20
0.000006
30
0.0
40
0.000011
50
0.000000
72
0
1
FE 7 13
0
TEXT
8
Z88EIO
62
256
10
0.000811
20
0.000006
30
0.0
40
0.000011
50
0.000000
72
0
1
FE 8 13
0
TEXT
8
Z88EIO
62
256
10
0.000922
20
0.000006
30
0.0
40
0.000011
50
0.000000
72
0
1
FE 9 13
0
LINE
8
Z88NET
 10
0.000000
 20
0.000000
 30
0.0
 11
0.000111
 21
0.000000
 31
0.0
 0
LINE
8
Z88NET
 10
0.000111
 20
0.000000
 30
0.0
 11
0.000222
 21
0.000000
 31
0.0
 0
LINE
8
Z88NET
 10
0.000222
 20
0.000000
 30
0.0
 11
0.000333
 21
0.000000
 31
0.0
 0
LINE
8
Z88NET
 10
0.000333
 20
0.000000
 30
0.0
 11
0.000444
 21
0.000000
 31
0.0
 0
LINE
8
Z88NET
 10
0.000444
 20
0.000000
 30
0.0
 11
0.000556
 21
0.000000
 31
0.0
 0
LINE
8
Z88NET
 10
0.000556
 20
0.000000
 30
0.0
 11
0.000667
 21
0.000000
 31
0.0
 0
LINE
8
Z88NET
 10
0.000667
 20
0.000000
 30
0.0
 11
0.000778
 21
0.000000
 31
0.0
 0
LINE
8
Z88NET
 10
0.000778
 20
0.000000
 30
0.0
 11
0.000889
 21
0.000000
 31
0.0
 0
LINE
8
Z88NET
 10
0.000889
 20
0.000000
 30
0.0
 11
0.001000
 21
0.000000
 31
0.0
 0
ENDSEC
0
EOF
